<?xml version="1.0" encoding="utf-8"?>
<svg xmlns="http://www.w3.org/2000/svg" xmlns:xlink="http://www.w3.org/1999/xlink" width="800" height="900" viewBox="0 0 3200 3600">
<defs>
  <clipPath id="clip510">
    <rect x="0" y="0" width="3200" height="3600"/>
  </clipPath>
</defs>
<path clip-path="url(#clip510)" d="M0 3600 L3200 3600 L3200 0 L0 0  Z" fill="#ffffff" fill-rule="evenodd" fill-opacity="1"/>
<defs>
  <clipPath id="clip511">
    <rect x="720" y="360" width="2521" height="2521"/>
  </clipPath>
</defs>
<path clip-path="url(#clip510)" d="M1100.44 3226.06 L3152.76 3226.06 L3152.76 270.352 L1100.44 270.352  Z" fill="#ffffff" fill-rule="evenodd" fill-opacity="1"/>
<defs>
  <clipPath id="clip512">
    <rect x="1100" y="270" width="2053" height="2957"/>
  </clipPath>
</defs>
<polyline clip-path="url(#clip512)" style="stroke:#000000; stroke-linecap:round; stroke-linejoin:round; stroke-width:2; stroke-opacity:0.1; fill:none" points="1417.67,3226.06 1417.67,270.352 "/>
<polyline clip-path="url(#clip512)" style="stroke:#000000; stroke-linecap:round; stroke-linejoin:round; stroke-width:2; stroke-opacity:0.1; fill:none" points="1809.92,3226.06 1809.92,270.352 "/>
<polyline clip-path="url(#clip512)" style="stroke:#000000; stroke-linecap:round; stroke-linejoin:round; stroke-width:2; stroke-opacity:0.1; fill:none" points="2202.18,3226.06 2202.18,270.352 "/>
<polyline clip-path="url(#clip512)" style="stroke:#000000; stroke-linecap:round; stroke-linejoin:round; stroke-width:2; stroke-opacity:0.1; fill:none" points="2594.43,3226.06 2594.43,270.352 "/>
<polyline clip-path="url(#clip512)" style="stroke:#000000; stroke-linecap:round; stroke-linejoin:round; stroke-width:2; stroke-opacity:0.1; fill:none" points="2986.68,3226.06 2986.68,270.352 "/>
<polyline clip-path="url(#clip510)" style="stroke:#000000; stroke-linecap:round; stroke-linejoin:round; stroke-width:4; stroke-opacity:1; fill:none" points="1100.44,3226.06 3152.76,3226.06 "/>
<polyline clip-path="url(#clip510)" style="stroke:#000000; stroke-linecap:round; stroke-linejoin:round; stroke-width:4; stroke-opacity:1; fill:none" points="1417.67,3226.06 1417.67,3207.16 "/>
<polyline clip-path="url(#clip510)" style="stroke:#000000; stroke-linecap:round; stroke-linejoin:round; stroke-width:4; stroke-opacity:1; fill:none" points="1809.92,3226.06 1809.92,3207.16 "/>
<polyline clip-path="url(#clip510)" style="stroke:#000000; stroke-linecap:round; stroke-linejoin:round; stroke-width:4; stroke-opacity:1; fill:none" points="2202.18,3226.06 2202.18,3207.16 "/>
<polyline clip-path="url(#clip510)" style="stroke:#000000; stroke-linecap:round; stroke-linejoin:round; stroke-width:4; stroke-opacity:1; fill:none" points="2594.43,3226.06 2594.43,3207.16 "/>
<polyline clip-path="url(#clip510)" style="stroke:#000000; stroke-linecap:round; stroke-linejoin:round; stroke-width:4; stroke-opacity:1; fill:none" points="2986.68,3226.06 2986.68,3207.16 "/>
<path clip-path="url(#clip510)" d="M1247.1 3320.79 L1321.29 3320.79 L1321.29 3330.63 L1247.1 3330.63 L1247.1 3320.79 Z" fill="#000000" fill-rule="nonzero" fill-opacity="1" /><path clip-path="url(#clip510)" d="M1371.52 3284.16 Q1362.49 3284.16 1357.92 3293.07 Q1353.4 3301.92 1353.4 3319.75 Q1353.4 3337.51 1357.92 3346.42 Q1362.49 3355.28 1371.52 3355.28 Q1380.6 3355.28 1385.12 3346.42 Q1389.69 3337.51 1389.69 3319.75 Q1389.69 3301.92 1385.12 3293.07 Q1380.6 3284.16 1371.52 3284.16 M1371.52 3274.9 Q1386.04 3274.9 1393.68 3286.41 Q1401.38 3297.87 1401.38 3319.75 Q1401.38 3341.56 1393.68 3353.08 Q1386.04 3364.54 1371.52 3364.54 Q1356.99 3364.54 1349.29 3353.08 Q1341.66 3341.56 1341.66 3319.75 Q1341.66 3297.87 1349.29 3286.41 Q1356.99 3274.9 1371.52 3274.9 Z" fill="#000000" fill-rule="nonzero" fill-opacity="1" /><path clip-path="url(#clip510)" d="M1421.92 3348.16 L1434.13 3348.16 L1434.13 3362.86 L1421.92 3362.86 L1421.92 3348.16 Z" fill="#000000" fill-rule="nonzero" fill-opacity="1" /><path clip-path="url(#clip510)" d="M1484.59 3284.16 Q1475.57 3284.16 1471 3293.07 Q1466.48 3301.92 1466.48 3319.75 Q1466.48 3337.51 1471 3346.42 Q1475.57 3355.28 1484.59 3355.28 Q1493.68 3355.28 1498.19 3346.42 Q1502.77 3337.51 1502.77 3319.75 Q1502.77 3301.92 1498.19 3293.07 Q1493.68 3284.16 1484.59 3284.16 M1484.59 3274.9 Q1499.12 3274.9 1506.76 3286.41 Q1514.46 3297.87 1514.46 3319.75 Q1514.46 3341.56 1506.76 3353.08 Q1499.12 3364.54 1484.59 3364.54 Q1470.07 3364.54 1462.37 3353.08 Q1454.73 3341.56 1454.73 3319.75 Q1454.73 3297.87 1462.37 3286.41 Q1470.07 3274.9 1484.59 3274.9 Z" fill="#000000" fill-rule="nonzero" fill-opacity="1" /><path clip-path="url(#clip510)" d="M1570.42 3316.27 Q1578.81 3318.07 1583.49 3323.74 Q1588.24 3329.41 1588.24 3337.74 Q1588.24 3350.53 1579.44 3357.54 Q1570.65 3364.54 1554.44 3364.54 Q1549 3364.54 1543.22 3363.44 Q1537.49 3362.4 1531.35 3360.26 L1531.35 3348.97 Q1536.22 3351.81 1542 3353.25 Q1547.79 3354.7 1554.1 3354.7 Q1565.09 3354.7 1570.82 3350.36 Q1576.61 3346.02 1576.61 3337.74 Q1576.61 3330.11 1571.23 3325.82 Q1565.9 3321.48 1556.35 3321.48 L1546.28 3321.48 L1546.28 3311.88 L1556.82 3311.88 Q1565.44 3311.88 1570.01 3308.46 Q1574.58 3304.99 1574.58 3298.51 Q1574.58 3291.85 1569.84 3288.32 Q1565.15 3284.74 1556.35 3284.74 Q1551.55 3284.74 1546.05 3285.78 Q1540.56 3286.82 1533.96 3289.02 L1533.96 3278.6 Q1540.61 3276.75 1546.4 3275.82 Q1552.25 3274.9 1557.4 3274.9 Q1570.71 3274.9 1578.46 3280.97 Q1586.21 3286.99 1586.21 3297.29 Q1586.21 3304.47 1582.11 3309.45 Q1578 3314.36 1570.42 3316.27 Z" fill="#000000" fill-rule="nonzero" fill-opacity="1" /><path clip-path="url(#clip510)" d="M1715.68 3284.16 Q1706.65 3284.16 1702.08 3293.07 Q1697.57 3301.92 1697.57 3319.75 Q1697.57 3337.51 1702.08 3346.42 Q1706.65 3355.28 1715.68 3355.28 Q1724.77 3355.28 1729.28 3346.42 Q1733.85 3337.51 1733.85 3319.75 Q1733.85 3301.92 1729.28 3293.07 Q1724.77 3284.16 1715.68 3284.16 M1715.68 3274.9 Q1730.21 3274.9 1737.84 3286.41 Q1745.54 3297.87 1745.54 3319.75 Q1745.54 3341.56 1737.84 3353.08 Q1730.21 3364.54 1715.68 3364.54 Q1701.16 3364.54 1693.46 3353.08 Q1685.82 3341.56 1685.82 3319.75 Q1685.82 3297.87 1693.46 3286.41 Q1701.16 3274.9 1715.68 3274.9 Z" fill="#000000" fill-rule="nonzero" fill-opacity="1" /><path clip-path="url(#clip510)" d="M1766.09 3348.16 L1778.3 3348.16 L1778.3 3362.86 L1766.09 3362.86 L1766.09 3348.16 Z" fill="#000000" fill-rule="nonzero" fill-opacity="1" /><path clip-path="url(#clip510)" d="M1828.76 3284.16 Q1819.73 3284.16 1815.16 3293.07 Q1810.65 3301.92 1810.65 3319.75 Q1810.65 3337.51 1815.16 3346.42 Q1819.73 3355.28 1828.76 3355.28 Q1837.84 3355.28 1842.36 3346.42 Q1846.93 3337.51 1846.93 3319.75 Q1846.93 3301.92 1842.36 3293.07 Q1837.84 3284.16 1828.76 3284.16 M1828.76 3274.9 Q1843.28 3274.9 1850.92 3286.41 Q1858.62 3297.87 1858.62 3319.75 Q1858.62 3341.56 1850.92 3353.08 Q1843.28 3364.54 1828.76 3364.54 Q1814.23 3364.54 1806.54 3353.08 Q1798.9 3341.56 1798.9 3319.75 Q1798.9 3297.87 1806.54 3286.41 Q1814.23 3274.9 1828.76 3274.9 Z" fill="#000000" fill-rule="nonzero" fill-opacity="1" /><path clip-path="url(#clip510)" d="M1904.16 3284.16 Q1895.14 3284.16 1890.56 3293.07 Q1886.05 3301.92 1886.05 3319.75 Q1886.05 3337.51 1890.56 3346.42 Q1895.14 3355.28 1904.16 3355.28 Q1913.25 3355.28 1917.76 3346.42 Q1922.33 3337.51 1922.33 3319.75 Q1922.33 3301.92 1917.76 3293.07 Q1913.25 3284.16 1904.16 3284.16 M1904.16 3274.9 Q1918.69 3274.9 1926.33 3286.41 Q1934.02 3297.87 1934.02 3319.75 Q1934.02 3341.56 1926.33 3353.08 Q1918.69 3364.54 1904.16 3364.54 Q1889.64 3364.54 1881.94 3353.08 Q1874.3 3341.56 1874.3 3319.75 Q1874.3 3297.87 1881.94 3286.41 Q1889.64 3274.9 1904.16 3274.9 Z" fill="#000000" fill-rule="nonzero" fill-opacity="1" /><path clip-path="url(#clip510)" d="M2108.74 3284.16 Q2099.72 3284.16 2095.15 3293.07 Q2090.63 3301.92 2090.63 3319.75 Q2090.63 3337.51 2095.15 3346.42 Q2099.72 3355.28 2108.74 3355.28 Q2117.83 3355.28 2122.34 3346.42 Q2126.92 3337.51 2126.92 3319.75 Q2126.92 3301.92 2122.34 3293.07 Q2117.83 3284.16 2108.74 3284.16 M2108.74 3274.9 Q2123.27 3274.9 2130.91 3286.41 Q2138.61 3297.87 2138.61 3319.75 Q2138.61 3341.56 2130.91 3353.08 Q2123.27 3364.54 2108.74 3364.54 Q2094.22 3364.54 2086.52 3353.08 Q2078.88 3341.56 2078.88 3319.75 Q2078.88 3297.87 2086.52 3286.41 Q2094.22 3274.9 2108.74 3274.9 Z" fill="#000000" fill-rule="nonzero" fill-opacity="1" /><path clip-path="url(#clip510)" d="M2159.15 3348.16 L2171.36 3348.16 L2171.36 3362.86 L2159.15 3362.86 L2159.15 3348.16 Z" fill="#000000" fill-rule="nonzero" fill-opacity="1" /><path clip-path="url(#clip510)" d="M2221.82 3284.16 Q2212.79 3284.16 2208.22 3293.07 Q2203.71 3301.92 2203.71 3319.75 Q2203.71 3337.51 2208.22 3346.42 Q2212.79 3355.28 2221.82 3355.28 Q2230.91 3355.28 2235.42 3346.42 Q2239.99 3337.51 2239.99 3319.75 Q2239.99 3301.92 2235.42 3293.07 Q2230.91 3284.16 2221.82 3284.16 M2221.82 3274.9 Q2236.35 3274.9 2243.99 3286.41 Q2251.68 3297.87 2251.68 3319.75 Q2251.68 3341.56 2243.99 3353.08 Q2236.35 3364.54 2221.82 3364.54 Q2207.3 3364.54 2199.6 3353.08 Q2191.96 3341.56 2191.96 3319.75 Q2191.96 3297.87 2199.6 3286.41 Q2207.3 3274.9 2221.82 3274.9 Z" fill="#000000" fill-rule="nonzero" fill-opacity="1" /><path clip-path="url(#clip510)" d="M2307.64 3316.27 Q2316.04 3318.07 2320.72 3323.74 Q2325.47 3329.41 2325.47 3337.74 Q2325.47 3350.53 2316.67 3357.54 Q2307.88 3364.54 2291.67 3364.54 Q2286.23 3364.54 2280.45 3363.44 Q2274.72 3362.4 2268.58 3360.26 L2268.58 3348.97 Q2273.44 3351.81 2279.23 3353.25 Q2285.02 3354.7 2291.32 3354.7 Q2302.32 3354.7 2308.05 3350.36 Q2313.84 3346.02 2313.84 3337.74 Q2313.84 3330.11 2308.45 3325.82 Q2303.13 3321.48 2293.58 3321.48 L2283.51 3321.48 L2283.51 3311.88 L2294.04 3311.88 Q2302.67 3311.88 2307.24 3308.46 Q2311.81 3304.99 2311.81 3298.51 Q2311.81 3291.85 2307.07 3288.32 Q2302.38 3284.74 2293.58 3284.74 Q2288.78 3284.74 2283.28 3285.78 Q2277.78 3286.82 2271.19 3289.02 L2271.19 3278.6 Q2277.84 3276.75 2283.63 3275.82 Q2289.47 3274.9 2294.62 3274.9 Q2307.93 3274.9 2315.69 3280.97 Q2323.44 3286.99 2323.44 3297.29 Q2323.44 3304.47 2319.33 3309.45 Q2315.22 3314.36 2307.64 3316.27 Z" fill="#000000" fill-rule="nonzero" fill-opacity="1" /><path clip-path="url(#clip510)" d="M2499.99 3284.16 Q2490.96 3284.16 2486.39 3293.07 Q2481.87 3301.92 2481.87 3319.75 Q2481.87 3337.51 2486.39 3346.42 Q2490.96 3355.28 2499.99 3355.28 Q2509.07 3355.28 2513.59 3346.42 Q2518.16 3337.51 2518.16 3319.75 Q2518.16 3301.92 2513.59 3293.07 Q2509.07 3284.16 2499.99 3284.16 M2499.99 3274.9 Q2514.51 3274.9 2522.15 3286.41 Q2529.85 3297.87 2529.85 3319.75 Q2529.85 3341.56 2522.15 3353.08 Q2514.51 3364.54 2499.99 3364.54 Q2485.46 3364.54 2477.76 3353.08 Q2470.12 3341.56 2470.12 3319.75 Q2470.12 3297.87 2477.76 3286.41 Q2485.46 3274.9 2499.99 3274.9 Z" fill="#000000" fill-rule="nonzero" fill-opacity="1" /><path clip-path="url(#clip510)" d="M2550.39 3348.16 L2562.6 3348.16 L2562.6 3362.86 L2550.39 3362.86 L2550.39 3348.16 Z" fill="#000000" fill-rule="nonzero" fill-opacity="1" /><path clip-path="url(#clip510)" d="M2613.06 3284.16 Q2604.04 3284.16 2599.46 3293.07 Q2594.95 3301.92 2594.95 3319.75 Q2594.95 3337.51 2599.46 3346.42 Q2604.04 3355.28 2613.06 3355.28 Q2622.15 3355.28 2626.66 3346.42 Q2631.23 3337.51 2631.23 3319.75 Q2631.23 3301.92 2626.66 3293.07 Q2622.15 3284.16 2613.06 3284.16 M2613.06 3274.9 Q2627.59 3274.9 2635.23 3286.41 Q2642.92 3297.87 2642.92 3319.75 Q2642.92 3341.56 2635.23 3353.08 Q2627.59 3364.54 2613.06 3364.54 Q2598.54 3364.54 2590.84 3353.08 Q2583.2 3341.56 2583.2 3319.75 Q2583.2 3297.87 2590.84 3286.41 Q2598.54 3274.9 2613.06 3274.9 Z" fill="#000000" fill-rule="nonzero" fill-opacity="1" /><path clip-path="url(#clip510)" d="M2689.92 3315 Q2682.04 3315 2677.42 3320.38 Q2672.84 3325.77 2672.84 3335.14 Q2672.84 3344.46 2677.42 3349.9 Q2682.04 3355.28 2689.92 3355.28 Q2697.79 3355.28 2702.36 3349.9 Q2706.99 3344.46 2706.99 3335.14 Q2706.99 3325.77 2702.36 3320.38 Q2697.79 3315 2689.92 3315 M2713.12 3278.37 L2713.12 3289.02 Q2708.72 3286.93 2704.21 3285.83 Q2699.75 3284.74 2695.35 3284.74 Q2683.78 3284.74 2677.65 3292.55 Q2671.57 3300.36 2670.7 3316.16 Q2674.12 3311.12 2679.27 3308.46 Q2684.42 3305.74 2690.61 3305.74 Q2703.63 3305.74 2711.15 3313.67 Q2718.73 3321.54 2718.73 3335.14 Q2718.73 3348.45 2710.86 3356.49 Q2702.99 3364.54 2689.92 3364.54 Q2674.93 3364.54 2667 3353.08 Q2659.07 3341.56 2659.07 3319.75 Q2659.07 3299.26 2668.79 3287.11 Q2678.51 3274.9 2694.89 3274.9 Q2699.29 3274.9 2703.75 3275.77 Q2708.26 3276.63 2713.12 3278.37 Z" fill="#000000" fill-rule="nonzero" fill-opacity="1" /><path clip-path="url(#clip510)" d="M2892.67 3284.16 Q2883.65 3284.16 2879.07 3293.07 Q2874.56 3301.92 2874.56 3319.75 Q2874.56 3337.51 2879.07 3346.42 Q2883.65 3355.28 2892.67 3355.28 Q2901.76 3355.28 2906.27 3346.42 Q2910.84 3337.51 2910.84 3319.75 Q2910.84 3301.92 2906.27 3293.07 Q2901.76 3284.16 2892.67 3284.16 M2892.67 3274.9 Q2907.2 3274.9 2914.84 3286.41 Q2922.53 3297.87 2922.53 3319.75 Q2922.53 3341.56 2914.84 3353.08 Q2907.2 3364.54 2892.67 3364.54 Q2878.15 3364.54 2870.45 3353.08 Q2862.81 3341.56 2862.81 3319.75 Q2862.81 3297.87 2870.45 3286.41 Q2878.15 3274.9 2892.67 3274.9 Z" fill="#000000" fill-rule="nonzero" fill-opacity="1" /><path clip-path="url(#clip510)" d="M2943.08 3348.16 L2955.29 3348.16 L2955.29 3362.86 L2943.08 3362.86 L2943.08 3348.16 Z" fill="#000000" fill-rule="nonzero" fill-opacity="1" /><path clip-path="url(#clip510)" d="M3005.75 3284.16 Q2996.72 3284.16 2992.15 3293.07 Q2987.64 3301.92 2987.64 3319.75 Q2987.64 3337.51 2992.15 3346.42 Q2996.72 3355.28 3005.75 3355.28 Q3014.84 3355.28 3019.35 3346.42 Q3023.92 3337.51 3023.92 3319.75 Q3023.92 3301.92 3019.35 3293.07 Q3014.84 3284.16 3005.75 3284.16 M3005.75 3274.9 Q3020.28 3274.9 3027.92 3286.41 Q3035.61 3297.87 3035.61 3319.75 Q3035.61 3341.56 3027.92 3353.08 Q3020.28 3364.54 3005.75 3364.54 Q2991.23 3364.54 2983.53 3353.08 Q2975.89 3341.56 2975.89 3319.75 Q2975.89 3297.87 2983.53 3286.41 Q2991.23 3274.9 3005.75 3274.9 Z" fill="#000000" fill-rule="nonzero" fill-opacity="1" /><path clip-path="url(#clip510)" d="M3056.5 3361.07 L3056.5 3350.42 Q3060.9 3352.5 3065.42 3353.6 Q3069.93 3354.7 3074.27 3354.7 Q3085.84 3354.7 3091.92 3346.95 Q3098.05 3339.13 3098.92 3323.28 Q3095.57 3328.25 3090.42 3330.92 Q3085.26 3333.58 3079.01 3333.58 Q3066.05 3333.58 3058.47 3325.77 Q3050.95 3317.89 3050.95 3304.3 Q3050.95 3290.99 3058.82 3282.94 Q3066.69 3274.9 3079.77 3274.9 Q3094.76 3274.9 3102.63 3286.41 Q3110.55 3297.87 3110.55 3319.75 Q3110.55 3340.17 3100.83 3352.39 Q3091.17 3364.54 3074.79 3364.54 Q3070.39 3364.54 3065.88 3363.67 Q3061.36 3362.8 3056.5 3361.07 M3079.77 3324.43 Q3087.64 3324.43 3092.21 3319.05 Q3096.84 3313.67 3096.84 3304.3 Q3096.84 3294.98 3092.21 3289.6 Q3087.64 3284.16 3079.77 3284.16 Q3071.9 3284.16 3067.27 3289.6 Q3062.7 3294.98 3062.7 3304.3 Q3062.7 3313.67 3067.27 3319.05 Q3071.9 3324.43 3079.77 3324.43 Z" fill="#000000" fill-rule="nonzero" fill-opacity="1" /><path clip-path="url(#clip510)" d="M1427.5 3429.78 L1427.5 3441.18 Q1420.84 3437.99 1414.94 3436.43 Q1409.04 3434.87 1403.54 3434.87 Q1393.99 3434.87 1388.78 3438.57 Q1383.63 3442.28 1383.63 3449.1 Q1383.63 3454.83 1387.05 3457.78 Q1390.52 3460.68 1400.13 3462.47 L1407.19 3463.92 Q1420.26 3466.41 1426.46 3472.72 Q1432.71 3478.97 1432.71 3489.5 Q1432.71 3502.06 1424.26 3508.54 Q1415.87 3515.02 1399.61 3515.02 Q1393.47 3515.02 1386.53 3513.63 Q1379.64 3512.24 1372.23 3509.52 L1372.23 3497.48 Q1379.35 3501.48 1386.18 3503.5 Q1393.01 3505.53 1399.61 3505.53 Q1409.62 3505.53 1415.06 3501.59 Q1420.5 3497.66 1420.5 3490.37 Q1420.5 3484 1416.56 3480.41 Q1412.68 3476.82 1403.77 3475.03 L1396.65 3473.64 Q1383.58 3471.04 1377.73 3465.48 Q1371.89 3459.93 1371.89 3450.03 Q1371.89 3438.57 1379.93 3431.97 Q1388.03 3425.38 1402.21 3425.38 Q1408.29 3425.38 1414.59 3426.48 Q1420.9 3427.58 1427.5 3429.78 Z" fill="#000000" fill-rule="nonzero" fill-opacity="1" /><path clip-path="url(#clip510)" d="M1505.91 3478.27 L1505.91 3483.48 L1456.95 3483.48 Q1457.65 3494.47 1463.55 3500.26 Q1469.51 3505.99 1480.1 3505.99 Q1486.24 3505.99 1491.97 3504.49 Q1497.75 3502.98 1503.42 3499.97 L1503.42 3510.04 Q1497.69 3512.47 1491.68 3513.74 Q1485.66 3515.02 1479.47 3515.02 Q1463.96 3515.02 1454.87 3505.99 Q1445.84 3496.96 1445.84 3481.57 Q1445.84 3465.65 1454.41 3456.34 Q1463.03 3446.96 1477.61 3446.96 Q1490.69 3446.96 1498.27 3455.41 Q1505.91 3463.8 1505.91 3478.27 M1495.26 3475.15 Q1495.15 3466.41 1490.35 3461.2 Q1485.6 3455.99 1477.73 3455.99 Q1468.82 3455.99 1463.44 3461.03 Q1458.11 3466.06 1457.3 3475.2 L1495.26 3475.15 Z" fill="#000000" fill-rule="nonzero" fill-opacity="1" /><path clip-path="url(#clip510)" d="M1577.27 3474.22 L1577.27 3513.34 L1566.62 3513.34 L1566.62 3474.57 Q1566.62 3465.37 1563.03 3460.79 Q1559.44 3456.22 1552.27 3456.22 Q1543.64 3456.22 1538.67 3461.72 Q1533.69 3467.22 1533.69 3476.71 L1533.69 3513.34 L1522.98 3513.34 L1522.98 3448.53 L1533.69 3448.53 L1533.69 3458.59 Q1537.51 3452.75 1542.66 3449.86 Q1547.87 3446.96 1554.64 3446.96 Q1565.81 3446.96 1571.54 3453.91 Q1577.27 3460.79 1577.27 3474.22 Z" fill="#000000" fill-rule="nonzero" fill-opacity="1" /><path clip-path="url(#clip510)" d="M1639.82 3450.44 L1639.82 3460.5 Q1635.31 3458.19 1630.45 3457.03 Q1625.59 3455.87 1620.38 3455.87 Q1612.45 3455.87 1608.46 3458.31 Q1604.52 3460.74 1604.52 3465.6 Q1604.52 3469.3 1607.36 3471.44 Q1610.19 3473.53 1618.76 3475.43 L1622.4 3476.25 Q1633.75 3478.68 1638.49 3483.13 Q1643.3 3487.53 1643.3 3495.46 Q1643.3 3504.49 1636.12 3509.75 Q1629 3515.02 1616.5 3515.02 Q1611.29 3515.02 1605.62 3513.98 Q1600.01 3512.99 1593.76 3510.97 L1593.76 3499.97 Q1599.66 3503.04 1605.39 3504.6 Q1611.12 3506.11 1616.73 3506.11 Q1624.26 3506.11 1628.31 3503.56 Q1632.36 3500.96 1632.36 3496.27 Q1632.36 3491.93 1629.41 3489.61 Q1626.51 3487.3 1616.62 3485.16 L1612.91 3484.29 Q1603.02 3482.21 1598.62 3477.92 Q1594.22 3473.58 1594.22 3466.06 Q1594.22 3456.92 1600.7 3451.94 Q1607.19 3446.96 1619.11 3446.96 Q1625.01 3446.96 1630.22 3447.83 Q1635.43 3448.7 1639.82 3450.44 Z" fill="#000000" fill-rule="nonzero" fill-opacity="1" /><path clip-path="url(#clip510)" d="M1660.25 3448.53 L1670.9 3448.53 L1670.9 3513.34 L1660.25 3513.34 L1660.25 3448.53 M1660.25 3423.29 L1670.9 3423.29 L1670.9 3436.78 L1660.25 3436.78 L1660.25 3423.29 Z" fill="#000000" fill-rule="nonzero" fill-opacity="1" /><path clip-path="url(#clip510)" d="M1703.71 3430.12 L1703.71 3448.53 L1725.65 3448.53 L1725.65 3456.8 L1703.71 3456.8 L1703.71 3491.99 Q1703.71 3499.91 1705.85 3502.17 Q1708.05 3504.43 1714.71 3504.43 L1725.65 3504.43 L1725.65 3513.34 L1714.71 3513.34 Q1702.38 3513.34 1697.69 3508.77 Q1693.01 3504.14 1693.01 3491.99 L1693.01 3456.8 L1685.19 3456.8 L1685.19 3448.53 L1693.01 3448.53 L1693.01 3430.12 L1703.71 3430.12 Z" fill="#000000" fill-rule="nonzero" fill-opacity="1" /><path clip-path="url(#clip510)" d="M1739.65 3448.53 L1750.3 3448.53 L1750.3 3513.34 L1739.65 3513.34 L1739.65 3448.53 M1739.65 3423.29 L1750.3 3423.29 L1750.3 3436.78 L1739.65 3436.78 L1739.65 3423.29 Z" fill="#000000" fill-rule="nonzero" fill-opacity="1" /><path clip-path="url(#clip510)" d="M1764.94 3448.53 L1776.22 3448.53 L1796.48 3502.92 L1816.73 3448.53 L1828.02 3448.53 L1803.71 3513.34 L1789.24 3513.34 L1764.94 3448.53 Z" fill="#000000" fill-rule="nonzero" fill-opacity="1" /><path clip-path="url(#clip510)" d="M1842.72 3448.53 L1853.36 3448.53 L1853.36 3513.34 L1842.72 3513.34 L1842.72 3448.53 M1842.72 3423.29 L1853.36 3423.29 L1853.36 3436.78 L1842.72 3436.78 L1842.72 3423.29 Z" fill="#000000" fill-rule="nonzero" fill-opacity="1" /><path clip-path="url(#clip510)" d="M1886.18 3430.12 L1886.18 3448.53 L1908.11 3448.53 L1908.11 3456.8 L1886.18 3456.8 L1886.18 3491.99 Q1886.18 3499.91 1888.32 3502.17 Q1890.52 3504.43 1897.17 3504.43 L1908.11 3504.43 L1908.11 3513.34 L1897.17 3513.34 Q1884.85 3513.34 1880.16 3508.77 Q1875.47 3504.14 1875.47 3491.99 L1875.47 3456.8 L1867.66 3456.8 L1867.66 3448.53 L1875.47 3448.53 L1875.47 3430.12 L1886.18 3430.12 Z" fill="#000000" fill-rule="nonzero" fill-opacity="1" /><path clip-path="url(#clip510)" d="M1949.08 3519.36 Q1944.57 3530.93 1940.29 3534.46 Q1936 3537.99 1928.83 3537.99 L1920.32 3537.99 L1920.32 3529.08 L1926.57 3529.08 Q1930.97 3529.08 1933.4 3527 Q1935.83 3524.91 1938.78 3517.16 L1940.69 3512.3 L1914.48 3448.53 L1925.76 3448.53 L1946.01 3499.22 L1966.27 3448.53 L1977.55 3448.53 L1949.08 3519.36 Z" fill="#000000" fill-rule="nonzero" fill-opacity="1" /><path clip-path="url(#clip510)" d="M2040.46 3430.12 L2040.46 3448.53 L2062.39 3448.53 L2062.39 3456.8 L2040.46 3456.8 L2040.46 3491.99 Q2040.46 3499.91 2042.6 3502.17 Q2044.8 3504.43 2051.45 3504.43 L2062.39 3504.43 L2062.39 3513.34 L2051.45 3513.34 Q2039.13 3513.34 2034.44 3508.77 Q2029.75 3504.14 2029.75 3491.99 L2029.75 3456.8 L2021.94 3456.8 L2021.94 3448.53 L2029.75 3448.53 L2029.75 3430.12 L2040.46 3430.12 Z" fill="#000000" fill-rule="nonzero" fill-opacity="1" /><path clip-path="url(#clip510)" d="M2101.51 3455.99 Q2092.95 3455.99 2087.97 3462.7 Q2082.99 3469.36 2082.99 3480.99 Q2082.99 3492.62 2087.91 3499.34 Q2092.89 3505.99 2101.51 3505.99 Q2110.02 3505.99 2114.99 3499.28 Q2119.97 3492.56 2119.97 3480.99 Q2119.97 3469.47 2114.99 3462.76 Q2110.02 3455.99 2101.51 3455.99 M2101.51 3446.96 Q2115.4 3446.96 2123.33 3455.99 Q2131.26 3465.02 2131.26 3480.99 Q2131.26 3496.9 2123.33 3505.99 Q2115.4 3515.02 2101.51 3515.02 Q2087.56 3515.02 2079.64 3505.99 Q2071.77 3496.9 2071.77 3480.99 Q2071.77 3465.02 2079.64 3455.99 Q2087.56 3446.96 2101.51 3446.96 Z" fill="#000000" fill-rule="nonzero" fill-opacity="1" /><path clip-path="url(#clip510)" d="M2187.04 3426.94 L2204.46 3426.94 L2226.51 3485.74 L2248.67 3426.94 L2266.09 3426.94 L2266.09 3513.34 L2254.69 3513.34 L2254.69 3437.47 L2232.41 3496.73 L2220.67 3496.73 L2198.39 3437.47 L2198.39 3513.34 L2187.04 3513.34 L2187.04 3426.94 Z" fill="#000000" fill-rule="nonzero" fill-opacity="1" /><path clip-path="url(#clip510)" d="M2288.84 3448.53 L2299.48 3448.53 L2299.48 3513.34 L2288.84 3513.34 L2288.84 3448.53 M2288.84 3423.29 L2299.48 3423.29 L2299.48 3436.78 L2288.84 3436.78 L2288.84 3423.29 Z" fill="#000000" fill-rule="nonzero" fill-opacity="1" /><path clip-path="url(#clip510)" d="M2375.64 3448.53 L2352.2 3480.06 L2376.86 3513.34 L2364.3 3513.34 L2345.43 3487.88 L2326.57 3513.34 L2314.01 3513.34 L2339.18 3479.43 L2316.15 3448.53 L2328.71 3448.53 L2345.9 3471.62 L2363.08 3448.53 L2375.64 3448.53 Z" fill="#000000" fill-rule="nonzero" fill-opacity="1" /><path clip-path="url(#clip510)" d="M2458.92 3438.46 L2443.06 3481.45 L2474.83 3481.45 L2458.92 3438.46 M2452.32 3426.94 L2465.57 3426.94 L2498.5 3513.34 L2486.35 3513.34 L2478.48 3491.18 L2439.53 3491.18 L2431.66 3513.34 L2419.33 3513.34 L2452.32 3426.94 Z" fill="#000000" fill-rule="nonzero" fill-opacity="1" /><path clip-path="url(#clip510)" d="M2561.12 3460.97 Q2565.11 3453.79 2570.66 3450.38 Q2576.22 3446.96 2583.74 3446.96 Q2593.87 3446.96 2599.37 3454.08 Q2604.86 3461.14 2604.86 3474.22 L2604.86 3513.34 L2594.16 3513.34 L2594.16 3474.57 Q2594.16 3465.25 2590.86 3460.74 Q2587.56 3456.22 2580.79 3456.22 Q2572.52 3456.22 2567.71 3461.72 Q2562.91 3467.22 2562.91 3476.71 L2562.91 3513.34 L2552.2 3513.34 L2552.2 3474.57 Q2552.2 3465.19 2548.9 3460.74 Q2545.61 3456.22 2538.72 3456.22 Q2530.56 3456.22 2525.76 3461.78 Q2520.95 3467.28 2520.95 3476.71 L2520.95 3513.34 L2510.25 3513.34 L2510.25 3448.53 L2520.95 3448.53 L2520.95 3458.59 Q2524.6 3452.63 2529.69 3449.8 Q2534.78 3446.96 2541.79 3446.96 Q2548.85 3446.96 2553.77 3450.55 Q2558.74 3454.14 2561.12 3460.97 Z" fill="#000000" fill-rule="nonzero" fill-opacity="1" /><path clip-path="url(#clip510)" d="M2651.22 3455.99 Q2642.65 3455.99 2637.68 3462.7 Q2632.7 3469.36 2632.7 3480.99 Q2632.7 3492.62 2637.62 3499.34 Q2642.6 3505.99 2651.22 3505.99 Q2659.73 3505.99 2664.7 3499.28 Q2669.68 3492.56 2669.68 3480.99 Q2669.68 3469.47 2664.7 3462.76 Q2659.73 3455.99 2651.22 3455.99 M2651.22 3446.96 Q2665.11 3446.96 2673.04 3455.99 Q2680.96 3465.02 2680.96 3480.99 Q2680.96 3496.9 2673.04 3505.99 Q2665.11 3515.02 2651.22 3515.02 Q2637.27 3515.02 2629.34 3505.99 Q2621.47 3496.9 2621.47 3480.99 Q2621.47 3465.02 2629.34 3455.99 Q2637.27 3446.96 2651.22 3446.96 Z" fill="#000000" fill-rule="nonzero" fill-opacity="1" /><path clip-path="url(#clip510)" d="M2697.51 3487.76 L2697.51 3448.53 L2708.16 3448.53 L2708.16 3487.36 Q2708.16 3496.56 2711.75 3501.19 Q2715.34 3505.76 2722.51 3505.76 Q2731.14 3505.76 2736.11 3500.26 Q2741.15 3494.76 2741.15 3485.27 L2741.15 3448.53 L2751.8 3448.53 L2751.8 3513.34 L2741.15 3513.34 L2741.15 3503.39 Q2737.27 3509.29 2732.12 3512.18 Q2727.03 3515.02 2720.26 3515.02 Q2709.09 3515.02 2703.3 3508.07 Q2697.51 3501.13 2697.51 3487.76 M2724.31 3446.96 L2724.31 3446.96 Z" fill="#000000" fill-rule="nonzero" fill-opacity="1" /><path clip-path="url(#clip510)" d="M2827.61 3474.22 L2827.61 3513.34 L2816.96 3513.34 L2816.96 3474.57 Q2816.96 3465.37 2813.37 3460.79 Q2809.78 3456.22 2802.61 3456.22 Q2793.98 3456.22 2789.01 3461.72 Q2784.03 3467.22 2784.03 3476.71 L2784.03 3513.34 L2773.32 3513.34 L2773.32 3448.53 L2784.03 3448.53 L2784.03 3458.59 Q2787.85 3452.75 2793 3449.86 Q2798.21 3446.96 2804.98 3446.96 Q2816.15 3446.96 2821.88 3453.91 Q2827.61 3460.79 2827.61 3474.22 Z" fill="#000000" fill-rule="nonzero" fill-opacity="1" /><path clip-path="url(#clip510)" d="M2859.38 3430.12 L2859.38 3448.53 L2881.31 3448.53 L2881.31 3456.8 L2859.38 3456.8 L2859.38 3491.99 Q2859.38 3499.91 2861.52 3502.17 Q2863.72 3504.43 2870.37 3504.43 L2881.31 3504.43 L2881.31 3513.34 L2870.37 3513.34 Q2858.05 3513.34 2853.36 3508.77 Q2848.67 3504.14 2848.67 3491.99 L2848.67 3456.8 L2840.86 3456.8 L2840.86 3448.53 L2848.67 3448.53 L2848.67 3430.12 L2859.38 3430.12 Z" fill="#000000" fill-rule="nonzero" fill-opacity="1" /><polyline clip-path="url(#clip512)" style="stroke:#000000; stroke-linecap:round; stroke-linejoin:round; stroke-width:2; stroke-opacity:0.1; fill:none" points="1100.44,2999.41 3152.76,2999.41 "/>
<polyline clip-path="url(#clip512)" style="stroke:#000000; stroke-linecap:round; stroke-linejoin:round; stroke-width:2; stroke-opacity:0.1; fill:none" points="1100.44,2641.93 3152.76,2641.93 "/>
<polyline clip-path="url(#clip512)" style="stroke:#000000; stroke-linecap:round; stroke-linejoin:round; stroke-width:2; stroke-opacity:0.1; fill:none" points="1100.44,2284.44 3152.76,2284.44 "/>
<polyline clip-path="url(#clip512)" style="stroke:#000000; stroke-linecap:round; stroke-linejoin:round; stroke-width:2; stroke-opacity:0.1; fill:none" points="1100.44,1926.95 3152.76,1926.95 "/>
<polyline clip-path="url(#clip512)" style="stroke:#000000; stroke-linecap:round; stroke-linejoin:round; stroke-width:2; stroke-opacity:0.1; fill:none" points="1100.44,1569.46 3152.76,1569.46 "/>
<polyline clip-path="url(#clip512)" style="stroke:#000000; stroke-linecap:round; stroke-linejoin:round; stroke-width:2; stroke-opacity:0.1; fill:none" points="1100.44,1211.97 3152.76,1211.97 "/>
<polyline clip-path="url(#clip512)" style="stroke:#000000; stroke-linecap:round; stroke-linejoin:round; stroke-width:2; stroke-opacity:0.1; fill:none" points="1100.44,854.487 3152.76,854.487 "/>
<polyline clip-path="url(#clip512)" style="stroke:#000000; stroke-linecap:round; stroke-linejoin:round; stroke-width:2; stroke-opacity:0.1; fill:none" points="1100.44,496.999 3152.76,496.999 "/>
<polyline clip-path="url(#clip510)" style="stroke:#000000; stroke-linecap:round; stroke-linejoin:round; stroke-width:4; stroke-opacity:1; fill:none" points="1100.44,3226.06 1100.44,270.352 "/>
<polyline clip-path="url(#clip510)" style="stroke:#000000; stroke-linecap:round; stroke-linejoin:round; stroke-width:4; stroke-opacity:1; fill:none" points="1100.44,2999.41 1119.34,2999.41 "/>
<polyline clip-path="url(#clip510)" style="stroke:#000000; stroke-linecap:round; stroke-linejoin:round; stroke-width:4; stroke-opacity:1; fill:none" points="1100.44,2641.93 1119.34,2641.93 "/>
<polyline clip-path="url(#clip510)" style="stroke:#000000; stroke-linecap:round; stroke-linejoin:round; stroke-width:4; stroke-opacity:1; fill:none" points="1100.44,2284.44 1119.34,2284.44 "/>
<polyline clip-path="url(#clip510)" style="stroke:#000000; stroke-linecap:round; stroke-linejoin:round; stroke-width:4; stroke-opacity:1; fill:none" points="1100.44,1926.95 1119.34,1926.95 "/>
<polyline clip-path="url(#clip510)" style="stroke:#000000; stroke-linecap:round; stroke-linejoin:round; stroke-width:4; stroke-opacity:1; fill:none" points="1100.44,1569.46 1119.34,1569.46 "/>
<polyline clip-path="url(#clip510)" style="stroke:#000000; stroke-linecap:round; stroke-linejoin:round; stroke-width:4; stroke-opacity:1; fill:none" points="1100.44,1211.97 1119.34,1211.97 "/>
<polyline clip-path="url(#clip510)" style="stroke:#000000; stroke-linecap:round; stroke-linejoin:round; stroke-width:4; stroke-opacity:1; fill:none" points="1100.44,854.487 1119.34,854.487 "/>
<polyline clip-path="url(#clip510)" style="stroke:#000000; stroke-linecap:round; stroke-linejoin:round; stroke-width:4; stroke-opacity:1; fill:none" points="1100.44,496.999 1119.34,496.999 "/>
<path clip-path="url(#clip510)" d="M225.495 2956.21 L280.124 2956.21 L280.124 2966.05 L237.185 2966.05 L237.185 2991.63 L278.33 2991.63 L278.33 3001.47 L237.185 3001.47 L237.185 3032.77 L281.166 3032.77 L281.166 3042.61 L225.495 3042.61 L225.495 2956.21 Z" fill="#000000" fill-rule="nonzero" fill-opacity="1" /><path clip-path="url(#clip510)" d="M310.448 2959.4 L310.448 2977.8 L332.381 2977.8 L332.381 2986.07 L310.448 2986.07 L310.448 3021.26 Q310.448 3029.19 312.589 3031.44 Q314.788 3033.7 321.443 3033.7 L332.381 3033.7 L332.381 3042.61 L321.443 3042.61 Q309.117 3042.61 304.43 3038.04 Q299.742 3033.41 299.742 3021.26 L299.742 2986.07 L291.93 2986.07 L291.93 2977.8 L299.742 2977.8 L299.742 2959.4 L310.448 2959.4 Z" fill="#000000" fill-rule="nonzero" fill-opacity="1" /><path clip-path="url(#clip510)" d="M400.263 3003.49 L400.263 3042.61 L389.614 3042.61 L389.614 3003.84 Q389.614 2994.64 386.026 2990.07 Q382.439 2985.49 375.263 2985.49 Q366.64 2985.49 361.663 2990.99 Q356.686 2996.49 356.686 3005.98 L356.686 3042.61 L345.98 3042.61 L345.98 2952.57 L356.686 2952.57 L356.686 2987.87 Q360.506 2982.02 365.656 2979.13 Q370.865 2976.24 377.635 2976.24 Q388.804 2976.24 394.533 2983.18 Q400.263 2990.07 400.263 3003.49 Z" fill="#000000" fill-rule="nonzero" fill-opacity="1" /><path clip-path="url(#clip510)" d="M450.957 3010.03 Q438.052 3010.03 433.075 3012.98 Q428.098 3015.93 428.098 3023.05 Q428.098 3028.72 431.802 3032.08 Q435.563 3035.38 441.987 3035.38 Q450.841 3035.38 456.165 3029.13 Q461.547 3022.82 461.547 3012.4 L461.547 3010.03 L450.957 3010.03 M472.195 3005.63 L472.195 3042.61 L461.547 3042.61 L461.547 3032.77 Q457.901 3038.68 452.461 3041.51 Q447.022 3044.29 439.151 3044.29 Q429.198 3044.29 423.295 3038.74 Q417.45 3033.12 417.45 3023.75 Q417.45 3012.81 424.742 3007.25 Q432.091 3001.7 446.616 3001.7 L461.547 3001.7 L461.547 3000.66 Q461.547 2993.31 456.686 2989.31 Q451.883 2985.26 443.144 2985.26 Q437.589 2985.26 432.323 2986.59 Q427.056 2987.93 422.195 2990.59 L422.195 2980.75 Q428.04 2978.49 433.538 2977.39 Q439.035 2976.24 444.244 2976.24 Q458.306 2976.24 465.251 2983.53 Q472.195 2990.82 472.195 3005.63 Z" fill="#000000" fill-rule="nonzero" fill-opacity="1" /><path clip-path="url(#clip510)" d="M548.005 3003.49 L548.005 3042.61 L537.357 3042.61 L537.357 3003.84 Q537.357 2994.64 533.769 2990.07 Q530.181 2985.49 523.005 2985.49 Q514.382 2985.49 509.405 2990.99 Q504.429 2996.49 504.429 3005.98 L504.429 3042.61 L493.723 3042.61 L493.723 2977.8 L504.429 2977.8 L504.429 2987.87 Q508.248 2982.02 513.398 2979.13 Q518.607 2976.24 525.378 2976.24 Q536.546 2976.24 542.276 2983.18 Q548.005 2990.07 548.005 3003.49 Z" fill="#000000" fill-rule="nonzero" fill-opacity="1" /><path clip-path="url(#clip510)" d="M594.359 2985.26 Q585.794 2985.26 580.817 2991.98 Q575.84 2998.63 575.84 3010.26 Q575.84 3021.9 580.759 3028.61 Q585.736 3035.26 594.359 3035.26 Q602.866 3035.26 607.842 3028.55 Q612.819 3021.84 612.819 3010.26 Q612.819 2998.75 607.842 2992.03 Q602.866 2985.26 594.359 2985.26 M594.359 2976.24 Q608.248 2976.24 616.176 2985.26 Q624.104 2994.29 624.104 3010.26 Q624.104 3026.18 616.176 3035.26 Q608.248 3044.29 594.359 3044.29 Q580.412 3044.29 572.484 3035.26 Q564.613 3026.18 564.613 3010.26 Q564.613 2994.29 572.484 2985.26 Q580.412 2976.24 594.359 2976.24 Z" fill="#000000" fill-rule="nonzero" fill-opacity="1" /><path clip-path="url(#clip510)" d="M641.754 2952.57 L652.402 2952.57 L652.402 3042.61 L641.754 3042.61 L641.754 2952.57 Z" fill="#000000" fill-rule="nonzero" fill-opacity="1" /><path clip-path="url(#clip510)" d="M706.974 3005.4 L738.166 3005.4 L738.166 3014.89 L706.974 3014.89 L706.974 3005.4 Z" fill="#000000" fill-rule="nonzero" fill-opacity="1" /><path clip-path="url(#clip510)" d="M826.418 2966.4 L796.904 3012.52 L826.418 3012.52 L826.418 2966.4 M823.351 2956.21 L838.05 2956.21 L838.05 3012.52 L850.376 3012.52 L850.376 3022.24 L838.05 3022.24 L838.05 3042.61 L826.418 3042.61 L826.418 3022.24 L787.413 3022.24 L787.413 3010.96 L823.351 2956.21 Z" fill="#000000" fill-rule="nonzero" fill-opacity="1" /><path clip-path="url(#clip510)" d="M894.704 2963.91 Q885.677 2963.91 881.105 2972.82 Q876.591 2981.68 876.591 2999.5 Q876.591 3017.27 881.105 3026.18 Q885.677 3035.03 894.704 3035.03 Q903.79 3035.03 908.304 3026.18 Q912.875 3017.27 912.875 2999.5 Q912.875 2981.68 908.304 2972.82 Q903.79 2963.91 894.704 2963.91 M894.704 2954.65 Q909.23 2954.65 916.869 2966.17 Q924.565 2977.62 924.565 2999.5 Q924.565 3021.32 916.869 3032.83 Q909.23 3044.29 894.704 3044.29 Q880.179 3044.29 872.482 3032.83 Q864.843 3021.32 864.843 2999.5 Q864.843 2977.62 872.482 2966.17 Q880.179 2954.65 894.704 2954.65 Z" fill="#000000" fill-rule="nonzero" fill-opacity="1" /><path clip-path="url(#clip510)" d="M1046.44 2962.87 L1046.44 2975.19 Q1040.54 2969.7 1033.82 2966.98 Q1027.17 2964.26 1019.65 2964.26 Q1004.83 2964.26 996.961 2973.34 Q989.09 2982.37 989.09 2999.5 Q989.09 3016.57 996.961 3025.66 Q1004.83 3034.68 1019.65 3034.68 Q1027.17 3034.68 1033.82 3031.96 Q1040.54 3029.24 1046.44 3023.75 L1046.44 3035.96 Q1040.31 3040.12 1033.42 3042.21 Q1026.59 3044.29 1018.95 3044.29 Q999.333 3044.29 988.049 3032.31 Q976.764 3020.27 976.764 2999.5 Q976.764 2978.67 988.049 2966.69 Q999.333 2954.65 1018.95 2954.65 Q1026.71 2954.65 1033.53 2956.73 Q1040.42 2958.76 1046.44 2962.87 Z" fill="#000000" fill-rule="nonzero" fill-opacity="1" /><path clip-path="url(#clip510)" d="M225.495 2598.73 L280.124 2598.73 L280.124 2608.56 L237.185 2608.56 L237.185 2634.14 L278.33 2634.14 L278.33 2643.98 L237.185 2643.98 L237.185 2675.29 L281.166 2675.29 L281.166 2685.13 L225.495 2685.13 L225.495 2598.73 Z" fill="#000000" fill-rule="nonzero" fill-opacity="1" /><path clip-path="url(#clip510)" d="M310.448 2601.91 L310.448 2620.31 L332.381 2620.31 L332.381 2628.59 L310.448 2628.59 L310.448 2663.77 Q310.448 2671.7 312.589 2673.96 Q314.788 2676.21 321.443 2676.21 L332.381 2676.21 L332.381 2685.13 L321.443 2685.13 Q309.117 2685.13 304.43 2680.55 Q299.742 2675.92 299.742 2663.77 L299.742 2628.59 L291.93 2628.59 L291.93 2620.31 L299.742 2620.31 L299.742 2601.91 L310.448 2601.91 Z" fill="#000000" fill-rule="nonzero" fill-opacity="1" /><path clip-path="url(#clip510)" d="M400.263 2646 L400.263 2685.13 L389.614 2685.13 L389.614 2646.35 Q389.614 2637.15 386.026 2632.58 Q382.439 2628.01 375.263 2628.01 Q366.64 2628.01 361.663 2633.5 Q356.686 2639 356.686 2648.49 L356.686 2685.13 L345.98 2685.13 L345.98 2595.08 L356.686 2595.08 L356.686 2630.38 Q360.506 2624.54 365.656 2621.64 Q370.865 2618.75 377.635 2618.75 Q388.804 2618.75 394.533 2625.69 Q400.263 2632.58 400.263 2646 Z" fill="#000000" fill-rule="nonzero" fill-opacity="1" /><path clip-path="url(#clip510)" d="M450.957 2652.54 Q438.052 2652.54 433.075 2655.5 Q428.098 2658.45 428.098 2665.56 Q428.098 2671.24 431.802 2674.59 Q435.563 2677.89 441.987 2677.89 Q450.841 2677.89 456.165 2671.64 Q461.547 2665.33 461.547 2654.92 L461.547 2652.54 L450.957 2652.54 M472.195 2648.15 L472.195 2685.13 L461.547 2685.13 L461.547 2675.29 Q457.901 2681.19 452.461 2684.03 Q447.022 2686.8 439.151 2686.8 Q429.198 2686.8 423.295 2681.25 Q417.45 2675.63 417.45 2666.26 Q417.45 2655.32 424.742 2649.77 Q432.091 2644.21 446.616 2644.21 L461.547 2644.21 L461.547 2643.17 Q461.547 2635.82 456.686 2631.83 Q451.883 2627.78 443.144 2627.78 Q437.589 2627.78 432.323 2629.11 Q427.056 2630.44 422.195 2633.1 L422.195 2623.26 Q428.04 2621.01 433.538 2619.91 Q439.035 2618.75 444.244 2618.75 Q458.306 2618.75 465.251 2626.04 Q472.195 2633.33 472.195 2648.15 Z" fill="#000000" fill-rule="nonzero" fill-opacity="1" /><path clip-path="url(#clip510)" d="M548.005 2646 L548.005 2685.13 L537.357 2685.13 L537.357 2646.35 Q537.357 2637.15 533.769 2632.58 Q530.181 2628.01 523.005 2628.01 Q514.382 2628.01 509.405 2633.5 Q504.429 2639 504.429 2648.49 L504.429 2685.13 L493.723 2685.13 L493.723 2620.31 L504.429 2620.31 L504.429 2630.38 Q508.248 2624.54 513.398 2621.64 Q518.607 2618.75 525.378 2618.75 Q536.546 2618.75 542.276 2625.69 Q548.005 2632.58 548.005 2646 Z" fill="#000000" fill-rule="nonzero" fill-opacity="1" /><path clip-path="url(#clip510)" d="M594.359 2627.78 Q585.794 2627.78 580.817 2634.49 Q575.84 2641.14 575.84 2652.78 Q575.84 2664.41 580.759 2671.12 Q585.736 2677.78 594.359 2677.78 Q602.866 2677.78 607.842 2671.06 Q612.819 2664.35 612.819 2652.78 Q612.819 2641.26 607.842 2634.55 Q602.866 2627.78 594.359 2627.78 M594.359 2618.75 Q608.248 2618.75 616.176 2627.78 Q624.104 2636.8 624.104 2652.78 Q624.104 2668.69 616.176 2677.78 Q608.248 2686.8 594.359 2686.8 Q580.412 2686.8 572.484 2677.78 Q564.613 2668.69 564.613 2652.78 Q564.613 2636.8 572.484 2627.78 Q580.412 2618.75 594.359 2618.75 Z" fill="#000000" fill-rule="nonzero" fill-opacity="1" /><path clip-path="url(#clip510)" d="M641.754 2595.08 L652.402 2595.08 L652.402 2685.13 L641.754 2685.13 L641.754 2595.08 Z" fill="#000000" fill-rule="nonzero" fill-opacity="1" /><path clip-path="url(#clip510)" d="M706.974 2647.91 L738.166 2647.91 L738.166 2657.41 L706.974 2657.41 L706.974 2647.91 Z" fill="#000000" fill-rule="nonzero" fill-opacity="1" /><path clip-path="url(#clip510)" d="M829.716 2638.54 Q838.107 2640.33 842.795 2646 Q847.54 2651.68 847.54 2660.01 Q847.54 2672.8 838.744 2679.8 Q829.948 2686.8 813.744 2686.8 Q808.304 2686.8 802.517 2685.7 Q796.788 2684.66 790.654 2682.52 L790.654 2671.24 Q795.515 2674.07 801.302 2675.52 Q807.089 2676.97 813.397 2676.97 Q824.392 2676.97 830.121 2672.63 Q835.908 2668.28 835.908 2660.01 Q835.908 2652.37 830.526 2648.09 Q825.202 2643.75 815.654 2643.75 L805.584 2643.75 L805.584 2634.14 L816.117 2634.14 Q824.739 2634.14 829.311 2630.73 Q833.883 2627.25 833.883 2620.77 Q833.883 2614.12 829.138 2610.59 Q824.45 2607 815.654 2607 Q810.851 2607 805.353 2608.04 Q799.855 2609.08 793.258 2611.28 L793.258 2600.87 Q799.913 2599.01 805.7 2598.09 Q811.545 2597.16 816.695 2597.16 Q830.006 2597.16 837.76 2603.24 Q845.515 2609.26 845.515 2619.56 Q845.515 2626.73 841.406 2631.71 Q837.297 2636.63 829.716 2638.54 Z" fill="#000000" fill-rule="nonzero" fill-opacity="1" /><path clip-path="url(#clip510)" d="M869.82 2598.73 L915.711 2598.73 L915.711 2608.56 L880.526 2608.56 L880.526 2629.74 Q883.072 2628.88 885.619 2628.47 Q888.165 2628.01 890.711 2628.01 Q905.179 2628.01 913.628 2635.94 Q922.077 2643.86 922.077 2657.41 Q922.077 2671.35 913.396 2679.11 Q904.716 2686.8 888.917 2686.8 Q883.478 2686.8 877.806 2685.88 Q872.193 2684.95 866.174 2683.1 L866.174 2671.35 Q871.383 2674.19 876.938 2675.58 Q882.494 2676.97 888.686 2676.97 Q898.697 2676.97 904.542 2671.7 Q910.387 2666.43 910.387 2657.41 Q910.387 2648.38 904.542 2643.11 Q898.697 2637.85 888.686 2637.85 Q883.998 2637.85 879.311 2638.89 Q874.681 2639.93 869.82 2642.13 L869.82 2598.73 Z" fill="#000000" fill-rule="nonzero" fill-opacity="1" /><path clip-path="url(#clip510)" d="M1046.44 2605.38 L1046.44 2617.71 Q1040.54 2612.21 1033.82 2609.49 Q1027.17 2606.77 1019.65 2606.77 Q1004.83 2606.77 996.961 2615.85 Q989.09 2624.88 989.09 2642.01 Q989.09 2659.08 996.961 2668.17 Q1004.83 2677.2 1019.65 2677.2 Q1027.17 2677.2 1033.82 2674.48 Q1040.54 2671.76 1046.44 2666.26 L1046.44 2678.47 Q1040.31 2682.64 1033.42 2684.72 Q1026.59 2686.8 1018.95 2686.8 Q999.333 2686.8 988.049 2674.82 Q976.764 2662.79 976.764 2642.01 Q976.764 2621.18 988.049 2609.2 Q999.333 2597.16 1018.95 2597.16 Q1026.71 2597.16 1033.53 2599.25 Q1040.42 2601.27 1046.44 2605.38 Z" fill="#000000" fill-rule="nonzero" fill-opacity="1" /><path clip-path="url(#clip510)" d="M51.0167 2250.84 L51.0167 2283.31 L65.7157 2283.31 Q73.8754 2283.31 78.3314 2279.08 Q82.7874 2274.86 82.7874 2267.05 Q82.7874 2259.29 78.3314 2255.07 Q73.8754 2250.84 65.7157 2250.84 L51.0167 2250.84 M39.3269 2241.24 L65.7157 2241.24 Q80.2411 2241.24 87.6484 2247.83 Q95.1137 2254.37 95.1137 2267.05 Q95.1137 2279.84 87.6484 2286.38 Q80.2411 2292.92 65.7157 2292.92 L51.0167 2292.92 L51.0167 2327.64 L39.3269 2327.64 L39.3269 2241.24 Z" fill="#000000" fill-rule="nonzero" fill-opacity="1" /><path clip-path="url(#clip510)" d="M145.808 2272.78 Q144.014 2271.73 141.873 2271.27 Q139.789 2270.75 137.243 2270.75 Q128.215 2270.75 123.354 2276.65 Q118.551 2282.5 118.551 2293.49 L118.551 2327.64 L107.845 2327.64 L107.845 2262.82 L118.551 2262.82 L118.551 2272.89 Q121.908 2266.99 127.289 2264.15 Q132.671 2261.26 140.368 2261.26 Q141.468 2261.26 142.799 2261.43 Q144.13 2261.55 145.75 2261.84 L145.808 2272.78 Z" fill="#000000" fill-rule="nonzero" fill-opacity="1" /><path clip-path="url(#clip510)" d="M179.488 2270.29 Q170.923 2270.29 165.947 2277 Q160.97 2283.66 160.97 2295.29 Q160.97 2306.92 165.889 2313.63 Q170.866 2320.29 179.488 2320.29 Q187.995 2320.29 192.972 2313.58 Q197.949 2306.86 197.949 2295.29 Q197.949 2283.77 192.972 2277.06 Q187.995 2270.29 179.488 2270.29 M179.488 2261.26 Q193.377 2261.26 201.305 2270.29 Q209.233 2279.32 209.233 2295.29 Q209.233 2311.2 201.305 2320.29 Q193.377 2329.32 179.488 2329.32 Q165.542 2329.32 157.613 2320.29 Q149.743 2311.2 149.743 2295.29 Q149.743 2279.32 157.613 2270.29 Q165.542 2261.26 179.488 2261.26 Z" fill="#000000" fill-rule="nonzero" fill-opacity="1" /><path clip-path="url(#clip510)" d="M237.185 2317.92 L237.185 2352.29 L226.479 2352.29 L226.479 2262.82 L237.185 2262.82 L237.185 2272.66 Q240.541 2266.87 245.634 2264.1 Q250.784 2261.26 257.902 2261.26 Q269.708 2261.26 277.057 2270.64 Q284.465 2280.01 284.465 2295.29 Q284.465 2310.57 277.057 2319.94 Q269.708 2329.32 257.902 2329.32 Q250.784 2329.32 245.634 2326.54 Q240.541 2323.7 237.185 2317.92 M273.411 2295.29 Q273.411 2283.54 268.55 2276.89 Q263.747 2270.17 255.298 2270.17 Q246.849 2270.17 241.988 2276.89 Q237.185 2283.54 237.185 2295.29 Q237.185 2307.04 241.988 2313.75 Q246.849 2320.4 255.298 2320.4 Q263.747 2320.4 268.55 2313.75 Q273.411 2307.04 273.411 2295.29 Z" fill="#000000" fill-rule="nonzero" fill-opacity="1" /><path clip-path="url(#clip510)" d="M302.115 2262.82 L312.763 2262.82 L312.763 2327.64 L302.115 2327.64 L302.115 2262.82 M302.115 2237.59 L312.763 2237.59 L312.763 2251.08 L302.115 2251.08 L302.115 2237.59 Z" fill="#000000" fill-rule="nonzero" fill-opacity="1" /><path clip-path="url(#clip510)" d="M360.159 2270.29 Q351.594 2270.29 346.617 2277 Q341.64 2283.66 341.64 2295.29 Q341.64 2306.92 346.559 2313.63 Q351.536 2320.29 360.159 2320.29 Q368.665 2320.29 373.642 2313.58 Q378.619 2306.86 378.619 2295.29 Q378.619 2283.77 373.642 2277.06 Q368.665 2270.29 360.159 2270.29 M360.159 2261.26 Q374.047 2261.26 381.976 2270.29 Q389.904 2279.32 389.904 2295.29 Q389.904 2311.2 381.976 2320.29 Q374.047 2329.32 360.159 2329.32 Q346.212 2329.32 338.284 2320.29 Q330.413 2311.2 330.413 2295.29 Q330.413 2279.32 338.284 2270.29 Q346.212 2261.26 360.159 2261.26 Z" fill="#000000" fill-rule="nonzero" fill-opacity="1" /><path clip-path="url(#clip510)" d="M461.431 2288.52 L461.431 2327.64 L450.783 2327.64 L450.783 2288.86 Q450.783 2279.66 447.195 2275.09 Q443.607 2270.52 436.431 2270.52 Q427.809 2270.52 422.832 2276.02 Q417.855 2281.51 417.855 2291.01 L417.855 2327.64 L407.149 2327.64 L407.149 2262.82 L417.855 2262.82 L417.855 2272.89 Q421.674 2267.05 426.825 2264.15 Q432.033 2261.26 438.804 2261.26 Q449.973 2261.26 455.702 2268.2 Q461.431 2275.09 461.431 2288.52 Z" fill="#000000" fill-rule="nonzero" fill-opacity="1" /><path clip-path="url(#clip510)" d="M512.125 2295.06 Q499.22 2295.06 494.243 2298.01 Q489.267 2300.96 489.267 2308.08 Q489.267 2313.75 492.97 2317.11 Q496.732 2320.4 503.155 2320.4 Q512.01 2320.4 517.334 2314.15 Q522.716 2307.85 522.716 2297.43 L522.716 2295.06 L512.125 2295.06 M533.364 2290.66 L533.364 2327.64 L522.716 2327.64 L522.716 2317.8 Q519.07 2323.7 513.63 2326.54 Q508.19 2329.32 500.32 2329.32 Q490.366 2329.32 484.463 2323.76 Q478.619 2318.15 478.619 2308.77 Q478.619 2297.83 485.91 2292.28 Q493.26 2286.72 507.785 2286.72 L522.716 2286.72 L522.716 2285.68 Q522.716 2278.33 517.854 2274.34 Q513.051 2270.29 504.313 2270.29 Q498.757 2270.29 493.491 2271.62 Q488.225 2272.95 483.364 2275.61 L483.364 2265.77 Q489.209 2263.52 494.706 2262.42 Q500.204 2261.26 505.412 2261.26 Q519.475 2261.26 526.419 2268.55 Q533.364 2275.84 533.364 2290.66 Z" fill="#000000" fill-rule="nonzero" fill-opacity="1" /><path clip-path="url(#clip510)" d="M565.829 2244.42 L565.829 2262.82 L587.762 2262.82 L587.762 2271.1 L565.829 2271.1 L565.829 2306.28 Q565.829 2314.21 567.97 2316.47 Q570.169 2318.73 576.824 2318.73 L587.762 2318.73 L587.762 2327.64 L576.824 2327.64 Q564.498 2327.64 559.81 2323.07 Q555.123 2318.44 555.123 2306.28 L555.123 2271.1 L547.31 2271.1 L547.31 2262.82 L555.123 2262.82 L555.123 2244.42 L565.829 2244.42 Z" fill="#000000" fill-rule="nonzero" fill-opacity="1" /><path clip-path="url(#clip510)" d="M657.206 2292.57 L657.206 2297.78 L608.248 2297.78 Q608.942 2308.77 614.845 2314.56 Q620.805 2320.29 631.396 2320.29 Q637.53 2320.29 643.259 2318.78 Q649.046 2317.28 654.717 2314.27 L654.717 2324.34 Q648.988 2326.77 642.97 2328.04 Q636.951 2329.32 630.759 2329.32 Q615.25 2329.32 606.164 2320.29 Q597.136 2311.26 597.136 2295.87 Q597.136 2279.95 605.701 2270.64 Q614.324 2261.26 628.907 2261.26 Q641.986 2261.26 649.567 2269.71 Q657.206 2278.1 657.206 2292.57 M646.557 2289.44 Q646.442 2280.7 641.639 2275.5 Q636.893 2270.29 629.023 2270.29 Q620.111 2270.29 614.729 2275.32 Q609.405 2280.36 608.595 2289.5 L646.557 2289.44 Z" fill="#000000" fill-rule="nonzero" fill-opacity="1" /><path clip-path="url(#clip510)" d="M706.974 2290.43 L738.166 2290.43 L738.166 2299.92 L706.974 2299.92 L706.974 2290.43 Z" fill="#000000" fill-rule="nonzero" fill-opacity="1" /><path clip-path="url(#clip510)" d="M829.716 2281.05 Q838.107 2282.85 842.795 2288.52 Q847.54 2294.19 847.54 2302.52 Q847.54 2315.31 838.744 2322.31 Q829.948 2329.32 813.744 2329.32 Q808.304 2329.32 802.517 2328.22 Q796.788 2327.17 790.654 2325.03 L790.654 2313.75 Q795.515 2316.58 801.302 2318.03 Q807.089 2319.48 813.397 2319.48 Q824.392 2319.48 830.121 2315.14 Q835.908 2310.8 835.908 2302.52 Q835.908 2294.88 830.526 2290.6 Q825.202 2286.26 815.654 2286.26 L805.584 2286.26 L805.584 2276.65 L816.117 2276.65 Q824.739 2276.65 829.311 2273.24 Q833.883 2269.77 833.883 2263.29 Q833.883 2256.63 829.138 2253.1 Q824.45 2249.51 815.654 2249.51 Q810.851 2249.51 805.353 2250.55 Q799.855 2251.6 793.258 2253.8 L793.258 2243.38 Q799.913 2241.53 805.7 2240.6 Q811.545 2239.67 816.695 2239.67 Q830.006 2239.67 837.76 2245.75 Q845.515 2251.77 845.515 2262.07 Q845.515 2269.25 841.406 2274.22 Q837.297 2279.14 829.716 2281.05 Z" fill="#000000" fill-rule="nonzero" fill-opacity="1" /><path clip-path="url(#clip510)" d="M869.82 2241.24 L915.711 2241.24 L915.711 2251.08 L880.526 2251.08 L880.526 2272.26 Q883.072 2271.39 885.619 2270.98 Q888.165 2270.52 890.711 2270.52 Q905.179 2270.52 913.628 2278.45 Q922.077 2286.38 922.077 2299.92 Q922.077 2313.86 913.396 2321.62 Q904.716 2329.32 888.917 2329.32 Q883.478 2329.32 877.806 2328.39 Q872.193 2327.46 866.174 2325.61 L866.174 2313.86 Q871.383 2316.7 876.938 2318.09 Q882.494 2319.48 888.686 2319.48 Q898.697 2319.48 904.542 2314.21 Q910.387 2308.95 910.387 2299.92 Q910.387 2290.89 904.542 2285.62 Q898.697 2280.36 888.686 2280.36 Q883.998 2280.36 879.311 2281.4 Q874.681 2282.44 869.82 2284.64 L869.82 2241.24 Z" fill="#000000" fill-rule="nonzero" fill-opacity="1" /><path clip-path="url(#clip510)" d="M1046.44 2247.89 L1046.44 2260.22 Q1040.54 2254.72 1033.82 2252 Q1027.17 2249.28 1019.65 2249.28 Q1004.83 2249.28 996.961 2258.37 Q989.09 2267.39 989.09 2284.52 Q989.09 2301.6 996.961 2310.68 Q1004.83 2319.71 1019.65 2319.71 Q1027.17 2319.71 1033.82 2316.99 Q1040.54 2314.27 1046.44 2308.77 L1046.44 2320.98 Q1040.31 2325.15 1033.42 2327.23 Q1026.59 2329.32 1018.95 2329.32 Q999.333 2329.32 988.049 2317.34 Q976.764 2305.3 976.764 2284.52 Q976.764 2263.69 988.049 2251.71 Q999.333 2239.67 1018.95 2239.67 Q1026.71 2239.67 1033.53 2241.76 Q1040.42 2243.78 1046.44 2247.89 Z" fill="#000000" fill-rule="nonzero" fill-opacity="1" /><path clip-path="url(#clip510)" d="M248.469 1895.27 L232.613 1938.26 L264.384 1938.26 L248.469 1895.27 M241.872 1883.75 L255.124 1883.75 L288.052 1970.15 L275.9 1970.15 L268.029 1947.99 L229.083 1947.99 L221.213 1970.15 L208.886 1970.15 L241.872 1883.75 Z" fill="#000000" fill-rule="nonzero" fill-opacity="1" /><path clip-path="url(#clip510)" d="M344.765 1907.82 L344.765 1917.78 Q340.251 1915.29 335.68 1914.07 Q331.166 1912.8 326.536 1912.8 Q316.177 1912.8 310.448 1919.4 Q304.719 1925.94 304.719 1937.8 Q304.719 1949.66 310.448 1956.26 Q316.177 1962.8 326.536 1962.8 Q331.166 1962.8 335.68 1961.59 Q340.251 1960.31 344.765 1957.82 L344.765 1967.66 Q340.309 1969.74 335.506 1970.79 Q330.761 1971.83 325.379 1971.83 Q310.738 1971.83 302.115 1962.63 Q293.492 1953.43 293.492 1937.8 Q293.492 1921.94 302.173 1912.86 Q310.911 1903.77 326.073 1903.77 Q330.992 1903.77 335.68 1904.81 Q340.367 1905.8 344.765 1907.82 Z" fill="#000000" fill-rule="nonzero" fill-opacity="1" /><path clip-path="url(#clip510)" d="M418.723 1935.08 L418.723 1940.29 L369.765 1940.29 Q370.459 1951.28 376.362 1957.07 Q382.323 1962.8 392.913 1962.8 Q399.047 1962.8 404.776 1961.3 Q410.563 1959.79 416.235 1956.78 L416.235 1966.85 Q410.506 1969.28 404.487 1970.55 Q398.469 1971.83 392.276 1971.83 Q376.767 1971.83 367.682 1962.8 Q358.654 1953.77 358.654 1938.38 Q358.654 1922.46 367.219 1913.15 Q375.841 1903.77 390.425 1903.77 Q403.503 1903.77 411.084 1912.22 Q418.723 1920.61 418.723 1935.08 M408.075 1931.96 Q407.959 1923.22 403.156 1918.01 Q398.411 1912.8 390.54 1912.8 Q381.628 1912.8 376.246 1917.84 Q370.922 1922.87 370.112 1932.01 L408.075 1931.96 Z" fill="#000000" fill-rule="nonzero" fill-opacity="1" /><path clip-path="url(#clip510)" d="M446.732 1886.93 L446.732 1905.34 L468.665 1905.34 L468.665 1913.61 L446.732 1913.61 L446.732 1948.8 Q446.732 1956.72 448.873 1958.98 Q451.072 1961.24 457.727 1961.24 L468.665 1961.24 L468.665 1970.15 L457.727 1970.15 Q445.401 1970.15 440.714 1965.58 Q436.026 1960.95 436.026 1948.8 L436.026 1913.61 L428.214 1913.61 L428.214 1905.34 L436.026 1905.34 L436.026 1886.93 L446.732 1886.93 Z" fill="#000000" fill-rule="nonzero" fill-opacity="1" /><path clip-path="url(#clip510)" d="M512.125 1937.57 Q499.22 1937.57 494.243 1940.52 Q489.267 1943.47 489.267 1950.59 Q489.267 1956.26 492.97 1959.62 Q496.732 1962.92 503.155 1962.92 Q512.01 1962.92 517.334 1956.67 Q522.716 1950.36 522.716 1939.94 L522.716 1937.57 L512.125 1937.57 M533.364 1933.17 L533.364 1970.15 L522.716 1970.15 L522.716 1960.31 Q519.07 1966.21 513.63 1969.05 Q508.19 1971.83 500.32 1971.83 Q490.366 1971.83 484.463 1966.27 Q478.619 1960.66 478.619 1951.28 Q478.619 1940.35 485.91 1934.79 Q493.26 1929.24 507.785 1929.24 L522.716 1929.24 L522.716 1928.19 Q522.716 1920.84 517.854 1916.85 Q513.051 1912.8 504.313 1912.8 Q498.757 1912.8 493.491 1914.13 Q488.225 1915.46 483.364 1918.12 L483.364 1908.29 Q489.209 1906.03 494.706 1904.93 Q500.204 1903.77 505.412 1903.77 Q519.475 1903.77 526.419 1911.06 Q533.364 1918.36 533.364 1933.17 Z" fill="#000000" fill-rule="nonzero" fill-opacity="1" /><path clip-path="url(#clip510)" d="M565.829 1886.93 L565.829 1905.34 L587.762 1905.34 L587.762 1913.61 L565.829 1913.61 L565.829 1948.8 Q565.829 1956.72 567.97 1958.98 Q570.169 1961.24 576.824 1961.24 L587.762 1961.24 L587.762 1970.15 L576.824 1970.15 Q564.498 1970.15 559.81 1965.58 Q555.123 1960.95 555.123 1948.8 L555.123 1913.61 L547.31 1913.61 L547.31 1905.34 L555.123 1905.34 L555.123 1886.93 L565.829 1886.93 Z" fill="#000000" fill-rule="nonzero" fill-opacity="1" /><path clip-path="url(#clip510)" d="M657.206 1935.08 L657.206 1940.29 L608.248 1940.29 Q608.942 1951.28 614.845 1957.07 Q620.805 1962.8 631.396 1962.8 Q637.53 1962.8 643.259 1961.3 Q649.046 1959.79 654.717 1956.78 L654.717 1966.85 Q648.988 1969.28 642.97 1970.55 Q636.951 1971.83 630.759 1971.83 Q615.25 1971.83 606.164 1962.8 Q597.136 1953.77 597.136 1938.38 Q597.136 1922.46 605.701 1913.15 Q614.324 1903.77 628.907 1903.77 Q641.986 1903.77 649.567 1912.22 Q657.206 1920.61 657.206 1935.08 M646.557 1931.96 Q646.442 1923.22 641.639 1918.01 Q636.893 1912.8 629.023 1912.8 Q620.111 1912.8 614.729 1917.84 Q609.405 1922.87 608.595 1932.01 L646.557 1931.96 Z" fill="#000000" fill-rule="nonzero" fill-opacity="1" /><path clip-path="url(#clip510)" d="M706.974 1932.94 L738.166 1932.94 L738.166 1942.43 L706.974 1942.43 L706.974 1932.94 Z" fill="#000000" fill-rule="nonzero" fill-opacity="1" /><path clip-path="url(#clip510)" d="M826.418 1893.93 L796.904 1940.06 L826.418 1940.06 L826.418 1893.93 M823.351 1883.75 L838.05 1883.75 L838.05 1940.06 L850.376 1940.06 L850.376 1949.78 L838.05 1949.78 L838.05 1970.15 L826.418 1970.15 L826.418 1949.78 L787.413 1949.78 L787.413 1938.49 L823.351 1883.75 Z" fill="#000000" fill-rule="nonzero" fill-opacity="1" /><path clip-path="url(#clip510)" d="M894.704 1891.45 Q885.677 1891.45 881.105 1900.36 Q876.591 1909.21 876.591 1927.04 Q876.591 1944.8 881.105 1953.71 Q885.677 1962.57 894.704 1962.57 Q903.79 1962.57 908.304 1953.71 Q912.875 1944.8 912.875 1927.04 Q912.875 1909.21 908.304 1900.36 Q903.79 1891.45 894.704 1891.45 M894.704 1882.19 Q909.23 1882.19 916.869 1893.7 Q924.565 1905.16 924.565 1927.04 Q924.565 1948.85 916.869 1960.37 Q909.23 1971.83 894.704 1971.83 Q880.179 1971.83 872.482 1960.37 Q864.843 1948.85 864.843 1927.04 Q864.843 1905.16 872.482 1893.7 Q880.179 1882.19 894.704 1882.19 Z" fill="#000000" fill-rule="nonzero" fill-opacity="1" /><path clip-path="url(#clip510)" d="M1046.44 1890.4 L1046.44 1902.73 Q1040.54 1897.23 1033.82 1894.51 Q1027.17 1891.79 1019.65 1891.79 Q1004.83 1891.79 996.961 1900.88 Q989.09 1909.91 989.09 1927.04 Q989.09 1944.11 996.961 1953.19 Q1004.83 1962.22 1019.65 1962.22 Q1027.17 1962.22 1033.82 1959.5 Q1040.54 1956.78 1046.44 1951.28 L1046.44 1963.49 Q1040.31 1967.66 1033.42 1969.74 Q1026.59 1971.83 1018.95 1971.83 Q999.333 1971.83 988.049 1959.85 Q976.764 1947.81 976.764 1927.04 Q976.764 1906.2 988.049 1894.22 Q999.333 1882.19 1018.95 1882.19 Q1026.71 1882.19 1033.53 1884.27 Q1040.42 1886.3 1046.44 1890.4 Z" fill="#000000" fill-rule="nonzero" fill-opacity="1" /><path clip-path="url(#clip510)" d="M51.0167 1535.87 L51.0167 1568.33 L65.7157 1568.33 Q73.8754 1568.33 78.3314 1564.11 Q82.7874 1559.88 82.7874 1552.07 Q82.7874 1544.32 78.3314 1540.09 Q73.8754 1535.87 65.7157 1535.87 L51.0167 1535.87 M39.3269 1526.26 L65.7157 1526.26 Q80.2411 1526.26 87.6484 1532.86 Q95.1137 1539.4 95.1137 1552.07 Q95.1137 1564.86 87.6484 1571.4 Q80.2411 1577.94 65.7157 1577.94 L51.0167 1577.94 L51.0167 1612.66 L39.3269 1612.66 L39.3269 1526.26 Z" fill="#000000" fill-rule="nonzero" fill-opacity="1" /><path clip-path="url(#clip510)" d="M145.808 1557.8 Q144.014 1556.76 141.873 1556.3 Q139.789 1555.78 137.243 1555.78 Q128.215 1555.78 123.354 1561.68 Q118.551 1567.52 118.551 1578.52 L118.551 1612.66 L107.845 1612.66 L107.845 1547.85 L118.551 1547.85 L118.551 1557.92 Q121.908 1552.01 127.289 1549.18 Q132.671 1546.29 140.368 1546.29 Q141.468 1546.29 142.799 1546.46 Q144.13 1546.57 145.75 1546.86 L145.808 1557.8 Z" fill="#000000" fill-rule="nonzero" fill-opacity="1" /><path clip-path="url(#clip510)" d="M179.488 1555.31 Q170.923 1555.31 165.947 1562.03 Q160.97 1568.68 160.97 1580.31 Q160.97 1591.94 165.889 1598.66 Q170.866 1605.31 179.488 1605.31 Q187.995 1605.31 192.972 1598.6 Q197.949 1591.89 197.949 1580.31 Q197.949 1568.8 192.972 1562.08 Q187.995 1555.31 179.488 1555.31 M179.488 1546.29 Q193.377 1546.29 201.305 1555.31 Q209.233 1564.34 209.233 1580.31 Q209.233 1596.23 201.305 1605.31 Q193.377 1614.34 179.488 1614.34 Q165.542 1614.34 157.613 1605.31 Q149.743 1596.23 149.743 1580.31 Q149.743 1564.34 157.613 1555.31 Q165.542 1546.29 179.488 1546.29 Z" fill="#000000" fill-rule="nonzero" fill-opacity="1" /><path clip-path="url(#clip510)" d="M237.185 1602.94 L237.185 1637.31 L226.479 1637.31 L226.479 1547.85 L237.185 1547.85 L237.185 1557.69 Q240.541 1551.9 245.634 1549.12 Q250.784 1546.29 257.902 1546.29 Q269.708 1546.29 277.057 1555.66 Q284.465 1565.04 284.465 1580.31 Q284.465 1595.59 277.057 1604.97 Q269.708 1614.34 257.902 1614.34 Q250.784 1614.34 245.634 1611.56 Q240.541 1608.73 237.185 1602.94 M273.411 1580.31 Q273.411 1568.57 268.55 1561.91 Q263.747 1555.2 255.298 1555.2 Q246.849 1555.2 241.988 1561.91 Q237.185 1568.57 237.185 1580.31 Q237.185 1592.06 241.988 1598.77 Q246.849 1605.43 255.298 1605.43 Q263.747 1605.43 268.55 1598.77 Q273.411 1592.06 273.411 1580.31 Z" fill="#000000" fill-rule="nonzero" fill-opacity="1" /><path clip-path="url(#clip510)" d="M302.115 1547.85 L312.763 1547.85 L312.763 1612.66 L302.115 1612.66 L302.115 1547.85 M302.115 1522.62 L312.763 1522.62 L312.763 1536.1 L302.115 1536.1 L302.115 1522.62 Z" fill="#000000" fill-rule="nonzero" fill-opacity="1" /><path clip-path="url(#clip510)" d="M360.159 1555.31 Q351.594 1555.31 346.617 1562.03 Q341.64 1568.68 341.64 1580.31 Q341.64 1591.94 346.559 1598.66 Q351.536 1605.31 360.159 1605.31 Q368.665 1605.31 373.642 1598.6 Q378.619 1591.89 378.619 1580.31 Q378.619 1568.8 373.642 1562.08 Q368.665 1555.31 360.159 1555.31 M360.159 1546.29 Q374.047 1546.29 381.976 1555.31 Q389.904 1564.34 389.904 1580.31 Q389.904 1596.23 381.976 1605.31 Q374.047 1614.34 360.159 1614.34 Q346.212 1614.34 338.284 1605.31 Q330.413 1596.23 330.413 1580.31 Q330.413 1564.34 338.284 1555.31 Q346.212 1546.29 360.159 1546.29 Z" fill="#000000" fill-rule="nonzero" fill-opacity="1" /><path clip-path="url(#clip510)" d="M461.431 1573.54 L461.431 1612.66 L450.783 1612.66 L450.783 1573.89 Q450.783 1564.69 447.195 1560.12 Q443.607 1555.54 436.431 1555.54 Q427.809 1555.54 422.832 1561.04 Q417.855 1566.54 417.855 1576.03 L417.855 1612.66 L407.149 1612.66 L407.149 1547.85 L417.855 1547.85 L417.855 1557.92 Q421.674 1552.07 426.825 1549.18 Q432.033 1546.29 438.804 1546.29 Q449.973 1546.29 455.702 1553.23 Q461.431 1560.12 461.431 1573.54 Z" fill="#000000" fill-rule="nonzero" fill-opacity="1" /><path clip-path="url(#clip510)" d="M512.125 1580.08 Q499.22 1580.08 494.243 1583.03 Q489.267 1585.98 489.267 1593.1 Q489.267 1598.77 492.97 1602.13 Q496.732 1605.43 503.155 1605.43 Q512.01 1605.43 517.334 1599.18 Q522.716 1592.87 522.716 1582.45 L522.716 1580.08 L512.125 1580.08 M533.364 1575.68 L533.364 1612.66 L522.716 1612.66 L522.716 1602.82 Q519.07 1608.73 513.63 1611.56 Q508.19 1614.34 500.32 1614.34 Q490.366 1614.34 484.463 1608.78 Q478.619 1603.17 478.619 1593.8 Q478.619 1582.86 485.91 1577.3 Q493.26 1571.75 507.785 1571.75 L522.716 1571.75 L522.716 1570.71 Q522.716 1563.36 517.854 1559.36 Q513.051 1555.31 504.313 1555.31 Q498.757 1555.31 493.491 1556.64 Q488.225 1557.97 483.364 1560.64 L483.364 1550.8 Q489.209 1548.54 494.706 1547.44 Q500.204 1546.29 505.412 1546.29 Q519.475 1546.29 526.419 1553.58 Q533.364 1560.87 533.364 1575.68 Z" fill="#000000" fill-rule="nonzero" fill-opacity="1" /><path clip-path="url(#clip510)" d="M565.829 1529.45 L565.829 1547.85 L587.762 1547.85 L587.762 1556.12 L565.829 1556.12 L565.829 1591.31 Q565.829 1599.24 567.97 1601.49 Q570.169 1603.75 576.824 1603.75 L587.762 1603.75 L587.762 1612.66 L576.824 1612.66 Q564.498 1612.66 559.81 1608.09 Q555.123 1603.46 555.123 1591.31 L555.123 1556.12 L547.31 1556.12 L547.31 1547.85 L555.123 1547.85 L555.123 1529.45 L565.829 1529.45 Z" fill="#000000" fill-rule="nonzero" fill-opacity="1" /><path clip-path="url(#clip510)" d="M657.206 1577.59 L657.206 1582.8 L608.248 1582.8 Q608.942 1593.8 614.845 1599.58 Q620.805 1605.31 631.396 1605.31 Q637.53 1605.31 643.259 1603.81 Q649.046 1602.3 654.717 1599.29 L654.717 1609.36 Q648.988 1611.79 642.97 1613.07 Q636.951 1614.34 630.759 1614.34 Q615.25 1614.34 606.164 1605.31 Q597.136 1596.28 597.136 1580.89 Q597.136 1564.98 605.701 1555.66 Q614.324 1546.29 628.907 1546.29 Q641.986 1546.29 649.567 1554.73 Q657.206 1563.13 657.206 1577.59 M646.557 1574.47 Q646.442 1565.73 641.639 1560.52 Q636.893 1555.31 629.023 1555.31 Q620.111 1555.31 614.729 1560.35 Q609.405 1565.38 608.595 1574.53 L646.557 1574.47 Z" fill="#000000" fill-rule="nonzero" fill-opacity="1" /><path clip-path="url(#clip510)" d="M706.974 1575.45 L738.166 1575.45 L738.166 1584.94 L706.974 1584.94 L706.974 1575.45 Z" fill="#000000" fill-rule="nonzero" fill-opacity="1" /><path clip-path="url(#clip510)" d="M826.418 1536.45 L796.904 1582.57 L826.418 1582.57 L826.418 1536.45 M823.351 1526.26 L838.05 1526.26 L838.05 1582.57 L850.376 1582.57 L850.376 1592.29 L838.05 1592.29 L838.05 1612.66 L826.418 1612.66 L826.418 1592.29 L787.413 1592.29 L787.413 1581.01 L823.351 1526.26 Z" fill="#000000" fill-rule="nonzero" fill-opacity="1" /><path clip-path="url(#clip510)" d="M894.704 1533.96 Q885.677 1533.96 881.105 1542.87 Q876.591 1551.72 876.591 1569.55 Q876.591 1587.32 881.105 1596.23 Q885.677 1605.08 894.704 1605.08 Q903.79 1605.08 908.304 1596.23 Q912.875 1587.32 912.875 1569.55 Q912.875 1551.72 908.304 1542.87 Q903.79 1533.96 894.704 1533.96 M894.704 1524.7 Q909.23 1524.7 916.869 1536.22 Q924.565 1547.67 924.565 1569.55 Q924.565 1591.37 916.869 1602.88 Q909.23 1614.34 894.704 1614.34 Q880.179 1614.34 872.482 1602.88 Q864.843 1591.37 864.843 1569.55 Q864.843 1547.67 872.482 1536.22 Q880.179 1524.7 894.704 1524.7 Z" fill="#000000" fill-rule="nonzero" fill-opacity="1" /><path clip-path="url(#clip510)" d="M1046.44 1532.92 L1046.44 1545.24 Q1040.54 1539.75 1033.82 1537.03 Q1027.17 1534.31 1019.65 1534.31 Q1004.83 1534.31 996.961 1543.39 Q989.09 1552.42 989.09 1569.55 Q989.09 1586.62 996.961 1595.71 Q1004.83 1604.73 1019.65 1604.73 Q1027.17 1604.73 1033.82 1602.01 Q1040.54 1599.29 1046.44 1593.8 L1046.44 1606.01 Q1040.31 1610.17 1033.42 1612.26 Q1026.59 1614.34 1018.95 1614.34 Q999.333 1614.34 988.049 1602.36 Q976.764 1590.32 976.764 1569.55 Q976.764 1548.72 988.049 1536.74 Q999.333 1524.7 1018.95 1524.7 Q1026.71 1524.7 1033.53 1526.78 Q1040.42 1528.81 1046.44 1532.92 Z" fill="#000000" fill-rule="nonzero" fill-opacity="1" /><path clip-path="url(#clip510)" d="M232.844 1168.77 L244.534 1168.77 L244.534 1245.34 L286.606 1245.34 L286.606 1255.17 L232.844 1255.17 L232.844 1168.77 Z" fill="#000000" fill-rule="nonzero" fill-opacity="1" /><path clip-path="url(#clip510)" d="M327.867 1222.59 Q314.962 1222.59 309.985 1225.55 Q305.008 1228.5 305.008 1235.61 Q305.008 1241.29 308.712 1244.64 Q312.474 1247.94 318.897 1247.94 Q327.751 1247.94 333.075 1241.69 Q338.457 1235.38 338.457 1224.97 L338.457 1222.59 L327.867 1222.59 M349.105 1218.2 L349.105 1255.17 L338.457 1255.17 L338.457 1245.34 Q334.811 1251.24 329.372 1254.08 Q323.932 1256.85 316.062 1256.85 Q306.108 1256.85 300.205 1251.3 Q294.36 1245.68 294.36 1236.31 Q294.36 1225.37 301.652 1219.82 Q309.001 1214.26 323.527 1214.26 L338.457 1214.26 L338.457 1213.22 Q338.457 1205.87 333.596 1201.88 Q328.793 1197.83 320.055 1197.83 Q314.499 1197.83 309.233 1199.16 Q303.967 1200.49 299.106 1203.15 L299.106 1193.31 Q304.951 1191.05 310.448 1189.95 Q315.946 1188.8 321.154 1188.8 Q335.217 1188.8 342.161 1196.09 Q349.105 1203.38 349.105 1218.2 Z" fill="#000000" fill-rule="nonzero" fill-opacity="1" /><path clip-path="url(#clip510)" d="M417.681 1192.85 L417.681 1202.8 Q413.168 1200.31 408.596 1199.1 Q404.082 1197.83 399.452 1197.83 Q389.094 1197.83 383.364 1204.42 Q377.635 1210.96 377.635 1222.83 Q377.635 1234.69 383.364 1241.29 Q389.094 1247.83 399.452 1247.83 Q404.082 1247.83 408.596 1246.61 Q413.168 1245.34 417.681 1242.85 L417.681 1252.69 Q413.225 1254.77 408.422 1255.81 Q403.677 1256.85 398.295 1256.85 Q383.654 1256.85 375.031 1247.65 Q366.409 1238.45 366.409 1222.83 Q366.409 1206.97 375.089 1197.88 Q383.827 1188.8 398.989 1188.8 Q403.908 1188.8 408.596 1189.84 Q413.283 1190.82 417.681 1192.85 Z" fill="#000000" fill-rule="nonzero" fill-opacity="1" /><path clip-path="url(#clip510)" d="M446.732 1171.96 L446.732 1190.36 L468.665 1190.36 L468.665 1198.64 L446.732 1198.64 L446.732 1233.82 Q446.732 1241.75 448.873 1244.01 Q451.072 1246.26 457.727 1246.26 L468.665 1246.26 L468.665 1255.17 L457.727 1255.17 Q445.401 1255.17 440.714 1250.6 Q436.026 1245.97 436.026 1233.82 L436.026 1198.64 L428.214 1198.64 L428.214 1190.36 L436.026 1190.36 L436.026 1171.96 L446.732 1171.96 Z" fill="#000000" fill-rule="nonzero" fill-opacity="1" /><path clip-path="url(#clip510)" d="M512.125 1222.59 Q499.22 1222.59 494.243 1225.55 Q489.267 1228.5 489.267 1235.61 Q489.267 1241.29 492.97 1244.64 Q496.732 1247.94 503.155 1247.94 Q512.01 1247.94 517.334 1241.69 Q522.716 1235.38 522.716 1224.97 L522.716 1222.59 L512.125 1222.59 M533.364 1218.2 L533.364 1255.17 L522.716 1255.17 L522.716 1245.34 Q519.07 1251.24 513.63 1254.08 Q508.19 1256.85 500.32 1256.85 Q490.366 1256.85 484.463 1251.3 Q478.619 1245.68 478.619 1236.31 Q478.619 1225.37 485.91 1219.82 Q493.26 1214.26 507.785 1214.26 L522.716 1214.26 L522.716 1213.22 Q522.716 1205.87 517.854 1201.88 Q513.051 1197.83 504.313 1197.83 Q498.757 1197.83 493.491 1199.16 Q488.225 1200.49 483.364 1203.15 L483.364 1193.31 Q489.209 1191.05 494.706 1189.95 Q500.204 1188.8 505.412 1188.8 Q519.475 1188.8 526.419 1196.09 Q533.364 1203.38 533.364 1218.2 Z" fill="#000000" fill-rule="nonzero" fill-opacity="1" /><path clip-path="url(#clip510)" d="M565.829 1171.96 L565.829 1190.36 L587.762 1190.36 L587.762 1198.64 L565.829 1198.64 L565.829 1233.82 Q565.829 1241.75 567.97 1244.01 Q570.169 1246.26 576.824 1246.26 L587.762 1246.26 L587.762 1255.17 L576.824 1255.17 Q564.498 1255.17 559.81 1250.6 Q555.123 1245.97 555.123 1233.82 L555.123 1198.64 L547.31 1198.64 L547.31 1190.36 L555.123 1190.36 L555.123 1171.96 L565.829 1171.96 Z" fill="#000000" fill-rule="nonzero" fill-opacity="1" /><path clip-path="url(#clip510)" d="M657.206 1220.11 L657.206 1225.31 L608.248 1225.31 Q608.942 1236.31 614.845 1242.1 Q620.805 1247.83 631.396 1247.83 Q637.53 1247.83 643.259 1246.32 Q649.046 1244.82 654.717 1241.81 L654.717 1251.88 Q648.988 1254.31 642.97 1255.58 Q636.951 1256.85 630.759 1256.85 Q615.25 1256.85 606.164 1247.83 Q597.136 1238.8 597.136 1223.4 Q597.136 1207.49 605.701 1198.17 Q614.324 1188.8 628.907 1188.8 Q641.986 1188.8 649.567 1197.25 Q657.206 1205.64 657.206 1220.11 M646.557 1216.98 Q646.442 1208.24 641.639 1203.03 Q636.893 1197.83 629.023 1197.83 Q620.111 1197.83 614.729 1202.86 Q609.405 1207.89 608.595 1217.04 L646.557 1216.98 Z" fill="#000000" fill-rule="nonzero" fill-opacity="1" /><path clip-path="url(#clip510)" d="M706.974 1217.96 L738.166 1217.96 L738.166 1227.45 L706.974 1227.45 L706.974 1217.96 Z" fill="#000000" fill-rule="nonzero" fill-opacity="1" /><path clip-path="url(#clip510)" d="M829.716 1208.59 Q838.107 1210.38 842.795 1216.05 Q847.54 1221.73 847.54 1230.06 Q847.54 1242.85 838.744 1249.85 Q829.948 1256.85 813.744 1256.85 Q808.304 1256.85 802.517 1255.75 Q796.788 1254.71 790.654 1252.57 L790.654 1241.29 Q795.515 1244.12 801.302 1245.57 Q807.089 1247.01 813.397 1247.01 Q824.392 1247.01 830.121 1242.67 Q835.908 1238.33 835.908 1230.06 Q835.908 1222.42 830.526 1218.14 Q825.202 1213.8 815.654 1213.8 L805.584 1213.8 L805.584 1204.19 L816.117 1204.19 Q824.739 1204.19 829.311 1200.78 Q833.883 1197.3 833.883 1190.82 Q833.883 1184.17 829.138 1180.64 Q824.45 1177.05 815.654 1177.05 Q810.851 1177.05 805.353 1178.09 Q799.855 1179.13 793.258 1181.33 L793.258 1170.92 Q799.913 1169.06 805.7 1168.14 Q811.545 1167.21 816.695 1167.21 Q830.006 1167.21 837.76 1173.29 Q845.515 1179.31 845.515 1189.61 Q845.515 1196.78 841.406 1201.76 Q837.297 1206.68 829.716 1208.59 Z" fill="#000000" fill-rule="nonzero" fill-opacity="1" /><path clip-path="url(#clip510)" d="M869.82 1168.77 L915.711 1168.77 L915.711 1178.61 L880.526 1178.61 L880.526 1199.79 Q883.072 1198.92 885.619 1198.52 Q888.165 1198.06 890.711 1198.06 Q905.179 1198.06 913.628 1205.98 Q922.077 1213.91 922.077 1227.45 Q922.077 1241.4 913.396 1249.16 Q904.716 1256.85 888.917 1256.85 Q883.478 1256.85 877.806 1255.93 Q872.193 1255 866.174 1253.15 L866.174 1241.4 Q871.383 1244.24 876.938 1245.63 Q882.494 1247.01 888.686 1247.01 Q898.697 1247.01 904.542 1241.75 Q910.387 1236.48 910.387 1227.45 Q910.387 1218.43 904.542 1213.16 Q898.697 1207.89 888.686 1207.89 Q883.998 1207.89 879.311 1208.94 Q874.681 1209.98 869.82 1212.18 L869.82 1168.77 Z" fill="#000000" fill-rule="nonzero" fill-opacity="1" /><path clip-path="url(#clip510)" d="M1046.44 1175.43 L1046.44 1187.76 Q1040.54 1182.26 1033.82 1179.54 Q1027.17 1176.82 1019.65 1176.82 Q1004.83 1176.82 996.961 1185.9 Q989.09 1194.93 989.09 1212.06 Q989.09 1229.13 996.961 1238.22 Q1004.83 1247.25 1019.65 1247.25 Q1027.17 1247.25 1033.82 1244.53 Q1040.54 1241.81 1046.44 1236.31 L1046.44 1248.52 Q1040.31 1252.69 1033.42 1254.77 Q1026.59 1256.85 1018.95 1256.85 Q999.333 1256.85 988.049 1244.87 Q976.764 1232.84 976.764 1212.06 Q976.764 1191.23 988.049 1179.25 Q999.333 1167.21 1018.95 1167.21 Q1026.71 1167.21 1033.53 1169.3 Q1040.42 1171.32 1046.44 1175.43 Z" fill="#000000" fill-rule="nonzero" fill-opacity="1" /><path clip-path="url(#clip510)" d="M248.469 822.803 L232.613 865.801 L264.384 865.801 L248.469 822.803 M241.872 811.287 L255.124 811.287 L288.052 897.687 L275.9 897.687 L268.029 875.523 L229.083 875.523 L221.213 897.687 L208.886 897.687 L241.872 811.287 Z" fill="#000000" fill-rule="nonzero" fill-opacity="1" /><path clip-path="url(#clip510)" d="M344.765 835.361 L344.765 845.315 Q340.251 842.826 335.68 841.611 Q331.166 840.338 326.536 840.338 Q316.177 840.338 310.448 846.935 Q304.719 853.474 304.719 865.338 Q304.719 877.201 310.448 883.798 Q316.177 890.337 326.536 890.337 Q331.166 890.337 335.68 889.122 Q340.251 887.849 344.765 885.361 L344.765 895.198 Q340.309 897.282 335.506 898.323 Q330.761 899.365 325.379 899.365 Q310.738 899.365 302.115 890.164 Q293.492 880.962 293.492 865.338 Q293.492 849.481 302.173 840.396 Q310.911 831.31 326.073 831.31 Q330.992 831.31 335.68 832.352 Q340.367 833.335 344.765 835.361 Z" fill="#000000" fill-rule="nonzero" fill-opacity="1" /><path clip-path="url(#clip510)" d="M418.723 862.618 L418.723 867.826 L369.765 867.826 Q370.459 878.821 376.362 884.608 Q382.323 890.337 392.913 890.337 Q399.047 890.337 404.776 888.833 Q410.563 887.328 416.235 884.319 L416.235 894.388 Q410.506 896.819 404.487 898.092 Q398.469 899.365 392.276 899.365 Q376.767 899.365 367.682 890.337 Q358.654 881.31 358.654 865.916 Q358.654 850.002 367.219 840.685 Q375.841 831.31 390.425 831.31 Q403.503 831.31 411.084 839.759 Q418.723 848.15 418.723 862.618 M408.075 859.493 Q407.959 850.754 403.156 845.546 Q398.411 840.338 390.54 840.338 Q381.628 840.338 376.246 845.372 Q370.922 850.407 370.112 859.551 L408.075 859.493 Z" fill="#000000" fill-rule="nonzero" fill-opacity="1" /><path clip-path="url(#clip510)" d="M446.732 814.47 L446.732 832.872 L468.665 832.872 L468.665 841.148 L446.732 841.148 L446.732 876.333 Q446.732 884.261 448.873 886.518 Q451.072 888.775 457.727 888.775 L468.665 888.775 L468.665 897.687 L457.727 897.687 Q445.401 897.687 440.714 893.115 Q436.026 888.486 436.026 876.333 L436.026 841.148 L428.214 841.148 L428.214 832.872 L436.026 832.872 L436.026 814.47 L446.732 814.47 Z" fill="#000000" fill-rule="nonzero" fill-opacity="1" /><path clip-path="url(#clip510)" d="M512.125 865.106 Q499.22 865.106 494.243 868.057 Q489.267 871.009 489.267 878.127 Q489.267 883.798 492.97 887.155 Q496.732 890.453 503.155 890.453 Q512.01 890.453 517.334 884.203 Q522.716 877.895 522.716 867.479 L522.716 865.106 L512.125 865.106 M533.364 860.708 L533.364 897.687 L522.716 897.687 L522.716 887.849 Q519.07 893.752 513.63 896.587 Q508.19 899.365 500.32 899.365 Q490.366 899.365 484.463 893.81 Q478.619 888.196 478.619 878.821 Q478.619 867.884 485.91 862.328 Q493.26 856.773 507.785 856.773 L522.716 856.773 L522.716 855.731 Q522.716 848.382 517.854 844.389 Q513.051 840.338 504.313 840.338 Q498.757 840.338 493.491 841.669 Q488.225 843 483.364 845.662 L483.364 835.824 Q489.209 833.567 494.706 832.467 Q500.204 831.31 505.412 831.31 Q519.475 831.31 526.419 838.602 Q533.364 845.893 533.364 860.708 Z" fill="#000000" fill-rule="nonzero" fill-opacity="1" /><path clip-path="url(#clip510)" d="M565.829 814.47 L565.829 832.872 L587.762 832.872 L587.762 841.148 L565.829 841.148 L565.829 876.333 Q565.829 884.261 567.97 886.518 Q570.169 888.775 576.824 888.775 L587.762 888.775 L587.762 897.687 L576.824 897.687 Q564.498 897.687 559.81 893.115 Q555.123 888.486 555.123 876.333 L555.123 841.148 L547.31 841.148 L547.31 832.872 L555.123 832.872 L555.123 814.47 L565.829 814.47 Z" fill="#000000" fill-rule="nonzero" fill-opacity="1" /><path clip-path="url(#clip510)" d="M657.206 862.618 L657.206 867.826 L608.248 867.826 Q608.942 878.821 614.845 884.608 Q620.805 890.337 631.396 890.337 Q637.53 890.337 643.259 888.833 Q649.046 887.328 654.717 884.319 L654.717 894.388 Q648.988 896.819 642.97 898.092 Q636.951 899.365 630.759 899.365 Q615.25 899.365 606.164 890.337 Q597.136 881.31 597.136 865.916 Q597.136 850.002 605.701 840.685 Q614.324 831.31 628.907 831.31 Q641.986 831.31 649.567 839.759 Q657.206 848.15 657.206 862.618 M646.557 859.493 Q646.442 850.754 641.639 845.546 Q636.893 840.338 629.023 840.338 Q620.111 840.338 614.729 845.372 Q609.405 850.407 608.595 859.551 L646.557 859.493 Z" fill="#000000" fill-rule="nonzero" fill-opacity="1" /><path clip-path="url(#clip510)" d="M706.974 860.476 L738.166 860.476 L738.166 869.967 L706.974 869.967 L706.974 860.476 Z" fill="#000000" fill-rule="nonzero" fill-opacity="1" /><path clip-path="url(#clip510)" d="M829.716 851.102 Q838.107 852.895 842.795 858.567 Q847.54 864.238 847.54 872.571 Q847.54 885.361 838.744 892.363 Q829.948 899.365 813.744 899.365 Q808.304 899.365 802.517 898.266 Q796.788 897.224 790.654 895.083 L790.654 883.798 Q795.515 886.634 801.302 888.08 Q807.089 889.527 813.397 889.527 Q824.392 889.527 830.121 885.187 Q835.908 880.847 835.908 872.571 Q835.908 864.932 830.526 860.65 Q825.202 856.31 815.654 856.31 L805.584 856.31 L805.584 846.703 L816.117 846.703 Q824.739 846.703 829.311 843.289 Q833.883 839.817 833.883 833.335 Q833.883 826.68 829.138 823.15 Q824.45 819.562 815.654 819.562 Q810.851 819.562 805.353 820.604 Q799.855 821.646 793.258 823.845 L793.258 813.428 Q799.913 811.576 805.7 810.65 Q811.545 809.724 816.695 809.724 Q830.006 809.724 837.76 815.801 Q845.515 821.819 845.515 832.12 Q845.515 839.296 841.406 844.273 Q837.297 849.192 829.716 851.102 Z" fill="#000000" fill-rule="nonzero" fill-opacity="1" /><path clip-path="url(#clip510)" d="M869.82 811.287 L915.711 811.287 L915.711 821.125 L880.526 821.125 L880.526 842.305 Q883.072 841.437 885.619 841.032 Q888.165 840.569 890.711 840.569 Q905.179 840.569 913.628 848.497 Q922.077 856.426 922.077 869.967 Q922.077 883.914 913.396 891.668 Q904.716 899.365 888.917 899.365 Q883.478 899.365 877.806 898.439 Q872.193 897.513 866.174 895.661 L866.174 883.914 Q871.383 886.749 876.938 888.138 Q882.494 889.527 888.686 889.527 Q898.697 889.527 904.542 884.261 Q910.387 878.995 910.387 869.967 Q910.387 860.939 904.542 855.673 Q898.697 850.407 888.686 850.407 Q883.998 850.407 879.311 851.449 Q874.681 852.49 869.82 854.689 L869.82 811.287 Z" fill="#000000" fill-rule="nonzero" fill-opacity="1" /><path clip-path="url(#clip510)" d="M1046.44 817.942 L1046.44 830.268 Q1040.54 824.771 1033.82 822.051 Q1027.17 819.331 1019.65 819.331 Q1004.83 819.331 996.961 828.416 Q989.09 837.444 989.09 854.574 Q989.09 871.645 996.961 880.731 Q1004.83 889.759 1019.65 889.759 Q1027.17 889.759 1033.82 887.039 Q1040.54 884.319 1046.44 878.821 L1046.44 891.032 Q1040.31 895.198 1033.42 897.282 Q1026.59 899.365 1018.95 899.365 Q999.333 899.365 988.049 887.386 Q976.764 875.349 976.764 854.574 Q976.764 833.74 988.049 821.761 Q999.333 809.724 1018.95 809.724 Q1026.71 809.724 1033.53 811.808 Q1040.42 813.833 1046.44 817.942 Z" fill="#000000" fill-rule="nonzero" fill-opacity="1" /><path clip-path="url(#clip510)" d="M232.844 453.799 L244.534 453.799 L244.534 530.361 L286.606 530.361 L286.606 540.199 L232.844 540.199 L232.844 453.799 Z" fill="#000000" fill-rule="nonzero" fill-opacity="1" /><path clip-path="url(#clip510)" d="M327.867 507.618 Q314.962 507.618 309.985 510.57 Q305.008 513.521 305.008 520.639 Q305.008 526.31 308.712 529.667 Q312.474 532.966 318.897 532.966 Q327.751 532.966 333.075 526.716 Q338.457 520.408 338.457 509.991 L338.457 507.618 L327.867 507.618 M349.105 503.22 L349.105 540.199 L338.457 540.199 L338.457 530.361 Q334.811 536.264 329.372 539.1 Q323.932 541.878 316.062 541.878 Q306.108 541.878 300.205 536.322 Q294.36 530.709 294.36 521.334 Q294.36 510.396 301.652 504.841 Q309.001 499.285 323.527 499.285 L338.457 499.285 L338.457 498.243 Q338.457 490.894 333.596 486.901 Q328.793 482.85 320.055 482.85 Q314.499 482.85 309.233 484.181 Q303.967 485.512 299.106 488.174 L299.106 478.336 Q304.951 476.079 310.448 474.98 Q315.946 473.822 321.154 473.822 Q335.217 473.822 342.161 481.114 Q349.105 488.406 349.105 503.22 Z" fill="#000000" fill-rule="nonzero" fill-opacity="1" /><path clip-path="url(#clip510)" d="M417.681 477.873 L417.681 487.827 Q413.168 485.338 408.596 484.123 Q404.082 482.85 399.452 482.85 Q389.094 482.85 383.364 489.447 Q377.635 495.987 377.635 507.85 Q377.635 519.713 383.364 526.31 Q389.094 532.85 399.452 532.85 Q404.082 532.85 408.596 531.635 Q413.168 530.361 417.681 527.873 L417.681 537.711 Q413.225 539.794 408.422 540.836 Q403.677 541.878 398.295 541.878 Q383.654 541.878 375.031 532.676 Q366.409 523.475 366.409 507.85 Q366.409 491.994 375.089 482.908 Q383.827 473.822 398.989 473.822 Q403.908 473.822 408.596 474.864 Q413.283 475.848 417.681 477.873 Z" fill="#000000" fill-rule="nonzero" fill-opacity="1" /><path clip-path="url(#clip510)" d="M446.732 456.982 L446.732 475.385 L468.665 475.385 L468.665 483.66 L446.732 483.66 L446.732 518.845 Q446.732 526.773 448.873 529.03 Q451.072 531.287 457.727 531.287 L468.665 531.287 L468.665 540.199 L457.727 540.199 Q445.401 540.199 440.714 535.628 Q436.026 530.998 436.026 518.845 L436.026 483.66 L428.214 483.66 L428.214 475.385 L436.026 475.385 L436.026 456.982 L446.732 456.982 Z" fill="#000000" fill-rule="nonzero" fill-opacity="1" /><path clip-path="url(#clip510)" d="M512.125 507.618 Q499.22 507.618 494.243 510.57 Q489.267 513.521 489.267 520.639 Q489.267 526.31 492.97 529.667 Q496.732 532.966 503.155 532.966 Q512.01 532.966 517.334 526.716 Q522.716 520.408 522.716 509.991 L522.716 507.618 L512.125 507.618 M533.364 503.22 L533.364 540.199 L522.716 540.199 L522.716 530.361 Q519.07 536.264 513.63 539.1 Q508.19 541.878 500.32 541.878 Q490.366 541.878 484.463 536.322 Q478.619 530.709 478.619 521.334 Q478.619 510.396 485.91 504.841 Q493.26 499.285 507.785 499.285 L522.716 499.285 L522.716 498.243 Q522.716 490.894 517.854 486.901 Q513.051 482.85 504.313 482.85 Q498.757 482.85 493.491 484.181 Q488.225 485.512 483.364 488.174 L483.364 478.336 Q489.209 476.079 494.706 474.98 Q500.204 473.822 505.412 473.822 Q519.475 473.822 526.419 481.114 Q533.364 488.406 533.364 503.22 Z" fill="#000000" fill-rule="nonzero" fill-opacity="1" /><path clip-path="url(#clip510)" d="M565.829 456.982 L565.829 475.385 L587.762 475.385 L587.762 483.66 L565.829 483.66 L565.829 518.845 Q565.829 526.773 567.97 529.03 Q570.169 531.287 576.824 531.287 L587.762 531.287 L587.762 540.199 L576.824 540.199 Q564.498 540.199 559.81 535.628 Q555.123 530.998 555.123 518.845 L555.123 483.66 L547.31 483.66 L547.31 475.385 L555.123 475.385 L555.123 456.982 L565.829 456.982 Z" fill="#000000" fill-rule="nonzero" fill-opacity="1" /><path clip-path="url(#clip510)" d="M657.206 505.13 L657.206 510.338 L608.248 510.338 Q608.942 521.334 614.845 527.121 Q620.805 532.85 631.396 532.85 Q637.53 532.85 643.259 531.345 Q649.046 529.841 654.717 526.831 L654.717 536.901 Q648.988 539.331 642.97 540.604 Q636.951 541.878 630.759 541.878 Q615.25 541.878 606.164 532.85 Q597.136 523.822 597.136 508.429 Q597.136 492.514 605.701 483.197 Q614.324 473.822 628.907 473.822 Q641.986 473.822 649.567 482.271 Q657.206 490.663 657.206 505.13 M646.557 502.005 Q646.442 493.267 641.639 488.058 Q636.893 482.85 629.023 482.85 Q620.111 482.85 614.729 487.885 Q609.405 492.919 608.595 502.063 L646.557 502.005 Z" fill="#000000" fill-rule="nonzero" fill-opacity="1" /><path clip-path="url(#clip510)" d="M706.974 502.989 L738.166 502.989 L738.166 512.48 L706.974 512.48 L706.974 502.989 Z" fill="#000000" fill-rule="nonzero" fill-opacity="1" /><path clip-path="url(#clip510)" d="M826.418 463.984 L796.904 510.107 L826.418 510.107 L826.418 463.984 M823.351 453.799 L838.05 453.799 L838.05 510.107 L850.376 510.107 L850.376 519.829 L838.05 519.829 L838.05 540.199 L826.418 540.199 L826.418 519.829 L787.413 519.829 L787.413 508.544 L823.351 453.799 Z" fill="#000000" fill-rule="nonzero" fill-opacity="1" /><path clip-path="url(#clip510)" d="M894.704 461.496 Q885.677 461.496 881.105 470.408 Q876.591 479.262 876.591 497.086 Q876.591 514.852 881.105 523.764 Q885.677 532.618 894.704 532.618 Q903.79 532.618 908.304 523.764 Q912.875 514.852 912.875 497.086 Q912.875 479.262 908.304 470.408 Q903.79 461.496 894.704 461.496 M894.704 452.237 Q909.23 452.237 916.869 463.753 Q924.565 475.211 924.565 497.086 Q924.565 518.903 916.869 530.419 Q909.23 541.878 894.704 541.878 Q880.179 541.878 872.482 530.419 Q864.843 518.903 864.843 497.086 Q864.843 475.211 872.482 463.753 Q880.179 452.237 894.704 452.237 Z" fill="#000000" fill-rule="nonzero" fill-opacity="1" /><path clip-path="url(#clip510)" d="M1046.44 460.454 L1046.44 472.781 Q1040.54 467.283 1033.82 464.563 Q1027.17 461.843 1019.65 461.843 Q1004.83 461.843 996.961 470.929 Q989.09 479.957 989.09 497.086 Q989.09 514.158 996.961 523.243 Q1004.83 532.271 1019.65 532.271 Q1027.17 532.271 1033.82 529.551 Q1040.54 526.831 1046.44 521.334 L1046.44 533.544 Q1040.31 537.711 1033.42 539.794 Q1026.59 541.878 1018.95 541.878 Q999.333 541.878 988.049 529.898 Q976.764 517.861 976.764 497.086 Q976.764 476.253 988.049 464.274 Q999.333 452.237 1018.95 452.237 Q1026.71 452.237 1033.53 454.32 Q1040.42 456.346 1046.44 460.454 Z" fill="#000000" fill-rule="nonzero" fill-opacity="1" /><path clip-path="url(#clip510)" d="M1312.07 32.185 L1312.07 50.4257 Q1301.42 45.3331 1291.97 42.8331 Q1282.53 40.3331 1273.73 40.3331 Q1258.45 40.3331 1250.12 46.259 Q1241.88 52.1849 1241.88 63.1108 Q1241.88 72.2774 1247.34 76.9996 Q1252.9 81.6292 1268.27 84.4995 L1279.57 86.8143 Q1300.49 90.7958 1310.4 100.888 Q1320.4 110.888 1320.4 127.74 Q1320.4 147.833 1306.88 158.203 Q1293.45 168.573 1267.44 168.573 Q1257.62 168.573 1246.51 166.351 Q1235.49 164.129 1223.64 159.777 L1223.64 140.518 Q1235.03 146.907 1245.95 150.147 Q1256.88 153.388 1267.44 153.388 Q1283.45 153.388 1292.16 147.092 Q1300.86 140.796 1300.86 129.129 Q1300.86 118.944 1294.57 113.203 Q1288.36 107.462 1274.1 104.592 L1262.71 102.37 Q1241.79 98.2032 1232.44 89.3143 Q1223.08 80.4255 1223.08 64.5922 Q1223.08 46.259 1235.95 35.7035 Q1248.92 25.148 1271.6 25.148 Q1281.32 25.148 1291.42 26.9073 Q1301.51 28.6665 1312.07 32.185 Z" fill="#000000" fill-rule="nonzero" fill-opacity="1" /><path clip-path="url(#clip510)" d="M1437.53 109.777 L1437.53 118.11 L1359.19 118.11 Q1360.31 135.703 1369.75 144.962 Q1379.29 154.129 1396.23 154.129 Q1406.05 154.129 1415.21 151.721 Q1424.47 149.314 1433.55 144.499 L1433.55 160.61 Q1424.38 164.499 1414.75 166.536 Q1405.12 168.573 1395.21 168.573 Q1370.4 168.573 1355.86 154.129 Q1341.42 139.684 1341.42 115.055 Q1341.42 89.5921 1355.12 74.6848 Q1368.92 59.6849 1392.25 59.6849 Q1413.18 59.6849 1425.31 73.2033 Q1437.53 86.6292 1437.53 109.777 M1420.49 104.777 Q1420.31 90.7958 1412.62 82.4625 Q1405.03 74.1292 1392.44 74.1292 Q1378.18 74.1292 1369.56 82.1847 Q1361.05 90.2403 1359.75 104.87 L1420.49 104.777 Z" fill="#000000" fill-rule="nonzero" fill-opacity="1" /><path clip-path="url(#clip510)" d="M1551.69 103.296 L1551.69 165.888 L1534.66 165.888 L1534.66 103.851 Q1534.66 89.1292 1528.92 81.8144 Q1523.18 74.4996 1511.69 74.4996 Q1497.9 74.4996 1489.93 83.2958 Q1481.97 92.0921 1481.97 107.277 L1481.97 165.888 L1464.84 165.888 L1464.84 62.1849 L1481.97 62.1849 L1481.97 78.2959 Q1488.08 68.9441 1496.32 64.3145 Q1504.66 59.6849 1515.49 59.6849 Q1533.36 59.6849 1542.53 70.7959 Q1551.69 81.8144 1551.69 103.296 Z" fill="#000000" fill-rule="nonzero" fill-opacity="1" /><path clip-path="url(#clip510)" d="M1651.79 65.2404 L1651.79 81.3514 Q1644.56 77.6477 1636.79 75.7959 Q1629.01 73.944 1620.67 73.944 Q1607.99 73.944 1601.6 77.8329 Q1595.3 81.7218 1595.3 89.4995 Q1595.3 95.4254 1599.84 98.8513 Q1604.38 102.185 1618.08 105.24 L1623.92 106.536 Q1642.06 110.425 1649.66 117.555 Q1657.34 124.592 1657.34 137.277 Q1657.34 151.721 1645.86 160.147 Q1634.47 168.573 1614.47 168.573 Q1606.14 168.573 1597.06 166.907 Q1588.08 165.332 1578.08 162.092 L1578.08 144.499 Q1587.53 149.407 1596.69 151.907 Q1605.86 154.314 1614.84 154.314 Q1626.88 154.314 1633.36 150.24 Q1639.84 146.073 1639.84 138.573 Q1639.84 131.629 1635.12 127.925 Q1630.49 124.222 1614.66 120.796 L1608.73 119.407 Q1592.9 116.073 1585.86 109.222 Q1578.82 102.277 1578.82 90.2403 Q1578.82 75.6107 1589.19 67.6478 Q1599.56 59.6849 1618.64 59.6849 Q1628.08 59.6849 1636.42 61.0737 Q1644.75 62.4626 1651.79 65.2404 Z" fill="#000000" fill-rule="nonzero" fill-opacity="1" /><path clip-path="url(#clip510)" d="M1684.47 62.1849 L1701.51 62.1849 L1701.51 165.888 L1684.47 165.888 L1684.47 62.1849 M1684.47 21.8147 L1701.51 21.8147 L1701.51 43.3887 L1684.47 43.3887 L1684.47 21.8147 Z" fill="#000000" fill-rule="nonzero" fill-opacity="1" /><path clip-path="url(#clip510)" d="M1754.01 32.7406 L1754.01 62.1849 L1789.1 62.1849 L1789.1 75.4255 L1754.01 75.4255 L1754.01 131.722 Q1754.01 144.407 1757.43 148.018 Q1760.95 151.629 1771.6 151.629 L1789.1 151.629 L1789.1 165.888 L1771.6 165.888 Q1751.88 165.888 1744.38 158.573 Q1736.88 151.166 1736.88 131.722 L1736.88 75.4255 L1724.38 75.4255 L1724.38 62.1849 L1736.88 62.1849 L1736.88 32.7406 L1754.01 32.7406 Z" fill="#000000" fill-rule="nonzero" fill-opacity="1" /><path clip-path="url(#clip510)" d="M1811.51 62.1849 L1828.54 62.1849 L1828.54 165.888 L1811.51 165.888 L1811.51 62.1849 M1811.51 21.8147 L1828.54 21.8147 L1828.54 43.3887 L1811.51 43.3887 L1811.51 21.8147 Z" fill="#000000" fill-rule="nonzero" fill-opacity="1" /><path clip-path="url(#clip510)" d="M1851.97 62.1849 L1870.03 62.1849 L1902.43 149.221 L1934.84 62.1849 L1952.89 62.1849 L1914.01 165.888 L1890.86 165.888 L1851.97 62.1849 Z" fill="#000000" fill-rule="nonzero" fill-opacity="1" /><path clip-path="url(#clip510)" d="M1976.41 62.1849 L1993.45 62.1849 L1993.45 165.888 L1976.41 165.888 L1976.41 62.1849 M1976.41 21.8147 L1993.45 21.8147 L1993.45 43.3887 L1976.41 43.3887 L1976.41 21.8147 Z" fill="#000000" fill-rule="nonzero" fill-opacity="1" /><path clip-path="url(#clip510)" d="M2045.95 32.7406 L2045.95 62.1849 L2081.04 62.1849 L2081.04 75.4255 L2045.95 75.4255 L2045.95 131.722 Q2045.95 144.407 2049.38 148.018 Q2052.89 151.629 2063.54 151.629 L2081.04 151.629 L2081.04 165.888 L2063.54 165.888 Q2043.82 165.888 2036.32 158.573 Q2028.82 151.166 2028.82 131.722 L2028.82 75.4255 L2016.32 75.4255 L2016.32 62.1849 L2028.82 62.1849 L2028.82 32.7406 L2045.95 32.7406 Z" fill="#000000" fill-rule="nonzero" fill-opacity="1" /><path clip-path="url(#clip510)" d="M2146.6 175.518 Q2139.38 194.036 2132.52 199.684 Q2125.67 205.332 2114.19 205.332 L2100.58 205.332 L2100.58 191.073 L2110.58 191.073 Q2117.62 191.073 2121.51 187.74 Q2125.39 184.406 2130.12 171.999 L2133.17 164.221 L2091.23 62.1849 L2109.28 62.1849 L2141.69 143.296 L2174.1 62.1849 L2192.15 62.1849 L2146.6 175.518 Z" fill="#000000" fill-rule="nonzero" fill-opacity="1" /><path clip-path="url(#clip510)" d="M2322.89 46.0738 L2297.52 114.87 L2348.36 114.87 L2322.89 46.0738 M2312.34 27.648 L2333.54 27.648 L2386.23 165.888 L2366.78 165.888 L2354.19 130.425 L2291.87 130.425 L2279.28 165.888 L2259.56 165.888 L2312.34 27.648 Z" fill="#000000" fill-rule="nonzero" fill-opacity="1" /><path clip-path="url(#clip510)" d="M2491.87 103.296 L2491.87 165.888 L2474.84 165.888 L2474.84 103.851 Q2474.84 89.1292 2469.1 81.8144 Q2463.36 74.4996 2451.87 74.4996 Q2438.08 74.4996 2430.11 83.2958 Q2422.15 92.0921 2422.15 107.277 L2422.15 165.888 L2405.02 165.888 L2405.02 62.1849 L2422.15 62.1849 L2422.15 78.2959 Q2428.26 68.9441 2436.5 64.3145 Q2444.84 59.6849 2455.67 59.6849 Q2473.54 59.6849 2482.71 70.7959 Q2491.87 81.8144 2491.87 103.296 Z" fill="#000000" fill-rule="nonzero" fill-opacity="1" /><path clip-path="url(#clip510)" d="M2572.98 113.759 Q2552.34 113.759 2544.37 118.481 Q2536.41 123.203 2536.41 134.592 Q2536.41 143.666 2542.34 149.036 Q2548.35 154.314 2558.63 154.314 Q2572.8 154.314 2581.32 144.314 Q2589.93 134.222 2589.93 117.555 L2589.93 113.759 L2572.98 113.759 M2606.97 106.722 L2606.97 165.888 L2589.93 165.888 L2589.93 150.147 Q2584.1 159.592 2575.39 164.129 Q2566.69 168.573 2554.1 168.573 Q2538.17 168.573 2528.73 159.684 Q2519.37 150.703 2519.37 135.703 Q2519.37 118.203 2531.04 109.314 Q2542.8 100.425 2566.04 100.425 L2589.93 100.425 L2589.93 98.7587 Q2589.93 86.9995 2582.15 80.6107 Q2574.47 74.1292 2560.48 74.1292 Q2551.6 74.1292 2543.17 76.2589 Q2534.74 78.3885 2526.97 82.6477 L2526.97 66.907 Q2536.32 63.296 2545.11 61.5367 Q2553.91 59.6849 2562.24 59.6849 Q2584.74 59.6849 2595.85 71.3515 Q2606.97 83.0181 2606.97 106.722 Z" fill="#000000" fill-rule="nonzero" fill-opacity="1" /><path clip-path="url(#clip510)" d="M2642.06 21.8147 L2659.09 21.8147 L2659.09 165.888 L2642.06 165.888 L2642.06 21.8147 Z" fill="#000000" fill-rule="nonzero" fill-opacity="1" /><path clip-path="url(#clip510)" d="M2737.89 175.518 Q2730.67 194.036 2723.82 199.684 Q2716.96 205.332 2705.48 205.332 L2691.87 205.332 L2691.87 191.073 L2701.87 191.073 Q2708.91 191.073 2712.8 187.74 Q2716.69 184.406 2721.41 171.999 L2724.46 164.221 L2682.52 62.1849 L2700.58 62.1849 L2732.98 143.296 L2765.39 62.1849 L2783.45 62.1849 L2737.89 175.518 Z" fill="#000000" fill-rule="nonzero" fill-opacity="1" /><path clip-path="url(#clip510)" d="M2873.08 65.2404 L2873.08 81.3514 Q2865.85 77.6477 2858.08 75.7959 Q2850.3 73.944 2841.96 73.944 Q2829.28 73.944 2822.89 77.8329 Q2816.59 81.7218 2816.59 89.4995 Q2816.59 95.4254 2821.13 98.8513 Q2825.67 102.185 2839.37 105.24 L2845.21 106.536 Q2863.35 110.425 2870.95 117.555 Q2878.63 124.592 2878.63 137.277 Q2878.63 151.721 2867.15 160.147 Q2855.76 168.573 2835.76 168.573 Q2827.43 168.573 2818.35 166.907 Q2809.37 165.332 2799.37 162.092 L2799.37 144.499 Q2808.82 149.407 2817.98 151.907 Q2827.15 154.314 2836.13 154.314 Q2848.17 154.314 2854.65 150.24 Q2861.13 146.073 2861.13 138.573 Q2861.13 131.629 2856.41 127.925 Q2851.78 124.222 2835.95 120.796 L2830.02 119.407 Q2814.19 116.073 2807.15 109.222 Q2800.11 102.277 2800.11 90.2403 Q2800.11 75.6107 2810.48 67.6478 Q2820.85 59.6849 2839.93 59.6849 Q2849.37 59.6849 2857.7 61.0737 Q2866.04 62.4626 2873.08 65.2404 Z" fill="#000000" fill-rule="nonzero" fill-opacity="1" /><path clip-path="url(#clip510)" d="M2905.76 62.1849 L2922.8 62.1849 L2922.8 165.888 L2905.76 165.888 L2905.76 62.1849 M2905.76 21.8147 L2922.8 21.8147 L2922.8 43.3887 L2905.76 43.3887 L2905.76 21.8147 Z" fill="#000000" fill-rule="nonzero" fill-opacity="1" /><path clip-path="url(#clip510)" d="M3024.56 65.2404 L3024.56 81.3514 Q3017.33 77.6477 3009.56 75.7959 Q3001.78 73.944 2993.44 73.944 Q2980.76 73.944 2974.37 77.8329 Q2968.07 81.7218 2968.07 89.4995 Q2968.07 95.4254 2972.61 98.8513 Q2977.15 102.185 2990.85 105.24 L2996.69 106.536 Q3014.83 110.425 3022.43 117.555 Q3030.11 124.592 3030.11 137.277 Q3030.11 151.721 3018.63 160.147 Q3007.24 168.573 2987.24 168.573 Q2978.91 168.573 2969.83 166.907 Q2960.85 165.332 2950.85 162.092 L2950.85 144.499 Q2960.3 149.407 2969.46 151.907 Q2978.63 154.314 2987.61 154.314 Q2999.65 154.314 3006.13 150.24 Q3012.61 146.073 3012.61 138.573 Q3012.61 131.629 3007.89 127.925 Q3003.26 124.222 2987.43 120.796 L2981.5 119.407 Q2965.67 116.073 2958.63 109.222 Q2951.59 102.277 2951.59 90.2403 Q2951.59 75.6107 2961.96 67.6478 Q2972.33 59.6849 2991.41 59.6849 Q3000.85 59.6849 3009.19 61.0737 Q3017.52 62.4626 3024.56 65.2404 Z" fill="#000000" fill-rule="nonzero" fill-opacity="1" /><path clip-path="url(#clip512)" d="M1679.87 3142.41 L1809.92 3142.41 L1809.92 2856.42 L1679.87 2856.42 L1679.87 3142.41 L1679.87 3142.41  Z" fill="#440154" fill-rule="evenodd" fill-opacity="1"/>
<polyline clip-path="url(#clip512)" style="stroke:#000000; stroke-linecap:round; stroke-linejoin:round; stroke-width:4; stroke-opacity:1; fill:none" points="1679.87,3142.41 1809.92,3142.41 1809.92,2856.42 1679.87,2856.42 1679.87,3142.41 "/>
<path clip-path="url(#clip512)" d="M1949.52 2784.92 L1809.92 2784.92 L1809.92 2498.93 L1949.52 2498.93 L1949.52 2784.92 L1949.52 2784.92  Z" fill="#dce319" fill-rule="evenodd" fill-opacity="1"/>
<polyline clip-path="url(#clip512)" style="stroke:#000000; stroke-linecap:round; stroke-linejoin:round; stroke-width:4; stroke-opacity:1; fill:none" points="1949.52,2784.92 1809.92,2784.92 1809.92,2498.93 1949.52,2498.93 1949.52,2784.92 "/>
<path clip-path="url(#clip512)" d="M1645.07 2427.43 L1809.92 2427.43 L1809.92 2141.44 L1645.07 2141.44 L1645.07 2427.43 L1645.07 2427.43  Z" fill="#440154" fill-rule="evenodd" fill-opacity="1"/>
<polyline clip-path="url(#clip512)" style="stroke:#000000; stroke-linecap:round; stroke-linejoin:round; stroke-width:4; stroke-opacity:1; fill:none" points="1645.07,2427.43 1809.92,2427.43 1809.92,2141.44 1645.07,2141.44 1645.07,2427.43 "/>
<path clip-path="url(#clip512)" d="M2013.5 2069.94 L1809.92 2069.94 L1809.92 1783.95 L2013.5 1783.95 L2013.5 2069.94 L2013.5 2069.94  Z" fill="#dce319" fill-rule="evenodd" fill-opacity="1"/>
<polyline clip-path="url(#clip512)" style="stroke:#000000; stroke-linecap:round; stroke-linejoin:round; stroke-width:4; stroke-opacity:1; fill:none" points="2013.5,2069.94 1809.92,2069.94 1809.92,1783.95 2013.5,1783.95 2013.5,2069.94 "/>
<path clip-path="url(#clip512)" d="M2124.23 1712.46 L1809.92 1712.46 L1809.92 1426.47 L2124.23 1426.47 L2124.23 1712.46 L2124.23 1712.46  Z" fill="#dce319" fill-rule="evenodd" fill-opacity="1"/>
<polyline clip-path="url(#clip512)" style="stroke:#000000; stroke-linecap:round; stroke-linejoin:round; stroke-width:4; stroke-opacity:1; fill:none" points="2124.23,1712.46 1809.92,1712.46 1809.92,1426.47 2124.23,1426.47 2124.23,1712.46 "/>
<path clip-path="url(#clip512)" d="M2429.43 1354.97 L1809.92 1354.97 L1809.92 1068.98 L2429.43 1068.98 L2429.43 1354.97 L2429.43 1354.97  Z" fill="#dce319" fill-rule="evenodd" fill-opacity="1"/>
<polyline clip-path="url(#clip512)" style="stroke:#000000; stroke-linecap:round; stroke-linejoin:round; stroke-width:4; stroke-opacity:1; fill:none" points="2429.43,1354.97 1809.92,1354.97 1809.92,1068.98 2429.43,1068.98 2429.43,1354.97 "/>
<path clip-path="url(#clip512)" d="M1158.52 997.482 L1809.92 997.482 L1809.92 711.492 L1158.52 711.492 L1158.52 997.482 L1158.52 997.482  Z" fill="#440154" fill-rule="evenodd" fill-opacity="1"/>
<polyline clip-path="url(#clip512)" style="stroke:#000000; stroke-linecap:round; stroke-linejoin:round; stroke-width:4; stroke-opacity:1; fill:none" points="1158.52,997.482 1809.92,997.482 1809.92,711.492 1158.52,711.492 1158.52,997.482 "/>
<path clip-path="url(#clip512)" d="M3094.67 639.994 L1809.92 639.994 L1809.92 354.004 L3094.67 354.004 L3094.67 639.994 L3094.67 639.994  Z" fill="#dce319" fill-rule="evenodd" fill-opacity="1"/>
<polyline clip-path="url(#clip512)" style="stroke:#000000; stroke-linecap:round; stroke-linejoin:round; stroke-width:4; stroke-opacity:1; fill:none" points="3094.67,639.994 1809.92,639.994 1809.92,354.004 3094.67,354.004 3094.67,639.994 "/>
<circle clip-path="url(#clip512)" style="fill:#440154; stroke:none; fill-opacity:0" cx="1158.52" cy="2325.58" r="2"/>
<circle clip-path="url(#clip512)" style="fill:#dce319; stroke:none; fill-opacity:0" cx="1435.12" cy="1977.08" r="2"/>
<circle clip-path="url(#clip512)" style="fill:#440154; stroke:none; fill-opacity:0" cx="1711.71" cy="2370.56" r="2"/>
<circle clip-path="url(#clip512)" style="fill:#dce319; stroke:none; fill-opacity:0" cx="1988.3" cy="1894.39" r="2"/>
<circle clip-path="url(#clip512)" style="fill:#dce319; stroke:none; fill-opacity:0" cx="2264.89" cy="1751.26" r="2"/>
<circle clip-path="url(#clip512)" style="fill:#dce319; stroke:none; fill-opacity:0" cx="2541.49" cy="1356.8" r="2"/>
<circle clip-path="url(#clip512)" style="fill:#440154; stroke:none; fill-opacity:0" cx="2818.08" cy="2999.41" r="2"/>
<circle clip-path="url(#clip512)" style="fill:#dce319; stroke:none; fill-opacity:0" cx="3094.67" cy="496.999" r="2"/>
</svg>
