<?xml version="1.0" encoding="utf-8"?>
<svg xmlns="http://www.w3.org/2000/svg" xmlns:xlink="http://www.w3.org/1999/xlink" width="900" height="600" viewBox="0 0 3600 2400">
<defs>
  <clipPath id="clip010">
    <rect x="0" y="0" width="3600" height="2400"/>
  </clipPath>
</defs>
<path clip-path="url(#clip010)" d="M0 2400 L3600 2400 L3600 0 L0 0  Z" fill="#ffffff" fill-rule="evenodd" fill-opacity="1"/>
<defs>
  <clipPath id="clip011">
    <rect x="720" y="0" width="2521" height="2400"/>
  </clipPath>
</defs>
<path clip-path="url(#clip010)" d="M618.359 2184.94 L3552.76 2184.94 L3552.76 201.232 L618.359 201.232  Z" fill="#ffffff" fill-rule="evenodd" fill-opacity="1"/>
<defs>
  <clipPath id="clip012">
    <rect x="618" y="201" width="2935" height="1985"/>
  </clipPath>
</defs>
<polyline clip-path="url(#clip012)" style="stroke:#000000; stroke-linecap:round; stroke-linejoin:round; stroke-width:2; stroke-opacity:0.1; fill:none" points="701.408,2184.94 701.408,201.232 "/>
<polyline clip-path="url(#clip012)" style="stroke:#000000; stroke-linecap:round; stroke-linejoin:round; stroke-width:2; stroke-opacity:0.1; fill:none" points="1296.1,2184.94 1296.1,201.232 "/>
<polyline clip-path="url(#clip012)" style="stroke:#000000; stroke-linecap:round; stroke-linejoin:round; stroke-width:2; stroke-opacity:0.1; fill:none" points="1890.8,2184.94 1890.8,201.232 "/>
<polyline clip-path="url(#clip012)" style="stroke:#000000; stroke-linecap:round; stroke-linejoin:round; stroke-width:2; stroke-opacity:0.1; fill:none" points="2485.49,2184.94 2485.49,201.232 "/>
<polyline clip-path="url(#clip012)" style="stroke:#000000; stroke-linecap:round; stroke-linejoin:round; stroke-width:2; stroke-opacity:0.1; fill:none" points="3080.18,2184.94 3080.18,201.232 "/>
<polyline clip-path="url(#clip010)" style="stroke:#000000; stroke-linecap:round; stroke-linejoin:round; stroke-width:4; stroke-opacity:1; fill:none" points="618.359,2184.94 3552.76,2184.94 "/>
<polyline clip-path="url(#clip010)" style="stroke:#000000; stroke-linecap:round; stroke-linejoin:round; stroke-width:4; stroke-opacity:1; fill:none" points="701.408,2184.94 701.408,2166.04 "/>
<polyline clip-path="url(#clip010)" style="stroke:#000000; stroke-linecap:round; stroke-linejoin:round; stroke-width:4; stroke-opacity:1; fill:none" points="1296.1,2184.94 1296.1,2166.04 "/>
<polyline clip-path="url(#clip010)" style="stroke:#000000; stroke-linecap:round; stroke-linejoin:round; stroke-width:4; stroke-opacity:1; fill:none" points="1890.8,2184.94 1890.8,2166.04 "/>
<polyline clip-path="url(#clip010)" style="stroke:#000000; stroke-linecap:round; stroke-linejoin:round; stroke-width:4; stroke-opacity:1; fill:none" points="2485.49,2184.94 2485.49,2166.04 "/>
<polyline clip-path="url(#clip010)" style="stroke:#000000; stroke-linecap:round; stroke-linejoin:round; stroke-width:4; stroke-opacity:1; fill:none" points="3080.18,2184.94 3080.18,2166.04 "/>
<path clip-path="url(#clip010)" d="M701.408 2231.32 Q695.991 2231.32 693.248 2236.67 Q690.54 2241.98 690.54 2252.67 Q690.54 2263.33 693.248 2268.68 Q695.991 2273.99 701.408 2273.99 Q706.859 2273.99 709.567 2268.68 Q712.31 2263.33 712.31 2252.67 Q712.31 2241.98 709.567 2236.67 Q706.859 2231.32 701.408 2231.32 M701.408 2225.76 Q710.123 2225.76 714.706 2232.67 Q719.324 2239.55 719.324 2252.67 Q719.324 2265.76 714.706 2272.67 Q710.123 2279.55 701.408 2279.55 Q692.692 2279.55 688.074 2272.67 Q683.491 2265.76 683.491 2252.67 Q683.491 2239.55 688.074 2232.67 Q692.692 2225.76 701.408 2225.76 Z" fill="#000000" fill-rule="nonzero" fill-opacity="1" /><path clip-path="url(#clip010)" d="M1241.64 2272.64 L1266.12 2272.64 L1266.12 2278.54 L1233.2 2278.54 L1233.2 2272.64 Q1237.2 2268.51 1244.07 2261.56 Q1250.98 2254.58 1252.75 2252.57 Q1256.12 2248.78 1257.44 2246.18 Q1258.79 2243.54 1258.79 2241.01 Q1258.79 2236.87 1255.88 2234.27 Q1252.99 2231.67 1248.34 2231.67 Q1245.04 2231.67 1241.36 2232.81 Q1237.72 2233.96 1233.55 2236.28 L1233.55 2229.2 Q1237.79 2227.5 1241.47 2226.63 Q1245.15 2225.76 1248.2 2225.76 Q1256.26 2225.76 1261.05 2229.79 Q1265.84 2233.82 1265.84 2240.55 Q1265.84 2243.75 1264.63 2246.63 Q1263.45 2249.48 1260.29 2253.37 Q1259.42 2254.37 1254.76 2259.2 Q1250.11 2263.99 1241.64 2272.64 Z" fill="#000000" fill-rule="nonzero" fill-opacity="1" /><path clip-path="url(#clip010)" d="M1295.84 2231.32 Q1290.42 2231.32 1287.68 2236.67 Q1284.97 2241.98 1284.97 2252.67 Q1284.97 2263.33 1287.68 2268.68 Q1290.42 2273.99 1295.84 2273.99 Q1301.29 2273.99 1304 2268.68 Q1306.74 2263.33 1306.74 2252.67 Q1306.74 2241.98 1304 2236.67 Q1301.29 2231.32 1295.84 2231.32 M1295.84 2225.76 Q1304.56 2225.76 1309.14 2232.67 Q1313.76 2239.55 1313.76 2252.67 Q1313.76 2265.76 1309.14 2272.67 Q1304.56 2279.55 1295.84 2279.55 Q1287.13 2279.55 1282.51 2272.67 Q1277.92 2265.76 1277.92 2252.67 Q1277.92 2239.55 1282.51 2232.67 Q1287.13 2225.76 1295.84 2225.76 Z" fill="#000000" fill-rule="nonzero" fill-opacity="1" /><path clip-path="url(#clip010)" d="M1341.08 2231.32 Q1335.67 2231.32 1332.92 2236.67 Q1330.22 2241.98 1330.22 2252.67 Q1330.22 2263.33 1332.92 2268.68 Q1335.67 2273.99 1341.08 2273.99 Q1346.54 2273.99 1349.24 2268.68 Q1351.99 2263.33 1351.99 2252.67 Q1351.99 2241.98 1349.24 2236.67 Q1346.54 2231.32 1341.08 2231.32 M1341.08 2225.76 Q1349.8 2225.76 1354.38 2232.67 Q1359 2239.55 1359 2252.67 Q1359 2265.76 1354.38 2272.67 Q1349.8 2279.55 1341.08 2279.55 Q1332.37 2279.55 1327.75 2272.67 Q1323.17 2265.76 1323.17 2252.67 Q1323.17 2239.55 1327.75 2232.67 Q1332.37 2225.76 1341.08 2225.76 Z" fill="#000000" fill-rule="nonzero" fill-opacity="1" /><path clip-path="url(#clip010)" d="M1850.43 2232.81 L1832.72 2260.48 L1850.43 2260.48 L1850.43 2232.81 M1848.59 2226.7 L1857.41 2226.7 L1857.41 2260.48 L1864.81 2260.48 L1864.81 2266.32 L1857.41 2266.32 L1857.41 2278.54 L1850.43 2278.54 L1850.43 2266.32 L1827.03 2266.32 L1827.03 2259.55 L1848.59 2226.7 Z" fill="#000000" fill-rule="nonzero" fill-opacity="1" /><path clip-path="url(#clip010)" d="M1891.4 2231.32 Q1885.99 2231.32 1883.24 2236.67 Q1880.53 2241.98 1880.53 2252.67 Q1880.53 2263.33 1883.24 2268.68 Q1885.99 2273.99 1891.4 2273.99 Q1896.85 2273.99 1899.56 2268.68 Q1902.31 2263.33 1902.31 2252.67 Q1902.31 2241.98 1899.56 2236.67 Q1896.85 2231.32 1891.4 2231.32 M1891.4 2225.76 Q1900.12 2225.76 1904.7 2232.67 Q1909.32 2239.55 1909.32 2252.67 Q1909.32 2265.76 1904.7 2272.67 Q1900.12 2279.55 1891.4 2279.55 Q1882.69 2279.55 1878.07 2272.67 Q1873.49 2265.76 1873.49 2252.67 Q1873.49 2239.55 1878.07 2232.67 Q1882.69 2225.76 1891.4 2225.76 Z" fill="#000000" fill-rule="nonzero" fill-opacity="1" /><path clip-path="url(#clip010)" d="M1936.65 2231.32 Q1931.23 2231.32 1928.49 2236.67 Q1925.78 2241.98 1925.78 2252.67 Q1925.78 2263.33 1928.49 2268.68 Q1931.23 2273.99 1936.65 2273.99 Q1942.1 2273.99 1944.81 2268.68 Q1947.55 2263.33 1947.55 2252.67 Q1947.55 2241.98 1944.81 2236.67 Q1942.1 2231.32 1936.65 2231.32 M1936.65 2225.76 Q1945.36 2225.76 1949.94 2232.67 Q1954.56 2239.55 1954.56 2252.67 Q1954.56 2265.76 1949.94 2272.67 Q1945.36 2279.55 1936.65 2279.55 Q1927.93 2279.55 1923.31 2272.67 Q1918.73 2265.76 1918.73 2252.67 Q1918.73 2239.55 1923.31 2232.67 Q1927.93 2225.76 1936.65 2225.76 Z" fill="#000000" fill-rule="nonzero" fill-opacity="1" /><path clip-path="url(#clip010)" d="M2440.98 2249.82 Q2436.25 2249.82 2433.48 2253.05 Q2430.73 2256.28 2430.73 2261.91 Q2430.73 2267.5 2433.48 2270.76 Q2436.25 2273.99 2440.98 2273.99 Q2445.7 2273.99 2448.44 2270.76 Q2451.22 2267.5 2451.22 2261.91 Q2451.22 2256.28 2448.44 2253.05 Q2445.7 2249.82 2440.98 2249.82 M2454.9 2227.85 L2454.9 2234.23 Q2452.26 2232.98 2449.55 2232.32 Q2446.88 2231.67 2444.24 2231.67 Q2437.29 2231.67 2433.61 2236.35 Q2429.97 2241.04 2429.45 2250.52 Q2431.5 2247.5 2434.59 2245.9 Q2437.68 2244.27 2441.39 2244.27 Q2449.2 2244.27 2453.72 2249.03 Q2458.27 2253.75 2458.27 2261.91 Q2458.27 2269.89 2453.54 2274.72 Q2448.82 2279.55 2440.98 2279.55 Q2431.98 2279.55 2427.23 2272.67 Q2422.47 2265.76 2422.47 2252.67 Q2422.47 2240.38 2428.3 2233.09 Q2434.13 2225.76 2443.96 2225.76 Q2446.6 2225.76 2449.27 2226.28 Q2451.98 2226.8 2454.9 2227.85 Z" fill="#000000" fill-rule="nonzero" fill-opacity="1" /><path clip-path="url(#clip010)" d="M2485.35 2231.32 Q2479.93 2231.32 2477.19 2236.67 Q2474.48 2241.98 2474.48 2252.67 Q2474.48 2263.33 2477.19 2268.68 Q2479.93 2273.99 2485.35 2273.99 Q2490.8 2273.99 2493.51 2268.68 Q2496.25 2263.33 2496.25 2252.67 Q2496.25 2241.98 2493.51 2236.67 Q2490.8 2231.32 2485.35 2231.32 M2485.35 2225.76 Q2494.07 2225.76 2498.65 2232.67 Q2503.27 2239.55 2503.27 2252.67 Q2503.27 2265.76 2498.65 2272.67 Q2494.07 2279.55 2485.35 2279.55 Q2476.63 2279.55 2472.02 2272.67 Q2467.43 2265.76 2467.43 2252.67 Q2467.43 2239.55 2472.02 2232.67 Q2476.63 2225.76 2485.35 2225.76 Z" fill="#000000" fill-rule="nonzero" fill-opacity="1" /><path clip-path="url(#clip010)" d="M2530.59 2231.32 Q2525.18 2231.32 2522.43 2236.67 Q2519.72 2241.98 2519.72 2252.67 Q2519.72 2263.33 2522.43 2268.68 Q2525.18 2273.99 2530.59 2273.99 Q2536.04 2273.99 2538.75 2268.68 Q2541.5 2263.33 2541.5 2252.67 Q2541.5 2241.98 2538.75 2236.67 Q2536.04 2231.32 2530.59 2231.32 M2530.59 2225.76 Q2539.31 2225.76 2543.89 2232.67 Q2548.51 2239.55 2548.51 2252.67 Q2548.51 2265.76 2543.89 2272.67 Q2539.31 2279.55 2530.59 2279.55 Q2521.88 2279.55 2517.26 2272.67 Q2512.68 2265.76 2512.68 2252.67 Q2512.68 2239.55 2517.26 2232.67 Q2521.88 2225.76 2530.59 2225.76 Z" fill="#000000" fill-rule="nonzero" fill-opacity="1" /><path clip-path="url(#clip010)" d="M3034.87 2253.92 Q3029.87 2253.92 3026.99 2256.6 Q3024.14 2259.27 3024.14 2263.96 Q3024.14 2268.64 3026.99 2271.32 Q3029.87 2273.99 3034.87 2273.99 Q3039.87 2273.99 3042.75 2271.32 Q3045.63 2268.61 3045.63 2263.96 Q3045.63 2259.27 3042.75 2256.6 Q3039.9 2253.92 3034.87 2253.92 M3027.86 2250.94 Q3023.34 2249.82 3020.81 2246.73 Q3018.31 2243.64 3018.31 2239.2 Q3018.31 2232.98 3022.72 2229.37 Q3027.16 2225.76 3034.87 2225.76 Q3042.61 2225.76 3047.02 2229.37 Q3051.43 2232.98 3051.43 2239.2 Q3051.43 2243.64 3048.9 2246.73 Q3046.4 2249.82 3041.92 2250.94 Q3046.99 2252.12 3049.8 2255.55 Q3052.65 2258.99 3052.65 2263.96 Q3052.65 2271.49 3048.03 2275.52 Q3043.45 2279.55 3034.87 2279.55 Q3026.29 2279.55 3021.68 2275.52 Q3017.09 2271.49 3017.09 2263.96 Q3017.09 2258.99 3019.94 2255.55 Q3022.79 2252.12 3027.86 2250.94 M3025.29 2239.86 Q3025.29 2243.89 3027.79 2246.14 Q3030.32 2248.4 3034.87 2248.4 Q3039.38 2248.4 3041.92 2246.14 Q3044.49 2243.89 3044.49 2239.86 Q3044.49 2235.83 3041.92 2233.57 Q3039.38 2231.32 3034.87 2231.32 Q3030.32 2231.32 3027.79 2233.57 Q3025.29 2235.83 3025.29 2239.86 Z" fill="#000000" fill-rule="nonzero" fill-opacity="1" /><path clip-path="url(#clip010)" d="M3080.11 2231.32 Q3074.7 2231.32 3071.95 2236.67 Q3069.25 2241.98 3069.25 2252.67 Q3069.25 2263.33 3071.95 2268.68 Q3074.7 2273.99 3080.11 2273.99 Q3085.56 2273.99 3088.27 2268.68 Q3091.02 2263.33 3091.02 2252.67 Q3091.02 2241.98 3088.27 2236.67 Q3085.56 2231.32 3080.11 2231.32 M3080.11 2225.76 Q3088.83 2225.76 3093.41 2232.67 Q3098.03 2239.55 3098.03 2252.67 Q3098.03 2265.76 3093.41 2272.67 Q3088.83 2279.55 3080.11 2279.55 Q3071.4 2279.55 3066.78 2272.67 Q3062.2 2265.76 3062.2 2252.67 Q3062.2 2239.55 3066.78 2232.67 Q3071.4 2225.76 3080.11 2225.76 Z" fill="#000000" fill-rule="nonzero" fill-opacity="1" /><path clip-path="url(#clip010)" d="M3125.36 2231.32 Q3119.94 2231.32 3117.2 2236.67 Q3114.49 2241.98 3114.49 2252.67 Q3114.49 2263.33 3117.2 2268.68 Q3119.94 2273.99 3125.36 2273.99 Q3130.81 2273.99 3133.52 2268.68 Q3136.26 2263.33 3136.26 2252.67 Q3136.26 2241.98 3133.52 2236.67 Q3130.81 2231.32 3125.36 2231.32 M3125.36 2225.76 Q3134.07 2225.76 3138.65 2232.67 Q3143.27 2239.55 3143.27 2252.67 Q3143.27 2265.76 3138.65 2272.67 Q3134.07 2279.55 3125.36 2279.55 Q3116.64 2279.55 3112.02 2272.67 Q3107.44 2265.76 3107.44 2252.67 Q3107.44 2239.55 3112.02 2232.67 Q3116.64 2225.76 3125.36 2225.76 Z" fill="#000000" fill-rule="nonzero" fill-opacity="1" /><path clip-path="url(#clip010)" d="M1509.92 2328.8 L1518.19 2328.8 L1530.91 2379.92 L1543.59 2328.8 L1552.78 2328.8 L1565.5 2379.92 L1578.18 2328.8 L1586.49 2328.8 L1571.29 2389.28 L1561.01 2389.28 L1548.25 2336.78 L1535.36 2389.28 L1525.07 2389.28 L1509.92 2328.8 Z" fill="#000000" fill-rule="nonzero" fill-opacity="1" /><path clip-path="url(#clip010)" d="M1612.33 2366.47 Q1603.3 2366.47 1599.81 2368.54 Q1596.33 2370.6 1596.33 2375.58 Q1596.33 2379.55 1598.92 2381.9 Q1601.56 2384.21 1606.05 2384.21 Q1612.25 2384.21 1615.98 2379.84 Q1619.74 2375.42 1619.74 2368.13 L1619.74 2366.47 L1612.33 2366.47 M1627.2 2363.39 L1627.2 2389.28 L1619.74 2389.28 L1619.74 2382.39 Q1617.19 2386.52 1613.38 2388.51 Q1609.58 2390.45 1604.07 2390.45 Q1597.1 2390.45 1592.97 2386.56 Q1588.88 2382.63 1588.88 2376.07 Q1588.88 2368.41 1593.98 2364.52 Q1599.12 2360.64 1609.29 2360.64 L1619.74 2360.64 L1619.74 2359.91 Q1619.74 2354.76 1616.34 2351.97 Q1612.98 2349.13 1606.86 2349.13 Q1602.97 2349.13 1599.29 2350.06 Q1595.6 2350.99 1592.2 2352.86 L1592.2 2345.97 Q1596.29 2344.39 1600.14 2343.62 Q1603.99 2342.81 1607.63 2342.81 Q1617.48 2342.81 1622.34 2347.92 Q1627.2 2353.02 1627.2 2363.39 Z" fill="#000000" fill-rule="nonzero" fill-opacity="1" /><path clip-path="url(#clip010)" d="M1671.47 2345.24 L1671.47 2352.29 Q1668.31 2350.67 1664.91 2349.86 Q1661.51 2349.05 1657.86 2349.05 Q1652.31 2349.05 1649.52 2350.75 Q1646.76 2352.45 1646.76 2355.86 Q1646.76 2358.45 1648.75 2359.95 Q1650.73 2361.41 1656.73 2362.74 L1659.28 2363.31 Q1667.22 2365.01 1670.54 2368.13 Q1673.9 2371.21 1673.9 2376.76 Q1673.9 2383.08 1668.88 2386.76 Q1663.9 2390.45 1655.15 2390.45 Q1651.5 2390.45 1647.53 2389.72 Q1643.6 2389.03 1639.23 2387.61 L1639.23 2379.92 Q1643.36 2382.07 1647.37 2383.16 Q1651.38 2384.21 1655.31 2384.21 Q1660.58 2384.21 1663.41 2382.43 Q1666.25 2380.61 1666.25 2377.33 Q1666.25 2374.29 1664.18 2372.67 Q1662.16 2371.05 1655.23 2369.55 L1652.64 2368.94 Q1645.71 2367.48 1642.63 2364.48 Q1639.55 2361.45 1639.55 2356.18 Q1639.55 2349.78 1644.09 2346.3 Q1648.63 2342.81 1656.97 2342.81 Q1661.1 2342.81 1664.75 2343.42 Q1668.4 2344.03 1671.47 2345.24 Z" fill="#000000" fill-rule="nonzero" fill-opacity="1" /><path clip-path="url(#clip010)" d="M1693.15 2331.02 L1693.15 2343.91 L1708.5 2343.91 L1708.5 2349.7 L1693.15 2349.7 L1693.15 2374.33 Q1693.15 2379.88 1694.64 2381.46 Q1696.18 2383.04 1700.84 2383.04 L1708.5 2383.04 L1708.5 2389.28 L1700.84 2389.28 Q1692.21 2389.28 1688.93 2386.08 Q1685.65 2382.83 1685.65 2374.33 L1685.65 2349.7 L1680.18 2349.7 L1680.18 2343.91 L1685.65 2343.91 L1685.65 2331.02 L1693.15 2331.02 Z" fill="#000000" fill-rule="nonzero" fill-opacity="1" /><path clip-path="url(#clip010)" d="M1757.11 2364.73 L1757.11 2368.37 L1722.84 2368.37 Q1723.33 2376.07 1727.46 2380.12 Q1731.63 2384.13 1739.04 2384.13 Q1743.34 2384.13 1747.35 2383.08 Q1751.4 2382.02 1755.37 2379.92 L1755.37 2386.97 Q1751.36 2388.67 1747.14 2389.56 Q1742.93 2390.45 1738.6 2390.45 Q1727.74 2390.45 1721.38 2384.13 Q1715.06 2377.81 1715.06 2367.04 Q1715.06 2355.9 1721.06 2349.37 Q1727.09 2342.81 1737.3 2342.81 Q1746.46 2342.81 1751.76 2348.73 Q1757.11 2354.6 1757.11 2364.73 M1749.66 2362.54 Q1749.58 2356.42 1746.21 2352.78 Q1742.89 2349.13 1737.38 2349.13 Q1731.14 2349.13 1727.38 2352.66 Q1723.65 2356.18 1723.08 2362.58 L1749.66 2362.54 Z" fill="#000000" fill-rule="nonzero" fill-opacity="1" /><path clip-path="url(#clip010)" d="M1795.72 2343.91 L1803.17 2343.91 L1803.17 2389.28 L1795.72 2389.28 L1795.72 2343.91 M1795.72 2326.24 L1803.17 2326.24 L1803.17 2335.68 L1795.72 2335.68 L1795.72 2326.24 Z" fill="#000000" fill-rule="nonzero" fill-opacity="1" /><path clip-path="url(#clip010)" d="M1856.48 2361.89 L1856.48 2389.28 L1849.02 2389.28 L1849.02 2362.13 Q1849.02 2355.69 1846.51 2352.49 Q1844 2349.29 1838.98 2349.29 Q1832.94 2349.29 1829.46 2353.14 Q1825.98 2356.99 1825.98 2363.63 L1825.98 2389.28 L1818.48 2389.28 L1818.48 2343.91 L1825.98 2343.91 L1825.98 2350.95 Q1828.65 2346.86 1832.25 2344.84 Q1835.9 2342.81 1840.64 2342.81 Q1848.46 2342.81 1852.47 2347.67 Q1856.48 2352.49 1856.48 2361.89 Z" fill="#000000" fill-rule="nonzero" fill-opacity="1" /><path clip-path="url(#clip010)" d="M1933.04 2352.62 Q1935.84 2347.59 1939.72 2345.2 Q1943.61 2342.81 1948.88 2342.81 Q1955.97 2342.81 1959.82 2347.79 Q1963.67 2352.74 1963.67 2361.89 L1963.67 2389.28 L1956.17 2389.28 L1956.17 2362.13 Q1956.17 2355.61 1953.86 2352.45 Q1951.55 2349.29 1946.81 2349.29 Q1941.02 2349.29 1937.66 2353.14 Q1934.3 2356.99 1934.3 2363.63 L1934.3 2389.28 L1926.8 2389.28 L1926.8 2362.13 Q1926.8 2355.57 1924.49 2352.45 Q1922.18 2349.29 1917.36 2349.29 Q1911.65 2349.29 1908.29 2353.18 Q1904.93 2357.03 1904.93 2363.63 L1904.93 2389.28 L1897.43 2389.28 L1897.43 2343.91 L1904.93 2343.91 L1904.93 2350.95 Q1907.48 2346.78 1911.04 2344.8 Q1914.61 2342.81 1919.51 2342.81 Q1924.45 2342.81 1927.9 2345.32 Q1931.38 2347.84 1933.04 2352.62 Z" fill="#000000" fill-rule="nonzero" fill-opacity="1" /><path clip-path="url(#clip010)" d="M1978.53 2343.91 L1985.99 2343.91 L1985.99 2389.28 L1978.53 2389.28 L1978.53 2343.91 M1978.53 2326.24 L1985.99 2326.24 L1985.99 2335.68 L1978.53 2335.68 L1978.53 2326.24 Z" fill="#000000" fill-rule="nonzero" fill-opacity="1" /><path clip-path="url(#clip010)" d="M2001.58 2326.24 L2009.04 2326.24 L2009.04 2389.28 L2001.58 2389.28 L2001.58 2326.24 Z" fill="#000000" fill-rule="nonzero" fill-opacity="1" /><path clip-path="url(#clip010)" d="M2024.63 2326.24 L2032.09 2326.24 L2032.09 2389.28 L2024.63 2389.28 L2024.63 2326.24 Z" fill="#000000" fill-rule="nonzero" fill-opacity="1" /><path clip-path="url(#clip010)" d="M2047.68 2343.91 L2055.13 2343.91 L2055.13 2389.28 L2047.68 2389.28 L2047.68 2343.91 M2047.68 2326.24 L2055.13 2326.24 L2055.13 2335.68 L2047.68 2335.68 L2047.68 2326.24 Z" fill="#000000" fill-rule="nonzero" fill-opacity="1" /><path clip-path="url(#clip010)" d="M2088.31 2349.13 Q2082.32 2349.13 2078.83 2353.83 Q2075.35 2358.49 2075.35 2366.63 Q2075.35 2374.77 2078.79 2379.47 Q2082.28 2384.13 2088.31 2384.13 Q2094.27 2384.13 2097.75 2379.43 Q2101.23 2374.73 2101.23 2366.63 Q2101.23 2358.57 2097.75 2353.87 Q2094.27 2349.13 2088.31 2349.13 M2088.31 2342.81 Q2098.03 2342.81 2103.58 2349.13 Q2109.13 2355.45 2109.13 2366.63 Q2109.13 2377.77 2103.58 2384.13 Q2098.03 2390.45 2088.31 2390.45 Q2078.55 2390.45 2073 2384.13 Q2067.49 2377.77 2067.49 2366.63 Q2067.49 2355.45 2073 2349.13 Q2078.55 2342.81 2088.31 2342.81 Z" fill="#000000" fill-rule="nonzero" fill-opacity="1" /><path clip-path="url(#clip010)" d="M2159.2 2361.89 L2159.2 2389.28 L2151.75 2389.28 L2151.75 2362.13 Q2151.75 2355.69 2149.24 2352.49 Q2146.73 2349.29 2141.7 2349.29 Q2135.67 2349.29 2132.18 2353.14 Q2128.7 2356.99 2128.7 2363.63 L2128.7 2389.28 L2121.21 2389.28 L2121.21 2343.91 L2128.7 2343.91 L2128.7 2350.95 Q2131.37 2346.86 2134.98 2344.84 Q2138.62 2342.81 2143.36 2342.81 Q2151.18 2342.81 2155.19 2347.67 Q2159.2 2352.49 2159.2 2361.89 Z" fill="#000000" fill-rule="nonzero" fill-opacity="1" /><path clip-path="url(#clip010)" d="M2235.76 2352.62 Q2238.56 2347.59 2242.45 2345.2 Q2246.34 2342.81 2251.6 2342.81 Q2258.69 2342.81 2262.54 2347.79 Q2266.39 2352.74 2266.39 2361.89 L2266.39 2389.28 L2258.9 2389.28 L2258.9 2362.13 Q2258.9 2355.61 2256.59 2352.45 Q2254.28 2349.29 2249.54 2349.29 Q2243.75 2349.29 2240.38 2353.14 Q2237.02 2356.99 2237.02 2363.63 L2237.02 2389.28 L2229.53 2389.28 L2229.53 2362.13 Q2229.53 2355.57 2227.22 2352.45 Q2224.91 2349.29 2220.09 2349.29 Q2214.38 2349.29 2211.01 2353.18 Q2207.65 2357.03 2207.65 2363.63 L2207.65 2389.28 L2200.16 2389.28 L2200.16 2343.91 L2207.65 2343.91 L2207.65 2350.95 Q2210.2 2346.78 2213.77 2344.8 Q2217.33 2342.81 2222.23 2342.81 Q2227.18 2342.81 2230.62 2345.32 Q2234.1 2347.84 2235.76 2352.62 Z" fill="#000000" fill-rule="nonzero" fill-opacity="1" /><path clip-path="url(#clip010)" d="M2320.06 2364.73 L2320.06 2368.37 L2285.79 2368.37 Q2286.28 2376.07 2290.41 2380.12 Q2294.58 2384.13 2302 2384.13 Q2306.29 2384.13 2310.3 2383.08 Q2314.35 2382.02 2318.32 2379.92 L2318.32 2386.97 Q2314.31 2388.67 2310.1 2389.56 Q2305.89 2390.45 2301.55 2390.45 Q2290.7 2390.45 2284.34 2384.13 Q2278.02 2377.81 2278.02 2367.04 Q2278.02 2355.9 2284.01 2349.37 Q2290.05 2342.81 2300.26 2342.81 Q2309.41 2342.81 2314.72 2348.73 Q2320.06 2354.6 2320.06 2364.73 M2312.61 2362.54 Q2312.53 2356.42 2309.17 2352.78 Q2305.85 2349.13 2300.34 2349.13 Q2294.1 2349.13 2290.33 2352.66 Q2286.6 2356.18 2286.04 2362.58 L2312.61 2362.54 Z" fill="#000000" fill-rule="nonzero" fill-opacity="1" /><path clip-path="url(#clip010)" d="M2339.67 2331.02 L2339.67 2343.91 L2355.02 2343.91 L2355.02 2349.7 L2339.67 2349.7 L2339.67 2374.33 Q2339.67 2379.88 2341.17 2381.46 Q2342.71 2383.04 2347.37 2383.04 L2355.02 2383.04 L2355.02 2389.28 L2347.37 2389.28 Q2338.74 2389.28 2335.46 2386.08 Q2332.18 2382.83 2332.18 2374.33 L2332.18 2349.7 L2326.71 2349.7 L2326.71 2343.91 L2332.18 2343.91 L2332.18 2331.02 L2339.67 2331.02 Z" fill="#000000" fill-rule="nonzero" fill-opacity="1" /><path clip-path="url(#clip010)" d="M2391.12 2350.87 Q2389.86 2350.14 2388.36 2349.82 Q2386.9 2349.46 2385.12 2349.46 Q2378.8 2349.46 2375.4 2353.59 Q2372.04 2357.68 2372.04 2365.38 L2372.04 2389.28 L2364.54 2389.28 L2364.54 2343.91 L2372.04 2343.91 L2372.04 2350.95 Q2374.39 2346.82 2378.15 2344.84 Q2381.92 2342.81 2387.31 2342.81 Q2388.08 2342.81 2389.01 2342.93 Q2389.94 2343.01 2391.08 2343.22 L2391.12 2350.87 Z" fill="#000000" fill-rule="nonzero" fill-opacity="1" /><path clip-path="url(#clip010)" d="M2398.94 2343.91 L2406.39 2343.91 L2406.39 2389.28 L2398.94 2389.28 L2398.94 2343.91 M2398.94 2326.24 L2406.39 2326.24 L2406.39 2335.68 L2398.94 2335.68 L2398.94 2326.24 Z" fill="#000000" fill-rule="nonzero" fill-opacity="1" /><path clip-path="url(#clip010)" d="M2454.64 2345.65 L2454.64 2352.62 Q2451.48 2350.87 2448.28 2350.02 Q2445.12 2349.13 2441.87 2349.13 Q2434.62 2349.13 2430.61 2353.75 Q2426.6 2358.33 2426.6 2366.63 Q2426.6 2374.94 2430.61 2379.55 Q2434.62 2384.13 2441.87 2384.13 Q2445.12 2384.13 2448.28 2383.28 Q2451.48 2382.39 2454.64 2380.65 L2454.64 2387.53 Q2451.52 2388.99 2448.15 2389.72 Q2444.83 2390.45 2441.06 2390.45 Q2430.82 2390.45 2424.78 2384.01 Q2418.74 2377.57 2418.74 2366.63 Q2418.74 2355.53 2424.82 2349.17 Q2430.94 2342.81 2441.55 2342.81 Q2444.99 2342.81 2448.28 2343.54 Q2451.56 2344.23 2454.64 2345.65 Z" fill="#000000" fill-rule="nonzero" fill-opacity="1" /><path clip-path="url(#clip010)" d="M2501.34 2331.02 L2501.34 2343.91 L2516.69 2343.91 L2516.69 2349.7 L2501.34 2349.7 L2501.34 2374.33 Q2501.34 2379.88 2502.84 2381.46 Q2504.38 2383.04 2509.04 2383.04 L2516.69 2383.04 L2516.69 2389.28 L2509.04 2389.28 Q2500.41 2389.28 2497.13 2386.08 Q2493.85 2382.83 2493.85 2374.33 L2493.85 2349.7 L2488.38 2349.7 L2488.38 2343.91 L2493.85 2343.91 L2493.85 2331.02 L2501.34 2331.02 Z" fill="#000000" fill-rule="nonzero" fill-opacity="1" /><path clip-path="url(#clip010)" d="M2544.08 2349.13 Q2538.08 2349.13 2534.6 2353.83 Q2531.12 2358.49 2531.12 2366.63 Q2531.12 2374.77 2534.56 2379.47 Q2538.04 2384.13 2544.08 2384.13 Q2550.03 2384.13 2553.52 2379.43 Q2557 2374.73 2557 2366.63 Q2557 2358.57 2553.52 2353.87 Q2550.03 2349.13 2544.08 2349.13 M2544.08 2342.81 Q2553.8 2342.81 2559.35 2349.13 Q2564.9 2355.45 2564.9 2366.63 Q2564.9 2377.77 2559.35 2384.13 Q2553.8 2390.45 2544.08 2390.45 Q2534.32 2390.45 2528.77 2384.13 Q2523.26 2377.77 2523.26 2366.63 Q2523.26 2355.45 2528.77 2349.13 Q2534.32 2342.81 2544.08 2342.81 Z" fill="#000000" fill-rule="nonzero" fill-opacity="1" /><path clip-path="url(#clip010)" d="M2614.97 2361.89 L2614.97 2389.28 L2607.52 2389.28 L2607.52 2362.13 Q2607.52 2355.69 2605 2352.49 Q2602.49 2349.29 2597.47 2349.29 Q2591.43 2349.29 2587.95 2353.14 Q2584.47 2356.99 2584.47 2363.63 L2584.47 2389.28 L2576.97 2389.28 L2576.97 2343.91 L2584.47 2343.91 L2584.47 2350.95 Q2587.14 2346.86 2590.75 2344.84 Q2594.39 2342.81 2599.13 2342.81 Q2606.95 2342.81 2610.96 2347.67 Q2614.97 2352.49 2614.97 2361.89 Z" fill="#000000" fill-rule="nonzero" fill-opacity="1" /><path clip-path="url(#clip010)" d="M2658.76 2345.24 L2658.76 2352.29 Q2655.6 2350.67 2652.2 2349.86 Q2648.79 2349.05 2645.15 2349.05 Q2639.6 2349.05 2636.8 2350.75 Q2634.05 2352.45 2634.05 2355.86 Q2634.05 2358.45 2636.03 2359.95 Q2638.02 2361.41 2644.01 2362.74 L2646.57 2363.31 Q2654.51 2365.01 2657.83 2368.13 Q2661.19 2371.21 2661.19 2376.76 Q2661.19 2383.08 2656.17 2386.76 Q2651.18 2390.45 2642.44 2390.45 Q2638.79 2390.45 2634.82 2389.72 Q2630.89 2389.03 2626.51 2387.61 L2626.51 2379.92 Q2630.65 2382.07 2634.66 2383.16 Q2638.67 2384.21 2642.6 2384.21 Q2647.86 2384.21 2650.7 2382.43 Q2653.53 2380.61 2653.53 2377.33 Q2653.53 2374.29 2651.47 2372.67 Q2649.44 2371.05 2642.52 2369.55 L2639.92 2368.94 Q2633 2367.48 2629.92 2364.48 Q2626.84 2361.45 2626.84 2356.18 Q2626.84 2349.78 2631.38 2346.3 Q2635.91 2342.81 2644.26 2342.81 Q2648.39 2342.81 2652.04 2343.42 Q2655.68 2344.03 2658.76 2345.24 Z" fill="#000000" fill-rule="nonzero" fill-opacity="1" /><polyline clip-path="url(#clip012)" style="stroke:#000000; stroke-linecap:round; stroke-linejoin:round; stroke-width:2; stroke-opacity:0.1; fill:none" points="618.359,1940.37 3552.76,1940.37 "/>
<polyline clip-path="url(#clip012)" style="stroke:#000000; stroke-linecap:round; stroke-linejoin:round; stroke-width:2; stroke-opacity:0.1; fill:none" points="618.359,1464.54 3552.76,1464.54 "/>
<polyline clip-path="url(#clip012)" style="stroke:#000000; stroke-linecap:round; stroke-linejoin:round; stroke-width:2; stroke-opacity:0.1; fill:none" points="618.359,988.72 3552.76,988.72 "/>
<polyline clip-path="url(#clip012)" style="stroke:#000000; stroke-linecap:round; stroke-linejoin:round; stroke-width:2; stroke-opacity:0.1; fill:none" points="618.359,512.896 3552.76,512.896 "/>
<polyline clip-path="url(#clip010)" style="stroke:#000000; stroke-linecap:round; stroke-linejoin:round; stroke-width:4; stroke-opacity:1; fill:none" points="618.359,2184.94 618.359,201.232 "/>
<polyline clip-path="url(#clip010)" style="stroke:#000000; stroke-linecap:round; stroke-linejoin:round; stroke-width:4; stroke-opacity:1; fill:none" points="618.359,1940.37 637.256,1940.37 "/>
<polyline clip-path="url(#clip010)" style="stroke:#000000; stroke-linecap:round; stroke-linejoin:round; stroke-width:4; stroke-opacity:1; fill:none" points="618.359,1464.54 637.256,1464.54 "/>
<polyline clip-path="url(#clip010)" style="stroke:#000000; stroke-linecap:round; stroke-linejoin:round; stroke-width:4; stroke-opacity:1; fill:none" points="618.359,988.72 637.256,988.72 "/>
<polyline clip-path="url(#clip010)" style="stroke:#000000; stroke-linecap:round; stroke-linejoin:round; stroke-width:4; stroke-opacity:1; fill:none" points="618.359,512.896 637.256,512.896 "/>
<path clip-path="url(#clip010)" d="M378.138 1910.13 L429.301 1910.13 L429.301 1917.01 L407.832 1917.01 L407.832 1970.61 L399.608 1970.61 L399.608 1917.01 L378.138 1917.01 L378.138 1910.13 Z" fill="#000000" fill-rule="nonzero" fill-opacity="1" /><path clip-path="url(#clip010)" d="M440.36 1930.46 Q434.365 1930.46 430.881 1935.16 Q427.397 1939.82 427.397 1947.96 Q427.397 1956.1 430.841 1960.8 Q434.325 1965.46 440.36 1965.46 Q446.315 1965.46 449.799 1960.76 Q453.283 1956.06 453.283 1947.96 Q453.283 1939.9 449.799 1935.2 Q446.315 1930.46 440.36 1930.46 M440.36 1924.14 Q450.083 1924.14 455.632 1930.46 Q461.182 1936.78 461.182 1947.96 Q461.182 1959.1 455.632 1965.46 Q450.083 1971.78 440.36 1971.78 Q430.598 1971.78 425.048 1965.46 Q419.539 1959.1 419.539 1947.96 Q419.539 1936.78 425.048 1930.46 Q430.598 1924.14 440.36 1924.14 Z" fill="#000000" fill-rule="nonzero" fill-opacity="1" /><path clip-path="url(#clip010)" d="M480.91 1912.35 L480.91 1925.24 L496.263 1925.24 L496.263 1931.03 L480.91 1931.03 L480.91 1955.66 Q480.91 1961.21 482.409 1962.79 Q483.948 1964.37 488.607 1964.37 L496.263 1964.37 L496.263 1970.61 L488.607 1970.61 Q479.978 1970.61 476.697 1967.41 Q473.416 1964.17 473.416 1955.66 L473.416 1931.03 L467.947 1931.03 L467.947 1925.24 L473.416 1925.24 L473.416 1912.35 L480.91 1912.35 Z" fill="#000000" fill-rule="nonzero" fill-opacity="1" /><path clip-path="url(#clip010)" d="M526.685 1947.8 Q517.652 1947.8 514.168 1949.87 Q510.684 1951.93 510.684 1956.91 Q510.684 1960.88 513.277 1963.23 Q515.91 1965.54 520.406 1965.54 Q526.604 1965.54 530.331 1961.17 Q534.098 1956.75 534.098 1949.46 L534.098 1947.8 L526.685 1947.8 M541.552 1944.72 L541.552 1970.61 L534.098 1970.61 L534.098 1963.72 Q531.546 1967.85 527.738 1969.84 Q523.931 1971.78 518.421 1971.78 Q511.454 1971.78 507.322 1967.89 Q503.23 1963.96 503.23 1957.4 Q503.23 1949.74 508.335 1945.86 Q513.479 1941.97 523.647 1941.97 L534.098 1941.97 L534.098 1941.24 Q534.098 1936.09 530.696 1933.3 Q527.333 1930.46 521.216 1930.46 Q517.328 1930.46 513.641 1931.39 Q509.955 1932.33 506.552 1934.19 L506.552 1927.3 Q510.644 1925.72 514.492 1924.95 Q518.34 1924.14 521.986 1924.14 Q531.83 1924.14 536.691 1929.25 Q541.552 1934.35 541.552 1944.72 Z" fill="#000000" fill-rule="nonzero" fill-opacity="1" /><path clip-path="url(#clip010)" d="M556.905 1907.57 L564.359 1907.57 L564.359 1970.61 L556.905 1970.61 L556.905 1907.57 Z" fill="#000000" fill-rule="nonzero" fill-opacity="1" /><path clip-path="url(#clip010)" d="M374.533 1466.43 Q377.166 1467.32 379.637 1470.23 Q382.149 1473.15 384.66 1478.26 L392.965 1494.78 L384.174 1494.78 L376.437 1479.27 Q373.439 1473.19 370.604 1471.21 Q367.809 1469.22 362.948 1469.22 L354.036 1469.22 L354.036 1494.78 L345.853 1494.78 L345.853 1434.3 L364.325 1434.3 Q374.695 1434.3 379.799 1438.64 Q384.903 1442.97 384.903 1451.72 Q384.903 1457.43 382.23 1461.2 Q379.597 1464.97 374.533 1466.43 M354.036 1441.03 L354.036 1462.5 L364.325 1462.5 Q370.239 1462.5 373.237 1459.78 Q376.275 1457.03 376.275 1451.72 Q376.275 1446.42 373.237 1443.74 Q370.239 1441.03 364.325 1441.03 L354.036 1441.03 Z" fill="#000000" fill-rule="nonzero" fill-opacity="1" /><path clip-path="url(#clip010)" d="M438.254 1470.23 L438.254 1473.88 L403.983 1473.88 Q404.469 1481.58 408.601 1485.63 Q412.774 1489.64 420.187 1489.64 Q424.481 1489.64 428.491 1488.59 Q432.542 1487.53 436.512 1485.43 L436.512 1492.47 Q432.502 1494.18 428.289 1495.07 Q424.076 1495.96 419.741 1495.96 Q408.885 1495.96 402.525 1489.64 Q396.206 1483.32 396.206 1472.54 Q396.206 1461.4 402.201 1454.88 Q408.237 1448.32 418.445 1448.32 Q427.6 1448.32 432.907 1454.23 Q438.254 1460.11 438.254 1470.23 M430.8 1468.05 Q430.719 1461.93 427.357 1458.28 Q424.035 1454.64 418.526 1454.64 Q412.288 1454.64 408.52 1458.16 Q404.793 1461.69 404.226 1468.09 L430.8 1468.05 Z" fill="#000000" fill-rule="nonzero" fill-opacity="1" /><path clip-path="url(#clip010)" d="M457.86 1436.53 L457.86 1449.41 L473.213 1449.41 L473.213 1455.21 L457.86 1455.21 L457.86 1479.84 Q457.86 1485.39 459.359 1486.96 Q460.898 1488.54 465.557 1488.54 L473.213 1488.54 L473.213 1494.78 L465.557 1494.78 Q456.929 1494.78 453.647 1491.58 Q450.366 1488.34 450.366 1479.84 L450.366 1455.21 L444.897 1455.21 L444.897 1449.41 L450.366 1449.41 L450.366 1436.53 L457.86 1436.53 Z" fill="#000000" fill-rule="nonzero" fill-opacity="1" /><path clip-path="url(#clip010)" d="M503.636 1471.98 Q494.602 1471.98 491.118 1474.04 Q487.634 1476.11 487.634 1481.09 Q487.634 1485.06 490.227 1487.41 Q492.86 1489.72 497.357 1489.72 Q503.554 1489.72 507.281 1485.34 Q511.049 1480.93 511.049 1473.64 L511.049 1471.98 L503.636 1471.98 M518.502 1468.9 L518.502 1494.78 L511.049 1494.78 L511.049 1487.9 Q508.497 1492.03 504.689 1494.01 Q500.881 1495.96 495.372 1495.96 Q488.404 1495.96 484.272 1492.07 Q480.181 1488.14 480.181 1481.58 Q480.181 1473.92 485.285 1470.03 Q490.43 1466.14 500.597 1466.14 L511.049 1466.14 L511.049 1465.41 Q511.049 1460.27 507.646 1457.47 Q504.284 1454.64 498.167 1454.64 Q494.278 1454.64 490.592 1455.57 Q486.905 1456.5 483.503 1458.37 L483.503 1451.48 Q487.594 1449.9 491.442 1449.13 Q495.291 1448.32 498.936 1448.32 Q508.78 1448.32 513.641 1453.42 Q518.502 1458.53 518.502 1468.9 Z" fill="#000000" fill-rule="nonzero" fill-opacity="1" /><path clip-path="url(#clip010)" d="M533.855 1449.41 L541.309 1449.41 L541.309 1494.78 L533.855 1494.78 L533.855 1449.41 M533.855 1431.75 L541.309 1431.75 L541.309 1441.19 L533.855 1441.19 L533.855 1431.75 Z" fill="#000000" fill-rule="nonzero" fill-opacity="1" /><path clip-path="url(#clip010)" d="M556.905 1431.75 L564.359 1431.75 L564.359 1494.78 L556.905 1494.78 L556.905 1431.75 Z" fill="#000000" fill-rule="nonzero" fill-opacity="1" /><path clip-path="url(#clip010)" d="M44.9921 958.48 L79.7489 958.48 L79.7489 965.366 L53.175 965.366 L53.175 983.19 L77.1563 983.19 L77.1563 990.077 L53.175 990.077 L53.175 1018.96 L44.9921 1018.96 L44.9921 958.48 Z" fill="#000000" fill-rule="nonzero" fill-opacity="1" /><path clip-path="url(#clip010)" d="M107.011 978.815 Q101.016 978.815 97.5324 983.514 Q94.0486 988.173 94.0486 996.315 Q94.0486 1004.46 97.4918 1009.16 Q100.976 1013.82 107.011 1013.82 Q112.966 1013.82 116.45 1009.12 Q119.934 1004.42 119.934 996.315 Q119.934 988.254 116.45 983.555 Q112.966 978.815 107.011 978.815 M107.011 972.496 Q116.734 972.496 122.283 978.815 Q127.833 985.135 127.833 996.315 Q127.833 1007.46 122.283 1013.82 Q116.734 1020.13 107.011 1020.13 Q97.2488 1020.13 91.6991 1013.82 Q86.1898 1007.46 86.1898 996.315 Q86.1898 985.135 91.6991 978.815 Q97.2488 972.496 107.011 972.496 Z" fill="#000000" fill-rule="nonzero" fill-opacity="1" /><path clip-path="url(#clip010)" d="M157.769 978.815 Q151.774 978.815 148.29 983.514 Q144.806 988.173 144.806 996.315 Q144.806 1004.46 148.25 1009.16 Q151.733 1013.82 157.769 1013.82 Q163.724 1013.82 167.208 1009.12 Q170.692 1004.42 170.692 996.315 Q170.692 988.254 167.208 983.555 Q163.724 978.815 157.769 978.815 M157.769 972.496 Q167.491 972.496 173.041 978.815 Q178.591 985.135 178.591 996.315 Q178.591 1007.46 173.041 1013.82 Q167.491 1020.13 157.769 1020.13 Q148.007 1020.13 142.457 1013.82 Q136.948 1007.46 136.948 996.315 Q136.948 985.135 142.457 978.815 Q148.007 972.496 157.769 972.496 Z" fill="#000000" fill-rule="nonzero" fill-opacity="1" /><path clip-path="url(#clip010)" d="M220.801 980.476 L220.801 955.928 L228.255 955.928 L228.255 1018.96 L220.801 1018.96 L220.801 1012.15 Q218.452 1016.21 214.847 1018.19 Q211.282 1020.13 206.259 1020.13 Q198.035 1020.13 192.85 1013.57 Q187.705 1007.01 187.705 996.315 Q187.705 985.621 192.85 979.058 Q198.035 972.496 206.259 972.496 Q211.282 972.496 214.847 974.481 Q218.452 976.425 220.801 980.476 M195.402 996.315 Q195.402 1004.54 198.764 1009.24 Q202.167 1013.9 208.082 1013.9 Q213.996 1013.9 217.399 1009.24 Q220.801 1004.54 220.801 996.315 Q220.801 988.092 217.399 983.433 Q213.996 978.734 208.082 978.734 Q202.167 978.734 198.764 983.433 Q195.402 988.092 195.402 996.315 Z" fill="#000000" fill-rule="nonzero" fill-opacity="1" /><path clip-path="url(#clip010)" d="M306.559 960.465 L306.559 968.445 Q301.9 966.217 297.769 965.123 Q293.637 964.03 289.788 964.03 Q283.104 964.03 279.458 966.622 Q275.853 969.215 275.853 973.995 Q275.853 978.005 278.243 980.071 Q280.674 982.097 287.398 983.352 L292.34 984.365 Q301.495 986.107 305.83 990.522 Q310.205 994.897 310.205 1002.27 Q310.205 1011.06 304.291 1015.6 Q298.417 1020.13 287.034 1020.13 Q282.74 1020.13 277.879 1019.16 Q273.058 1018.19 267.873 1016.29 L267.873 1007.86 Q272.855 1010.66 277.636 1012.07 Q282.416 1013.49 287.034 1013.49 Q294.042 1013.49 297.85 1010.74 Q301.657 1007.98 301.657 1002.88 Q301.657 998.422 298.903 995.91 Q296.189 993.399 289.95 992.143 L284.968 991.171 Q275.813 989.348 271.721 985.459 Q267.63 981.57 267.63 974.643 Q267.63 966.622 273.261 962.004 Q278.932 957.386 288.857 957.386 Q293.11 957.386 297.525 958.156 Q301.941 958.925 306.559 960.465 Z" fill="#000000" fill-rule="nonzero" fill-opacity="1" /><path clip-path="url(#clip010)" d="M361.449 994.411 L361.449 998.057 L327.178 998.057 Q327.664 1005.75 331.796 1009.8 Q335.969 1013.82 343.382 1013.82 Q347.676 1013.82 351.686 1012.76 Q355.737 1011.71 359.707 1009.6 L359.707 1016.65 Q355.696 1018.35 351.484 1019.24 Q347.271 1020.13 342.936 1020.13 Q332.08 1020.13 325.72 1013.82 Q319.4 1007.5 319.4 996.72 Q319.4 985.58 325.396 979.058 Q331.432 972.496 341.64 972.496 Q350.795 972.496 356.102 978.41 Q361.449 984.284 361.449 994.411 M353.995 992.224 Q353.914 986.107 350.552 982.461 Q347.23 978.815 341.721 978.815 Q335.482 978.815 331.715 982.34 Q327.988 985.864 327.421 992.264 L353.995 992.224 Z" fill="#000000" fill-rule="nonzero" fill-opacity="1" /><path clip-path="url(#clip010)" d="M399.973 980.557 Q398.717 979.828 397.218 979.504 Q395.76 979.139 393.978 979.139 Q387.658 979.139 384.255 983.271 Q380.893 987.363 380.893 995.06 L380.893 1018.96 L373.399 1018.96 L373.399 973.59 L380.893 973.59 L380.893 980.638 Q383.243 976.506 387.01 974.521 Q390.777 972.496 396.165 972.496 Q396.935 972.496 397.866 972.617 Q398.798 972.699 399.932 972.901 L399.973 980.557 Z" fill="#000000" fill-rule="nonzero" fill-opacity="1" /><path clip-path="url(#clip010)" d="M402.444 973.59 L410.343 973.59 L424.521 1011.67 L438.7 973.59 L446.599 973.59 L429.585 1018.96 L419.458 1018.96 L402.444 973.59 Z" fill="#000000" fill-rule="nonzero" fill-opacity="1" /><path clip-path="url(#clip010)" d="M456.888 973.59 L464.342 973.59 L464.342 1018.96 L456.888 1018.96 L456.888 973.59 M456.888 955.928 L464.342 955.928 L464.342 965.366 L456.888 965.366 L456.888 955.928 Z" fill="#000000" fill-rule="nonzero" fill-opacity="1" /><path clip-path="url(#clip010)" d="M512.588 975.332 L512.588 982.299 Q509.428 980.557 506.228 979.707 Q503.068 978.815 499.828 978.815 Q492.577 978.815 488.566 983.433 Q484.556 988.011 484.556 996.315 Q484.556 1004.62 488.566 1009.24 Q492.577 1013.82 499.828 1013.82 Q503.068 1013.82 506.228 1012.96 Q509.428 1012.07 512.588 1010.33 L512.588 1017.22 Q509.469 1018.68 506.107 1019.41 Q502.785 1020.13 499.017 1020.13 Q488.769 1020.13 482.733 1013.69 Q476.697 1007.25 476.697 996.315 Q476.697 985.216 482.773 978.856 Q488.89 972.496 499.504 972.496 Q502.947 972.496 506.228 973.225 Q509.509 973.914 512.588 975.332 Z" fill="#000000" fill-rule="nonzero" fill-opacity="1" /><path clip-path="url(#clip010)" d="M564.359 994.411 L564.359 998.057 L530.088 998.057 Q530.574 1005.75 534.706 1009.8 Q538.878 1013.82 546.292 1013.82 Q550.585 1013.82 554.596 1012.76 Q558.647 1011.71 562.617 1009.6 L562.617 1016.65 Q558.606 1018.35 554.393 1019.24 Q550.18 1020.13 545.846 1020.13 Q534.99 1020.13 528.63 1013.82 Q522.31 1007.5 522.31 996.72 Q522.31 985.58 528.306 979.058 Q534.341 972.496 544.55 972.496 Q553.705 972.496 559.011 978.41 Q564.359 984.284 564.359 994.411 M556.905 992.224 Q556.824 986.107 553.462 982.461 Q550.14 978.815 544.631 978.815 Q538.392 978.815 534.625 982.34 Q530.898 985.864 530.331 992.264 L556.905 992.224 Z" fill="#000000" fill-rule="nonzero" fill-opacity="1" /><path clip-path="url(#clip010)" d="M140.999 482.656 L149.181 482.656 L149.181 507.448 L178.915 507.448 L178.915 482.656 L187.098 482.656 L187.098 543.136 L178.915 543.136 L178.915 514.335 L149.181 514.335 L149.181 543.136 L140.999 543.136 L140.999 482.656 Z" fill="#000000" fill-rule="nonzero" fill-opacity="1" /><path clip-path="url(#clip010)" d="M220.639 502.992 Q214.644 502.992 211.16 507.691 Q207.676 512.35 207.676 520.492 Q207.676 528.634 211.12 533.333 Q214.603 537.992 220.639 537.992 Q226.594 537.992 230.078 533.293 Q233.562 528.594 233.562 520.492 Q233.562 512.431 230.078 507.732 Q226.594 502.992 220.639 502.992 M220.639 496.673 Q230.362 496.673 235.911 502.992 Q241.461 509.311 241.461 520.492 Q241.461 531.632 235.911 537.992 Q230.362 544.311 220.639 544.311 Q210.877 544.311 205.327 537.992 Q199.818 531.632 199.818 520.492 Q199.818 509.311 205.327 502.992 Q210.877 496.673 220.639 496.673 Z" fill="#000000" fill-rule="nonzero" fill-opacity="1" /><path clip-path="url(#clip010)" d="M253.047 525.231 L253.047 497.766 L260.5 497.766 L260.5 524.948 Q260.5 531.389 263.012 534.63 Q265.523 537.83 270.546 537.83 Q276.582 537.83 280.066 533.981 Q283.59 530.133 283.59 523.49 L283.59 497.766 L291.044 497.766 L291.044 543.136 L283.59 543.136 L283.59 536.169 Q280.876 540.301 277.271 542.326 Q273.706 544.311 268.967 544.311 Q261.148 544.311 257.097 539.45 Q253.047 534.589 253.047 525.231 M271.802 496.673 L271.802 496.673 Z" fill="#000000" fill-rule="nonzero" fill-opacity="1" /><path clip-path="url(#clip010)" d="M335.32 499.103 L335.32 506.152 Q332.161 504.531 328.758 503.721 Q325.355 502.911 321.709 502.911 Q316.16 502.911 313.365 504.612 Q310.61 506.314 310.61 509.716 Q310.61 512.309 312.595 513.808 Q314.58 515.266 320.575 516.603 L323.127 517.17 Q331.067 518.872 334.389 521.991 Q337.751 525.069 337.751 530.619 Q337.751 536.939 332.728 540.625 Q327.745 544.311 318.995 544.311 Q315.349 544.311 311.38 543.582 Q307.45 542.893 303.075 541.476 L303.075 533.779 Q307.207 535.926 311.218 537.02 Q315.228 538.073 319.157 538.073 Q324.423 538.073 327.259 536.29 Q330.095 534.468 330.095 531.186 Q330.095 528.148 328.029 526.528 Q326.003 524.907 319.076 523.409 L316.484 522.801 Q309.557 521.343 306.478 518.345 Q303.399 515.307 303.399 510.041 Q303.399 503.64 307.936 500.156 Q312.473 496.673 320.818 496.673 Q324.95 496.673 328.596 497.28 Q332.242 497.888 335.32 499.103 Z" fill="#000000" fill-rule="nonzero" fill-opacity="1" /><path clip-path="url(#clip010)" d="M388.428 518.588 L388.428 522.234 L354.157 522.234 Q354.643 529.93 358.775 533.981 Q362.948 537.992 370.361 537.992 Q374.655 537.992 378.665 536.939 Q382.716 535.885 386.686 533.779 L386.686 540.827 Q382.676 542.529 378.463 543.42 Q374.25 544.311 369.915 544.311 Q359.059 544.311 352.699 537.992 Q346.379 531.672 346.379 520.897 Q346.379 509.757 352.375 503.235 Q358.411 496.673 368.619 496.673 Q377.774 496.673 383.081 502.587 Q388.428 508.461 388.428 518.588 M380.974 516.4 Q380.893 510.284 377.531 506.638 Q374.209 502.992 368.7 502.992 Q362.461 502.992 358.694 506.516 Q354.967 510.041 354.4 516.441 L380.974 516.4 Z" fill="#000000" fill-rule="nonzero" fill-opacity="1" /><path clip-path="url(#clip010)" d="M438.375 515.752 L438.375 543.136 L430.922 543.136 L430.922 515.995 Q430.922 509.554 428.41 506.354 Q425.899 503.154 420.876 503.154 Q414.84 503.154 411.356 507.002 Q407.872 510.851 407.872 517.494 L407.872 543.136 L400.378 543.136 L400.378 480.104 L407.872 480.104 L407.872 504.815 Q410.546 500.723 414.151 498.698 Q417.797 496.673 422.536 496.673 Q430.355 496.673 434.365 501.534 Q438.375 506.354 438.375 515.752 Z" fill="#000000" fill-rule="nonzero" fill-opacity="1" /><path clip-path="url(#clip010)" d="M470.823 502.992 Q464.828 502.992 461.344 507.691 Q457.86 512.35 457.86 520.492 Q457.86 528.634 461.304 533.333 Q464.787 537.992 470.823 537.992 Q476.778 537.992 480.262 533.293 Q483.746 528.594 483.746 520.492 Q483.746 512.431 480.262 507.732 Q476.778 502.992 470.823 502.992 M470.823 496.673 Q480.545 496.673 486.095 502.992 Q491.645 509.311 491.645 520.492 Q491.645 531.632 486.095 537.992 Q480.545 544.311 470.823 544.311 Q461.06 544.311 455.511 537.992 Q450.002 531.632 450.002 520.492 Q450.002 509.311 455.511 502.992 Q461.06 496.673 470.823 496.673 Z" fill="#000000" fill-rule="nonzero" fill-opacity="1" /><path clip-path="url(#clip010)" d="M504 480.104 L511.454 480.104 L511.454 543.136 L504 543.136 L504 480.104 Z" fill="#000000" fill-rule="nonzero" fill-opacity="1" /><path clip-path="url(#clip010)" d="M556.905 504.653 L556.905 480.104 L564.359 480.104 L564.359 543.136 L556.905 543.136 L556.905 536.331 Q554.555 540.382 550.95 542.367 Q547.385 544.311 542.362 544.311 Q534.139 544.311 528.954 537.749 Q523.809 531.186 523.809 520.492 Q523.809 509.798 528.954 503.235 Q534.139 496.673 542.362 496.673 Q547.385 496.673 550.95 498.658 Q554.555 500.602 556.905 504.653 M531.506 520.492 Q531.506 528.715 534.868 533.414 Q538.271 538.073 544.185 538.073 Q550.099 538.073 553.502 533.414 Q556.905 528.715 556.905 520.492 Q556.905 512.269 553.502 507.61 Q550.099 502.911 544.185 502.911 Q538.271 502.911 534.868 507.61 Q531.506 512.269 531.506 520.492 Z" fill="#000000" fill-rule="nonzero" fill-opacity="1" /><path clip-path="url(#clip010)" d="M760.24 38.016 L818.712 38.016 L818.712 45.8863 L794.175 45.8863 L794.175 107.136 L784.777 107.136 L784.777 45.8863 L760.24 45.8863 L760.24 38.016 Z" fill="#000000" fill-rule="nonzero" fill-opacity="1" /><path clip-path="url(#clip010)" d="M831.351 61.2566 Q824.499 61.2566 820.518 66.627 Q816.536 71.951 816.536 81.2565 Q816.536 90.562 820.471 95.9324 Q824.453 101.256 831.351 101.256 Q838.157 101.256 842.138 95.8861 Q846.119 90.5157 846.119 81.2565 Q846.119 72.0436 842.138 66.6733 Q838.157 61.2566 831.351 61.2566 M831.351 54.0344 Q842.462 54.0344 848.805 61.2566 Q855.147 68.4788 855.147 81.2565 Q855.147 93.9879 848.805 101.256 Q842.462 108.479 831.351 108.479 Q820.194 108.479 813.851 101.256 Q807.555 93.9879 807.555 81.2565 Q807.555 68.4788 813.851 61.2566 Q820.194 54.0344 831.351 54.0344 Z" fill="#000000" fill-rule="nonzero" fill-opacity="1" /><path clip-path="url(#clip010)" d="M877.693 40.5623 L877.693 55.2844 L895.24 55.2844 L895.24 61.9048 L877.693 61.9048 L877.693 90.0528 Q877.693 96.3953 879.406 98.2009 Q881.166 100.006 886.49 100.006 L895.24 100.006 L895.24 107.136 L886.49 107.136 Q876.629 107.136 872.879 103.479 Q869.129 99.7749 869.129 90.0528 L869.129 61.9048 L862.879 61.9048 L862.879 55.2844 L869.129 55.2844 L869.129 40.5623 L877.693 40.5623 Z" fill="#000000" fill-rule="nonzero" fill-opacity="1" /><path clip-path="url(#clip010)" d="M930.008 81.0713 Q919.684 81.0713 915.702 83.4324 Q911.721 85.7935 911.721 91.4879 Q911.721 96.0249 914.684 98.7101 Q917.693 101.349 922.832 101.349 Q929.915 101.349 934.175 96.349 Q938.48 91.3028 938.48 82.9695 L938.48 81.0713 L930.008 81.0713 M946.999 77.5528 L946.999 107.136 L938.48 107.136 L938.48 99.2657 Q935.563 103.988 931.212 106.256 Q926.86 108.479 920.563 108.479 Q912.601 108.479 907.878 104.034 Q903.202 99.5434 903.202 92.0435 Q903.202 83.2935 909.036 78.8491 Q914.915 74.4047 926.536 74.4047 L938.48 74.4047 L938.48 73.5714 Q938.48 67.6918 934.591 64.4973 Q930.749 61.2566 923.758 61.2566 Q919.313 61.2566 915.101 62.3214 Q910.888 63.3862 906.999 65.5159 L906.999 57.6455 Q911.675 55.84 916.073 54.9604 Q920.471 54.0344 924.638 54.0344 Q935.887 54.0344 941.443 59.8677 Q946.999 65.701 946.999 77.5528 Z" fill="#000000" fill-rule="nonzero" fill-opacity="1" /><path clip-path="url(#clip010)" d="M964.545 35.0993 L973.063 35.0993 L973.063 107.136 L964.545 107.136 L964.545 35.0993 Z" fill="#000000" fill-rule="nonzero" fill-opacity="1" /><path clip-path="url(#clip010)" d="M1047.28 35.0993 L1047.28 42.1826 L1039.13 42.1826 Q1034.54 42.1826 1032.74 44.0345 Q1030.98 45.8863 1030.98 50.7011 L1030.98 55.2844 L1045.01 55.2844 L1045.01 61.9048 L1030.98 61.9048 L1030.98 107.136 L1022.41 107.136 L1022.41 61.9048 L1014.27 61.9048 L1014.27 55.2844 L1022.41 55.2844 L1022.41 51.6733 Q1022.41 43.016 1026.44 39.0808 Q1030.47 35.0993 1039.22 35.0993 L1047.28 35.0993 Z" fill="#000000" fill-rule="nonzero" fill-opacity="1" /><path clip-path="url(#clip010)" d="M1074.5 61.2566 Q1067.65 61.2566 1063.66 66.627 Q1059.68 71.951 1059.68 81.2565 Q1059.68 90.562 1063.62 95.9324 Q1067.6 101.256 1074.5 101.256 Q1081.3 101.256 1085.28 95.8861 Q1089.27 90.5157 1089.27 81.2565 Q1089.27 72.0436 1085.28 66.6733 Q1081.3 61.2566 1074.5 61.2566 M1074.5 54.0344 Q1085.61 54.0344 1091.95 61.2566 Q1098.29 68.4788 1098.29 81.2565 Q1098.29 93.9879 1091.95 101.256 Q1085.61 108.479 1074.5 108.479 Q1063.34 108.479 1057 101.256 Q1050.7 93.9879 1050.7 81.2565 Q1050.7 68.4788 1057 61.2566 Q1063.34 54.0344 1074.5 54.0344 Z" fill="#000000" fill-rule="nonzero" fill-opacity="1" /><path clip-path="url(#clip010)" d="M1132.51 61.2566 Q1125.65 61.2566 1121.67 66.627 Q1117.69 71.951 1117.69 81.2565 Q1117.69 90.562 1121.63 95.9324 Q1125.61 101.256 1132.51 101.256 Q1139.31 101.256 1143.29 95.8861 Q1147.28 90.5157 1147.28 81.2565 Q1147.28 72.0436 1143.29 66.6733 Q1139.31 61.2566 1132.51 61.2566 M1132.51 54.0344 Q1143.62 54.0344 1149.96 61.2566 Q1156.3 68.4788 1156.3 81.2565 Q1156.3 93.9879 1149.96 101.256 Q1143.62 108.479 1132.51 108.479 Q1121.35 108.479 1115.01 101.256 Q1108.71 93.9879 1108.71 81.2565 Q1108.71 68.4788 1115.01 61.2566 Q1121.35 54.0344 1132.51 54.0344 Z" fill="#000000" fill-rule="nonzero" fill-opacity="1" /><path clip-path="url(#clip010)" d="M1204.54 63.1548 L1204.54 35.0993 L1213.06 35.0993 L1213.06 107.136 L1204.54 107.136 L1204.54 99.3583 Q1201.86 103.988 1197.74 106.256 Q1193.66 108.479 1187.92 108.479 Q1178.53 108.479 1172.6 100.979 Q1166.72 93.4787 1166.72 81.2565 Q1166.72 69.0344 1172.6 61.5344 Q1178.53 54.0344 1187.92 54.0344 Q1193.66 54.0344 1197.74 56.3029 Q1201.86 58.5251 1204.54 63.1548 M1175.52 81.2565 Q1175.52 90.6546 1179.36 96.0249 Q1183.25 101.349 1190.01 101.349 Q1196.77 101.349 1200.65 96.0249 Q1204.54 90.6546 1204.54 81.2565 Q1204.54 71.8584 1200.65 66.5344 Q1196.77 61.164 1190.01 61.164 Q1183.25 61.164 1179.36 66.5344 Q1175.52 71.8584 1175.52 81.2565 Z" fill="#000000" fill-rule="nonzero" fill-opacity="1" /><path clip-path="url(#clip010)" d="M1255.79 55.2844 L1264.31 55.2844 L1274.96 95.7472 L1285.56 55.2844 L1295.61 55.2844 L1306.26 95.7472 L1316.86 55.2844 L1325.38 55.2844 L1311.81 107.136 L1301.77 107.136 L1290.61 64.6362 L1279.4 107.136 L1269.36 107.136 L1255.79 55.2844 Z" fill="#000000" fill-rule="nonzero" fill-opacity="1" /><path clip-path="url(#clip010)" d="M1361.86 81.0713 Q1351.53 81.0713 1347.55 83.4324 Q1343.57 85.7935 1343.57 91.4879 Q1343.57 96.0249 1346.53 98.7101 Q1349.54 101.349 1354.68 101.349 Q1361.76 101.349 1366.02 96.349 Q1370.33 91.3028 1370.33 82.9695 L1370.33 81.0713 L1361.86 81.0713 M1378.85 77.5528 L1378.85 107.136 L1370.33 107.136 L1370.33 99.2657 Q1367.41 103.988 1363.06 106.256 Q1358.71 108.479 1352.41 108.479 Q1344.45 108.479 1339.73 104.034 Q1335.05 99.5434 1335.05 92.0435 Q1335.05 83.2935 1340.89 78.8491 Q1346.76 74.4047 1358.39 74.4047 L1370.33 74.4047 L1370.33 73.5714 Q1370.33 67.6918 1366.44 64.4973 Q1362.6 61.2566 1355.61 61.2566 Q1351.16 61.2566 1346.95 62.3214 Q1342.74 63.3862 1338.85 65.5159 L1338.85 57.6455 Q1343.52 55.84 1347.92 54.9604 Q1352.32 54.0344 1356.49 54.0344 Q1367.74 54.0344 1373.29 59.8677 Q1378.85 65.701 1378.85 77.5528 Z" fill="#000000" fill-rule="nonzero" fill-opacity="1" /><path clip-path="url(#clip010)" d="M1429.45 56.8122 L1429.45 64.8677 Q1425.84 63.0159 1421.95 62.0899 Q1418.06 61.164 1413.89 61.164 Q1407.55 61.164 1404.36 63.1085 Q1401.21 65.0529 1401.21 68.9418 Q1401.21 71.9047 1403.48 73.6177 Q1405.75 75.2843 1412.6 76.8121 L1415.51 77.4602 Q1424.59 79.4047 1428.38 82.9695 Q1432.23 86.488 1432.23 92.8305 Q1432.23 100.053 1426.49 104.266 Q1420.79 108.479 1410.79 108.479 Q1406.63 108.479 1402.09 107.645 Q1397.6 106.858 1392.6 105.238 L1392.6 96.4416 Q1397.32 98.8953 1401.9 100.145 Q1406.49 101.349 1410.98 101.349 Q1417 101.349 1420.24 99.312 Q1423.48 97.2286 1423.48 93.4787 Q1423.48 90.0065 1421.12 88.1546 Q1418.8 86.3028 1410.88 84.5898 L1407.92 83.8954 Q1400.01 82.2287 1396.49 78.8028 Q1392.97 75.3306 1392.97 69.3121 Q1392.97 61.9974 1398.15 58.0159 Q1403.34 54.0344 1412.88 54.0344 Q1417.6 54.0344 1421.76 54.7289 Q1425.93 55.4233 1429.45 56.8122 Z" fill="#000000" fill-rule="nonzero" fill-opacity="1" /><path clip-path="url(#clip010)" d="M1454.22 40.5623 L1454.22 55.2844 L1471.76 55.2844 L1471.76 61.9048 L1454.22 61.9048 L1454.22 90.0528 Q1454.22 96.3953 1455.93 98.2009 Q1457.69 100.006 1463.01 100.006 L1471.76 100.006 L1471.76 107.136 L1463.01 107.136 Q1453.15 107.136 1449.4 103.479 Q1445.65 99.7749 1445.65 90.0528 L1445.65 61.9048 L1439.4 61.9048 L1439.4 55.2844 L1445.65 55.2844 L1445.65 40.5623 L1454.22 40.5623 Z" fill="#000000" fill-rule="nonzero" fill-opacity="1" /><path clip-path="url(#clip010)" d="M1527.32 79.0806 L1527.32 83.2472 L1488.15 83.2472 Q1488.71 92.0435 1493.43 96.6731 Q1498.2 101.256 1506.67 101.256 Q1511.58 101.256 1516.16 100.053 Q1520.79 98.849 1525.33 96.4416 L1525.33 104.497 Q1520.75 106.442 1515.93 107.46 Q1511.12 108.479 1506.16 108.479 Q1493.75 108.479 1486.49 101.256 Q1479.26 94.0342 1479.26 81.7195 Q1479.26 68.9881 1486.12 61.5344 Q1493.01 54.0344 1504.68 54.0344 Q1515.14 54.0344 1521.21 60.7937 Q1527.32 67.5066 1527.32 79.0806 M1518.8 76.5806 Q1518.71 69.5899 1514.87 65.4233 Q1511.07 61.2566 1504.77 61.2566 Q1497.64 61.2566 1493.34 65.2844 Q1489.08 69.3121 1488.43 76.6269 L1518.8 76.5806 Z" fill="#000000" fill-rule="nonzero" fill-opacity="1" /><path clip-path="url(#clip010)" d="M1579.68 99.3583 L1579.68 126.858 L1571.12 126.858 L1571.12 55.2844 L1579.68 55.2844 L1579.68 63.1548 Q1582.37 58.5251 1586.44 56.3029 Q1590.56 54.0344 1596.25 54.0344 Q1605.7 54.0344 1611.58 61.5344 Q1617.5 69.0344 1617.5 81.2565 Q1617.5 93.4787 1611.58 100.979 Q1605.7 108.479 1596.25 108.479 Q1590.56 108.479 1586.44 106.256 Q1582.37 103.988 1579.68 99.3583 M1608.66 81.2565 Q1608.66 71.8584 1604.77 66.5344 Q1600.93 61.164 1594.17 61.164 Q1587.41 61.164 1583.52 66.5344 Q1579.68 71.8584 1579.68 81.2565 Q1579.68 90.6546 1583.52 96.0249 Q1587.41 101.349 1594.17 101.349 Q1600.93 101.349 1604.77 96.0249 Q1608.66 90.6546 1608.66 81.2565 Z" fill="#000000" fill-rule="nonzero" fill-opacity="1" /><path clip-path="url(#clip010)" d="M1661.67 63.2473 Q1660.24 62.414 1658.52 62.0436 Q1656.86 61.627 1654.82 61.627 Q1647.6 61.627 1643.71 66.3492 Q1639.87 71.0251 1639.87 79.8213 L1639.87 107.136 L1631.3 107.136 L1631.3 55.2844 L1639.87 55.2844 L1639.87 63.3399 Q1642.55 58.6177 1646.86 56.3492 Q1651.16 54.0344 1657.32 54.0344 Q1658.2 54.0344 1659.26 54.1733 Q1660.33 54.2659 1661.62 54.4974 L1661.67 63.2473 Z" fill="#000000" fill-rule="nonzero" fill-opacity="1" /><path clip-path="url(#clip010)" d="M1688.61 61.2566 Q1681.76 61.2566 1677.78 66.627 Q1673.8 71.951 1673.8 81.2565 Q1673.8 90.562 1677.74 95.9324 Q1681.72 101.256 1688.61 101.256 Q1695.42 101.256 1699.4 95.8861 Q1703.38 90.5157 1703.38 81.2565 Q1703.38 72.0436 1699.4 66.6733 Q1695.42 61.2566 1688.61 61.2566 M1688.61 54.0344 Q1699.73 54.0344 1706.07 61.2566 Q1712.41 68.4788 1712.41 81.2565 Q1712.41 93.9879 1706.07 101.256 Q1699.73 108.479 1688.61 108.479 Q1677.46 108.479 1671.12 101.256 Q1664.82 93.9879 1664.82 81.2565 Q1664.82 68.4788 1671.12 61.2566 Q1677.46 54.0344 1688.61 54.0344 Z" fill="#000000" fill-rule="nonzero" fill-opacity="1" /><path clip-path="url(#clip010)" d="M1760.65 63.1548 L1760.65 35.0993 L1769.17 35.0993 L1769.17 107.136 L1760.65 107.136 L1760.65 99.3583 Q1757.97 103.988 1753.85 106.256 Q1749.77 108.479 1744.03 108.479 Q1734.63 108.479 1728.71 100.979 Q1722.83 93.4787 1722.83 81.2565 Q1722.83 69.0344 1728.71 61.5344 Q1734.63 54.0344 1744.03 54.0344 Q1749.77 54.0344 1753.85 56.3029 Q1757.97 58.5251 1760.65 63.1548 M1731.62 81.2565 Q1731.62 90.6546 1735.47 96.0249 Q1739.36 101.349 1746.11 101.349 Q1752.87 101.349 1756.76 96.0249 Q1760.65 90.6546 1760.65 81.2565 Q1760.65 71.8584 1756.76 66.5344 Q1752.87 61.164 1746.11 61.164 Q1739.36 61.164 1735.47 66.5344 Q1731.62 71.8584 1731.62 81.2565 Z" fill="#000000" fill-rule="nonzero" fill-opacity="1" /><path clip-path="url(#clip010)" d="M1785.84 86.6731 L1785.84 55.2844 L1794.36 55.2844 L1794.36 86.3491 Q1794.36 93.7101 1797.23 97.4138 Q1800.1 101.071 1805.84 101.071 Q1812.73 101.071 1816.72 96.6731 Q1820.74 92.275 1820.74 84.6824 L1820.74 55.2844 L1829.26 55.2844 L1829.26 107.136 L1820.74 107.136 L1820.74 99.1731 Q1817.64 103.895 1813.52 106.21 Q1809.45 108.479 1804.03 108.479 Q1795.1 108.479 1790.47 102.923 Q1785.84 97.3675 1785.84 86.6731 M1807.27 54.0344 L1807.27 54.0344 Z" fill="#000000" fill-rule="nonzero" fill-opacity="1" /><path clip-path="url(#clip010)" d="M1884.12 57.2752 L1884.12 65.2381 Q1880.51 63.2473 1876.85 62.2751 Q1873.24 61.2566 1869.54 61.2566 Q1861.25 61.2566 1856.67 66.5344 Q1852.09 71.7658 1852.09 81.2565 Q1852.09 90.7472 1856.67 96.0249 Q1861.25 101.256 1869.54 101.256 Q1873.24 101.256 1876.85 100.284 Q1880.51 99.2657 1884.12 97.2749 L1884.12 105.145 Q1880.56 106.812 1876.72 107.645 Q1872.92 108.479 1868.61 108.479 Q1856.9 108.479 1850 101.118 Q1843.1 93.7564 1843.1 81.2565 Q1843.1 68.5714 1850.05 61.3029 Q1857.04 54.0344 1869.17 54.0344 Q1873.1 54.0344 1876.85 54.8678 Q1880.6 55.6548 1884.12 57.2752 Z" fill="#000000" fill-rule="nonzero" fill-opacity="1" /><path clip-path="url(#clip010)" d="M1943.29 79.0806 L1943.29 83.2472 L1904.12 83.2472 Q1904.68 92.0435 1909.4 96.6731 Q1914.17 101.256 1922.64 101.256 Q1927.55 101.256 1932.13 100.053 Q1936.76 98.849 1941.3 96.4416 L1941.3 104.497 Q1936.72 106.442 1931.9 107.46 Q1927.09 108.479 1922.13 108.479 Q1909.72 108.479 1902.46 101.256 Q1895.23 94.0342 1895.23 81.7195 Q1895.23 68.9881 1902.09 61.5344 Q1908.98 54.0344 1920.65 54.0344 Q1931.11 54.0344 1937.18 60.7937 Q1943.29 67.5066 1943.29 79.0806 M1934.77 76.5806 Q1934.68 69.5899 1930.84 65.4233 Q1927.04 61.2566 1920.74 61.2566 Q1913.61 61.2566 1909.31 65.2844 Q1905.05 69.3121 1904.4 76.6269 L1934.77 76.5806 Z" fill="#000000" fill-rule="nonzero" fill-opacity="1" /><path clip-path="url(#clip010)" d="M1991.39 63.1548 L1991.39 35.0993 L1999.91 35.0993 L1999.91 107.136 L1991.39 107.136 L1991.39 99.3583 Q1988.71 103.988 1984.59 106.256 Q1980.51 108.479 1974.77 108.479 Q1965.37 108.479 1959.45 100.979 Q1953.57 93.4787 1953.57 81.2565 Q1953.57 69.0344 1959.45 61.5344 Q1965.37 54.0344 1974.77 54.0344 Q1980.51 54.0344 1984.59 56.3029 Q1988.71 58.5251 1991.39 63.1548 M1962.36 81.2565 Q1962.36 90.6546 1966.21 96.0249 Q1970.09 101.349 1976.85 101.349 Q1983.61 101.349 1987.5 96.0249 Q1991.39 90.6546 1991.39 81.2565 Q1991.39 71.8584 1987.5 66.5344 Q1983.61 61.164 1976.85 61.164 Q1970.09 61.164 1966.21 66.5344 Q1962.36 71.8584 1962.36 81.2565 Z" fill="#000000" fill-rule="nonzero" fill-opacity="1" /><path clip-path="url(#clip010)" d="M2042.64 55.2844 L2051.16 55.2844 L2061.81 95.7472 L2072.41 55.2844 L2082.46 55.2844 L2093.1 95.7472 L2103.71 55.2844 L2112.22 55.2844 L2098.66 107.136 L2088.61 107.136 L2077.46 64.6362 L2066.25 107.136 L2056.21 107.136 L2042.64 55.2844 Z" fill="#000000" fill-rule="nonzero" fill-opacity="1" /><path clip-path="url(#clip010)" d="M2145.23 61.2566 Q2138.38 61.2566 2134.4 66.627 Q2130.42 71.951 2130.42 81.2565 Q2130.42 90.562 2134.35 95.9324 Q2138.33 101.256 2145.23 101.256 Q2152.04 101.256 2156.02 95.8861 Q2160 90.5157 2160 81.2565 Q2160 72.0436 2156.02 66.6733 Q2152.04 61.2566 2145.23 61.2566 M2145.23 54.0344 Q2156.34 54.0344 2162.69 61.2566 Q2169.03 68.4788 2169.03 81.2565 Q2169.03 93.9879 2162.69 101.256 Q2156.34 108.479 2145.23 108.479 Q2134.08 108.479 2127.73 101.256 Q2121.44 93.9879 2121.44 81.2565 Q2121.44 68.4788 2127.73 61.2566 Q2134.08 54.0344 2145.23 54.0344 Z" fill="#000000" fill-rule="nonzero" fill-opacity="1" /><path clip-path="url(#clip010)" d="M2213.2 63.2473 Q2211.76 62.414 2210.05 62.0436 Q2208.38 61.627 2206.34 61.627 Q2199.12 61.627 2195.23 66.3492 Q2191.39 71.0251 2191.39 79.8213 L2191.39 107.136 L2182.83 107.136 L2182.83 55.2844 L2191.39 55.2844 L2191.39 63.3399 Q2194.08 58.6177 2198.38 56.3492 Q2202.69 54.0344 2208.84 54.0344 Q2209.72 54.0344 2210.79 54.1733 Q2211.85 54.2659 2213.15 54.4974 L2213.2 63.2473 Z" fill="#000000" fill-rule="nonzero" fill-opacity="1" /><path clip-path="url(#clip010)" d="M2222.13 35.0993 L2230.65 35.0993 L2230.65 107.136 L2222.13 107.136 L2222.13 35.0993 Z" fill="#000000" fill-rule="nonzero" fill-opacity="1" /><path clip-path="url(#clip010)" d="M2282.59 63.1548 L2282.59 35.0993 L2291.11 35.0993 L2291.11 107.136 L2282.59 107.136 L2282.59 99.3583 Q2279.91 103.988 2275.79 106.256 Q2271.71 108.479 2265.97 108.479 Q2256.57 108.479 2250.65 100.979 Q2244.77 93.4787 2244.77 81.2565 Q2244.77 69.0344 2250.65 61.5344 Q2256.57 54.0344 2265.97 54.0344 Q2271.71 54.0344 2275.79 56.3029 Q2279.91 58.5251 2282.59 63.1548 M2253.57 81.2565 Q2253.57 90.6546 2257.41 96.0249 Q2261.3 101.349 2268.06 101.349 Q2274.82 101.349 2278.7 96.0249 Q2282.59 90.6546 2282.59 81.2565 Q2282.59 71.8584 2278.7 66.5344 Q2274.82 61.164 2268.06 61.164 Q2261.3 61.164 2257.41 66.5344 Q2253.57 71.8584 2253.57 81.2565 Z" fill="#000000" fill-rule="nonzero" fill-opacity="1" /><path clip-path="url(#clip010)" d="M2303.7 55.2844 L2312.22 55.2844 L2322.87 95.7472 L2333.47 55.2844 L2343.52 55.2844 L2354.17 95.7472 L2364.77 55.2844 L2373.29 55.2844 L2359.72 107.136 L2349.68 107.136 L2338.52 64.6362 L2327.32 107.136 L2317.27 107.136 L2303.7 55.2844 Z" fill="#000000" fill-rule="nonzero" fill-opacity="1" /><path clip-path="url(#clip010)" d="M2386.2 55.2844 L2394.72 55.2844 L2394.72 107.136 L2386.2 107.136 L2386.2 55.2844 M2386.2 35.0993 L2394.72 35.0993 L2394.72 45.8863 L2386.2 45.8863 L2386.2 35.0993 Z" fill="#000000" fill-rule="nonzero" fill-opacity="1" /><path clip-path="url(#clip010)" d="M2446.67 63.1548 L2446.67 35.0993 L2455.18 35.0993 L2455.18 107.136 L2446.67 107.136 L2446.67 99.3583 Q2443.98 103.988 2439.86 106.256 Q2435.79 108.479 2430.05 108.479 Q2420.65 108.479 2414.72 100.979 Q2408.84 93.4787 2408.84 81.2565 Q2408.84 69.0344 2414.72 61.5344 Q2420.65 54.0344 2430.05 54.0344 Q2435.79 54.0344 2439.86 56.3029 Q2443.98 58.5251 2446.67 63.1548 M2417.64 81.2565 Q2417.64 90.6546 2421.48 96.0249 Q2425.37 101.349 2432.13 101.349 Q2438.89 101.349 2442.78 96.0249 Q2446.67 90.6546 2446.67 81.2565 Q2446.67 71.8584 2442.78 66.5344 Q2438.89 61.164 2432.13 61.164 Q2425.37 61.164 2421.48 66.5344 Q2417.64 71.8584 2417.64 81.2565 Z" fill="#000000" fill-rule="nonzero" fill-opacity="1" /><path clip-path="url(#clip010)" d="M2517.08 79.0806 L2517.08 83.2472 L2477.92 83.2472 Q2478.47 92.0435 2483.19 96.6731 Q2487.96 101.256 2496.43 101.256 Q2501.34 101.256 2505.93 100.053 Q2510.55 98.849 2515.09 96.4416 L2515.09 104.497 Q2510.51 106.442 2505.69 107.46 Q2500.88 108.479 2495.93 108.479 Q2483.52 108.479 2476.25 101.256 Q2469.03 94.0342 2469.03 81.7195 Q2469.03 68.9881 2475.88 61.5344 Q2482.78 54.0344 2494.44 54.0344 Q2504.91 54.0344 2510.97 60.7937 Q2517.08 67.5066 2517.08 79.0806 M2508.56 76.5806 Q2508.47 69.5899 2504.63 65.4233 Q2500.83 61.2566 2494.54 61.2566 Q2487.41 61.2566 2483.1 65.2844 Q2478.84 69.3121 2478.19 76.6269 L2508.56 76.5806 Z" fill="#000000" fill-rule="nonzero" fill-opacity="1" /><path clip-path="url(#clip010)" d="M2561.2 55.2844 L2569.72 55.2844 L2569.72 107.136 L2561.2 107.136 L2561.2 55.2844 M2561.2 35.0993 L2569.72 35.0993 L2569.72 45.8863 L2561.2 45.8863 L2561.2 35.0993 Z" fill="#000000" fill-rule="nonzero" fill-opacity="1" /><path clip-path="url(#clip010)" d="M2630.65 75.8399 L2630.65 107.136 L2622.13 107.136 L2622.13 76.1176 Q2622.13 68.7566 2619.26 65.0992 Q2616.39 61.4418 2610.65 61.4418 Q2603.75 61.4418 2599.77 65.8399 Q2595.79 70.238 2595.79 77.8306 L2595.79 107.136 L2587.22 107.136 L2587.22 55.2844 L2595.79 55.2844 L2595.79 63.3399 Q2598.84 58.664 2602.96 56.3492 Q2607.13 54.0344 2612.55 54.0344 Q2621.48 54.0344 2626.06 59.59 Q2630.65 65.0992 2630.65 75.8399 Z" fill="#000000" fill-rule="nonzero" fill-opacity="1" /><path clip-path="url(#clip010)" d="M2687.04 99.2657 L2719.67 99.2657 L2719.67 107.136 L2675.79 107.136 L2675.79 99.2657 Q2681.11 93.7564 2690.28 84.4972 Q2699.49 75.1917 2701.85 72.5066 Q2706.34 67.4603 2708.1 63.9881 Q2709.91 60.4696 2709.91 57.09 Q2709.91 51.5807 2706.02 48.1085 Q2702.17 44.6363 2695.97 44.6363 Q2691.57 44.6363 2686.67 46.1641 Q2681.8 47.6919 2676.25 50.7937 L2676.25 41.3493 Q2681.9 39.0808 2686.8 37.9234 Q2691.71 36.766 2695.79 36.766 Q2706.53 36.766 2712.91 42.1363 Q2719.3 47.5067 2719.3 56.4881 Q2719.3 60.7474 2717.68 64.5899 Q2716.11 68.3862 2711.9 73.5714 Q2710.74 74.914 2704.54 81.3491 Q2698.33 87.738 2687.04 99.2657 Z" fill="#000000" fill-rule="nonzero" fill-opacity="1" /><path clip-path="url(#clip010)" d="M2759.3 44.1734 Q2752.08 44.1734 2748.42 51.303 Q2744.81 58.3863 2744.81 72.6454 Q2744.81 86.8583 2748.42 93.9879 Q2752.08 101.071 2759.3 101.071 Q2766.57 101.071 2770.18 93.9879 Q2773.84 86.8583 2773.84 72.6454 Q2773.84 58.3863 2770.18 51.303 Q2766.57 44.1734 2759.3 44.1734 M2759.3 36.766 Q2770.92 36.766 2777.04 45.9789 Q2783.19 55.1455 2783.19 72.6454 Q2783.19 90.0991 2777.04 99.312 Q2770.92 108.479 2759.3 108.479 Q2747.68 108.479 2741.53 99.312 Q2735.41 90.0991 2735.41 72.6454 Q2735.41 55.1455 2741.53 45.9789 Q2747.68 36.766 2759.3 36.766 Z" fill="#000000" fill-rule="nonzero" fill-opacity="1" /><path clip-path="url(#clip010)" d="M2801.25 99.2657 L2816.53 99.2657 L2816.53 46.5345 L2799.91 49.8678 L2799.91 41.3493 L2816.43 38.016 L2825.78 38.016 L2825.78 99.2657 L2841.06 99.2657 L2841.06 107.136 L2801.25 107.136 L2801.25 99.2657 Z" fill="#000000" fill-rule="nonzero" fill-opacity="1" /><path clip-path="url(#clip010)" d="M2860.23 105.701 L2860.23 97.1823 Q2863.75 98.849 2867.36 99.7286 Q2870.97 100.608 2874.44 100.608 Q2883.7 100.608 2888.56 94.4046 Q2893.47 88.1546 2894.16 75.4695 Q2891.48 79.451 2887.36 81.5806 Q2883.24 83.7102 2878.24 83.7102 Q2867.87 83.7102 2861.8 77.4602 Q2855.78 71.164 2855.78 60.2844 Q2855.78 49.6363 2862.08 43.2012 Q2868.38 36.766 2878.84 36.766 Q2890.83 36.766 2897.13 45.9789 Q2903.47 55.1455 2903.47 72.6454 Q2903.47 88.9879 2895.69 98.7564 Q2887.96 108.479 2874.86 108.479 Q2871.34 108.479 2867.73 107.784 Q2864.12 107.09 2860.23 105.701 M2878.84 76.3954 Q2885.14 76.3954 2888.79 72.0899 Q2892.5 67.7844 2892.5 60.2844 Q2892.5 52.8307 2888.79 48.5252 Q2885.14 44.1734 2878.84 44.1734 Q2872.54 44.1734 2868.84 48.5252 Q2865.18 52.8307 2865.18 60.2844 Q2865.18 67.7844 2868.84 72.0899 Q2872.54 76.3954 2878.84 76.3954 Z" fill="#000000" fill-rule="nonzero" fill-opacity="1" /><path clip-path="url(#clip010)" d="M2921.25 95.3768 L2931.02 95.3768 L2931.02 103.34 L2923.42 118.154 L2917.45 118.154 L2921.25 103.34 L2921.25 95.3768 Z" fill="#000000" fill-rule="nonzero" fill-opacity="1" /><path clip-path="url(#clip010)" d="M3016.57 81.2565 Q3016.57 71.8584 3012.68 66.5344 Q3008.84 61.164 3002.08 61.164 Q2995.32 61.164 2991.43 66.5344 Q2987.59 71.8584 2987.59 81.2565 Q2987.59 90.6546 2991.43 96.0249 Q2995.32 101.349 3002.08 101.349 Q3008.84 101.349 3012.68 96.0249 Q3016.57 90.6546 3016.57 81.2565 M2987.59 63.1548 Q2990.27 58.5251 2994.35 56.3029 Q2998.47 54.0344 3004.16 54.0344 Q3013.61 54.0344 3019.49 61.5344 Q3025.41 69.0344 3025.41 81.2565 Q3025.41 93.4787 3019.49 100.979 Q3013.61 108.479 3004.16 108.479 Q2998.47 108.479 2994.35 106.256 Q2990.27 103.988 2987.59 99.3583 L2987.59 107.136 L2979.02 107.136 L2979.02 35.0993 L2987.59 35.0993 L2987.59 63.1548 Z" fill="#000000" fill-rule="nonzero" fill-opacity="1" /><path clip-path="url(#clip010)" d="M3061.11 111.951 Q3057.5 121.21 3054.07 124.034 Q3050.64 126.858 3044.9 126.858 L3038.1 126.858 L3038.1 119.729 L3043.1 119.729 Q3046.62 119.729 3048.56 118.062 Q3050.51 116.395 3052.87 110.192 L3054.39 106.303 L3033.42 55.2844 L3042.45 55.2844 L3058.65 95.8398 L3074.86 55.2844 L3083.89 55.2844 L3061.11 111.951 Z" fill="#000000" fill-rule="nonzero" fill-opacity="1" /><path clip-path="url(#clip010)" d="M3158.84 56.8122 L3158.84 64.8677 Q3155.23 63.0159 3151.34 62.0899 Q3147.45 61.164 3143.28 61.164 Q3136.94 61.164 3133.75 63.1085 Q3130.6 65.0529 3130.6 68.9418 Q3130.6 71.9047 3132.87 73.6177 Q3135.13 75.2843 3141.99 76.8121 L3144.9 77.4602 Q3153.98 79.4047 3157.77 82.9695 Q3161.62 86.488 3161.62 92.8305 Q3161.62 100.053 3155.88 104.266 Q3150.18 108.479 3140.18 108.479 Q3136.01 108.479 3131.48 107.645 Q3126.99 106.858 3121.99 105.238 L3121.99 96.4416 Q3126.71 98.8953 3131.29 100.145 Q3135.88 101.349 3140.37 101.349 Q3146.38 101.349 3149.63 99.312 Q3152.87 97.2286 3152.87 93.4787 Q3152.87 90.0065 3150.51 88.1546 Q3148.19 86.3028 3140.27 84.5898 L3137.31 83.8954 Q3129.39 82.2287 3125.88 78.8028 Q3122.36 75.3306 3122.36 69.3121 Q3122.36 61.9974 3127.54 58.0159 Q3132.73 54.0344 3142.26 54.0344 Q3146.99 54.0344 3151.15 54.7289 Q3155.32 55.4233 3158.84 56.8122 Z" fill="#000000" fill-rule="nonzero" fill-opacity="1" /><path clip-path="url(#clip010)" d="M3219.53 79.0806 L3219.53 83.2472 L3180.37 83.2472 Q3180.92 92.0435 3185.64 96.6731 Q3190.41 101.256 3198.88 101.256 Q3203.79 101.256 3208.38 100.053 Q3213 98.849 3217.54 96.4416 L3217.54 104.497 Q3212.96 106.442 3208.14 107.46 Q3203.33 108.479 3198.38 108.479 Q3185.97 108.479 3178.7 101.256 Q3171.48 94.0342 3171.48 81.7195 Q3171.48 68.9881 3178.33 61.5344 Q3185.23 54.0344 3196.89 54.0344 Q3207.36 54.0344 3213.42 60.7937 Q3219.53 67.5066 3219.53 79.0806 M3211.01 76.5806 Q3210.92 69.5899 3207.08 65.4233 Q3203.28 61.2566 3196.99 61.2566 Q3189.86 61.2566 3185.55 65.2844 Q3181.29 69.3121 3180.64 76.6269 L3211.01 76.5806 Z" fill="#000000" fill-rule="nonzero" fill-opacity="1" /><path clip-path="url(#clip010)" d="M3270.83 57.2752 L3270.83 65.2381 Q3267.22 63.2473 3263.56 62.2751 Q3259.95 61.2566 3256.25 61.2566 Q3247.96 61.2566 3243.38 66.5344 Q3238.79 71.7658 3238.79 81.2565 Q3238.79 90.7472 3243.38 96.0249 Q3247.96 101.256 3256.25 101.256 Q3259.95 101.256 3263.56 100.284 Q3267.22 99.2657 3270.83 97.2749 L3270.83 105.145 Q3267.26 106.812 3263.42 107.645 Q3259.63 108.479 3255.32 108.479 Q3243.61 108.479 3236.71 101.118 Q3229.81 93.7564 3229.81 81.2565 Q3229.81 68.5714 3236.75 61.3029 Q3243.75 54.0344 3255.88 54.0344 Q3259.81 54.0344 3263.56 54.8678 Q3267.31 55.6548 3270.83 57.2752 Z" fill="#000000" fill-rule="nonzero" fill-opacity="1" /><path clip-path="url(#clip010)" d="M3294.07 40.5623 L3294.07 55.2844 L3311.62 55.2844 L3311.62 61.9048 L3294.07 61.9048 L3294.07 90.0528 Q3294.07 96.3953 3295.78 98.2009 Q3297.54 100.006 3302.87 100.006 L3311.62 100.006 L3311.62 107.136 L3302.87 107.136 Q3293 107.136 3289.25 103.479 Q3285.5 99.7749 3285.5 90.0528 L3285.5 61.9048 L3279.25 61.9048 L3279.25 55.2844 L3285.5 55.2844 L3285.5 40.5623 L3294.07 40.5623 Z" fill="#000000" fill-rule="nonzero" fill-opacity="1" /><path clip-path="url(#clip010)" d="M3342.91 61.2566 Q3336.06 61.2566 3332.08 66.627 Q3328.1 71.951 3328.1 81.2565 Q3328.1 90.562 3332.03 95.9324 Q3336.01 101.256 3342.91 101.256 Q3349.72 101.256 3353.7 95.8861 Q3357.68 90.5157 3357.68 81.2565 Q3357.68 72.0436 3353.7 66.6733 Q3349.72 61.2566 3342.91 61.2566 M3342.91 54.0344 Q3354.02 54.0344 3360.37 61.2566 Q3366.71 68.4788 3366.71 81.2565 Q3366.71 93.9879 3360.37 101.256 Q3354.02 108.479 3342.91 108.479 Q3331.75 108.479 3325.41 101.256 Q3319.12 93.9879 3319.12 81.2565 Q3319.12 68.4788 3325.41 61.2566 Q3331.75 54.0344 3342.91 54.0344 Z" fill="#000000" fill-rule="nonzero" fill-opacity="1" /><path clip-path="url(#clip010)" d="M3410.87 63.2473 Q3409.44 62.414 3407.73 62.0436 Q3406.06 61.627 3404.02 61.627 Q3396.8 61.627 3392.91 66.3492 Q3389.07 71.0251 3389.07 79.8213 L3389.07 107.136 L3380.5 107.136 L3380.5 55.2844 L3389.07 55.2844 L3389.07 63.3399 Q3391.75 58.6177 3396.06 56.3492 Q3400.37 54.0344 3406.52 54.0344 Q3407.4 54.0344 3408.47 54.1733 Q3409.53 54.2659 3410.83 54.4974 L3410.87 63.2473 Z" fill="#000000" fill-rule="nonzero" fill-opacity="1" /><path clip-path="url(#clip010)" d="M1517.09 149.381 L1517.09 203.131 L1528.38 203.131 Q1542.69 203.131 1549.31 196.649 Q1555.98 190.168 1555.98 176.187 Q1555.98 162.298 1549.31 155.863 Q1542.69 149.381 1528.38 149.381 L1517.09 149.381 M1507.74 141.696 L1526.95 141.696 Q1547.04 141.696 1556.44 150.076 Q1565.84 158.409 1565.84 176.187 Q1565.84 194.057 1556.39 202.436 Q1546.95 210.816 1526.95 210.816 L1507.74 210.816 L1507.74 141.696 Z" fill="#000000" fill-rule="nonzero" fill-opacity="1" /><path clip-path="url(#clip010)" d="M1603.94 184.751 Q1593.62 184.751 1589.63 187.112 Q1585.65 189.474 1585.65 195.168 Q1585.65 199.705 1588.62 202.39 Q1591.62 205.029 1596.76 205.029 Q1603.85 205.029 1608.11 200.029 Q1612.41 194.983 1612.41 186.649 L1612.41 184.751 L1603.94 184.751 M1620.93 181.233 L1620.93 210.816 L1612.41 210.816 L1612.41 202.946 Q1609.49 207.668 1605.14 209.936 Q1600.79 212.159 1594.5 212.159 Q1586.53 212.159 1581.81 207.714 Q1577.13 203.223 1577.13 195.723 Q1577.13 186.974 1582.97 182.529 Q1588.85 178.085 1600.47 178.085 L1612.41 178.085 L1612.41 177.251 Q1612.41 171.372 1608.52 168.177 Q1604.68 164.937 1597.69 164.937 Q1593.25 164.937 1589.03 166.001 Q1584.82 167.066 1580.93 169.196 L1580.93 161.326 Q1585.61 159.52 1590 158.64 Q1594.4 157.714 1598.57 157.714 Q1609.82 157.714 1615.37 163.548 Q1620.93 169.381 1620.93 181.233 Z" fill="#000000" fill-rule="nonzero" fill-opacity="1" /><path clip-path="url(#clip010)" d="M1646.9 144.242 L1646.9 158.964 L1664.45 158.964 L1664.45 165.585 L1646.9 165.585 L1646.9 193.733 Q1646.9 200.075 1648.62 201.881 Q1650.37 203.686 1655.7 203.686 L1664.45 203.686 L1664.45 210.816 L1655.7 210.816 Q1645.84 210.816 1642.09 207.159 Q1638.34 203.455 1638.34 193.733 L1638.34 165.585 L1632.09 165.585 L1632.09 158.964 L1638.34 158.964 L1638.34 144.242 L1646.9 144.242 Z" fill="#000000" fill-rule="nonzero" fill-opacity="1" /><path clip-path="url(#clip010)" d="M1699.22 184.751 Q1688.89 184.751 1684.91 187.112 Q1680.93 189.474 1680.93 195.168 Q1680.93 199.705 1683.89 202.39 Q1686.9 205.029 1692.04 205.029 Q1699.12 205.029 1703.38 200.029 Q1707.69 194.983 1707.69 186.649 L1707.69 184.751 L1699.22 184.751 M1716.21 181.233 L1716.21 210.816 L1707.69 210.816 L1707.69 202.946 Q1704.77 207.668 1700.42 209.936 Q1696.07 212.159 1689.77 212.159 Q1681.81 212.159 1677.09 207.714 Q1672.41 203.223 1672.41 195.723 Q1672.41 186.974 1678.24 182.529 Q1684.12 178.085 1695.74 178.085 L1707.69 178.085 L1707.69 177.251 Q1707.69 171.372 1703.8 168.177 Q1699.96 164.937 1692.97 164.937 Q1688.52 164.937 1684.31 166.001 Q1680.1 167.066 1676.21 169.196 L1676.21 161.326 Q1680.88 159.52 1685.28 158.64 Q1689.68 157.714 1693.85 157.714 Q1705.1 157.714 1710.65 163.548 Q1716.21 169.381 1716.21 181.233 Z" fill="#000000" fill-rule="nonzero" fill-opacity="1" /><path clip-path="url(#clip010)" d="M1772.13 203.038 L1772.13 230.538 L1763.57 230.538 L1763.57 158.964 L1772.13 158.964 L1772.13 166.835 Q1774.82 162.205 1778.89 159.983 Q1783.01 157.714 1788.71 157.714 Q1798.15 157.714 1804.03 165.214 Q1809.96 172.714 1809.96 184.937 Q1809.96 197.159 1804.03 204.659 Q1798.15 212.159 1788.71 212.159 Q1783.01 212.159 1778.89 209.936 Q1774.82 207.668 1772.13 203.038 M1801.11 184.937 Q1801.11 175.538 1797.23 170.214 Q1793.38 164.844 1786.62 164.844 Q1779.86 164.844 1775.98 170.214 Q1772.13 175.538 1772.13 184.937 Q1772.13 194.335 1775.98 199.705 Q1779.86 205.029 1786.62 205.029 Q1793.38 205.029 1797.23 199.705 Q1801.11 194.335 1801.11 184.937 Z" fill="#000000" fill-rule="nonzero" fill-opacity="1" /><path clip-path="url(#clip010)" d="M1854.12 166.927 Q1852.69 166.094 1850.98 165.724 Q1849.31 165.307 1847.27 165.307 Q1840.05 165.307 1836.16 170.029 Q1832.32 174.705 1832.32 183.501 L1832.32 210.816 L1823.75 210.816 L1823.75 158.964 L1832.32 158.964 L1832.32 167.02 Q1835 162.298 1839.31 160.029 Q1843.61 157.714 1849.77 157.714 Q1850.65 157.714 1851.72 157.853 Q1852.78 157.946 1854.08 158.177 L1854.12 166.927 Z" fill="#000000" fill-rule="nonzero" fill-opacity="1" /><path clip-path="url(#clip010)" d="M1881.07 164.937 Q1874.22 164.937 1870.23 170.307 Q1866.25 175.631 1866.25 184.937 Q1866.25 194.242 1870.19 199.612 Q1874.17 204.936 1881.07 204.936 Q1887.87 204.936 1891.85 199.566 Q1895.84 194.196 1895.84 184.937 Q1895.84 175.724 1891.85 170.353 Q1887.87 164.937 1881.07 164.937 M1881.07 157.714 Q1892.18 157.714 1898.52 164.937 Q1904.86 172.159 1904.86 184.937 Q1904.86 197.668 1898.52 204.936 Q1892.18 212.159 1881.07 212.159 Q1869.91 212.159 1863.57 204.936 Q1857.27 197.668 1857.27 184.937 Q1857.27 172.159 1863.57 164.937 Q1869.91 157.714 1881.07 157.714 Z" fill="#000000" fill-rule="nonzero" fill-opacity="1" /><path clip-path="url(#clip010)" d="M1912.87 158.964 L1921.9 158.964 L1938.1 202.483 L1954.31 158.964 L1963.34 158.964 L1943.89 210.816 L1932.32 210.816 L1912.87 158.964 Z" fill="#000000" fill-rule="nonzero" fill-opacity="1" /><path clip-path="url(#clip010)" d="M1975.09 158.964 L1983.61 158.964 L1983.61 210.816 L1975.09 210.816 L1975.09 158.964 M1975.09 138.779 L1983.61 138.779 L1983.61 149.566 L1975.09 149.566 L1975.09 138.779 Z" fill="#000000" fill-rule="nonzero" fill-opacity="1" /><path clip-path="url(#clip010)" d="M2035.56 166.835 L2035.56 138.779 L2044.08 138.779 L2044.08 210.816 L2035.56 210.816 L2035.56 203.038 Q2032.87 207.668 2028.75 209.936 Q2024.68 212.159 2018.94 212.159 Q2009.54 212.159 2003.61 204.659 Q1997.73 197.159 1997.73 184.937 Q1997.73 172.714 2003.61 165.214 Q2009.54 157.714 2018.94 157.714 Q2024.68 157.714 2028.75 159.983 Q2032.87 162.205 2035.56 166.835 M2006.53 184.937 Q2006.53 194.335 2010.37 199.705 Q2014.26 205.029 2021.02 205.029 Q2027.78 205.029 2031.67 199.705 Q2035.56 194.335 2035.56 184.937 Q2035.56 175.538 2031.67 170.214 Q2027.78 164.844 2021.02 164.844 Q2014.26 164.844 2010.37 170.214 Q2006.53 175.538 2006.53 184.937 Z" fill="#000000" fill-rule="nonzero" fill-opacity="1" /><path clip-path="url(#clip010)" d="M2105.97 182.761 L2105.97 186.927 L2066.81 186.927 Q2067.36 195.723 2072.09 200.353 Q2076.85 204.936 2085.33 204.936 Q2090.23 204.936 2094.82 203.733 Q2099.45 202.529 2103.98 200.122 L2103.98 208.177 Q2099.4 210.122 2094.58 211.14 Q2089.77 212.159 2084.82 212.159 Q2072.41 212.159 2065.14 204.936 Q2057.92 197.714 2057.92 185.399 Q2057.92 172.668 2064.77 165.214 Q2071.67 157.714 2083.34 157.714 Q2093.8 157.714 2099.86 164.474 Q2105.97 171.187 2105.97 182.761 M2097.46 180.261 Q2097.36 173.27 2093.52 169.103 Q2089.72 164.937 2083.43 164.937 Q2076.3 164.937 2071.99 168.964 Q2067.73 172.992 2067.09 180.307 L2097.46 180.261 Z" fill="#000000" fill-rule="nonzero" fill-opacity="1" /><path clip-path="url(#clip010)" d="M2154.08 166.835 L2154.08 138.779 L2162.59 138.779 L2162.59 210.816 L2154.08 210.816 L2154.08 203.038 Q2151.39 207.668 2147.27 209.936 Q2143.2 212.159 2137.46 212.159 Q2128.06 212.159 2122.13 204.659 Q2116.25 197.159 2116.25 184.937 Q2116.25 172.714 2122.13 165.214 Q2128.06 157.714 2137.46 157.714 Q2143.2 157.714 2147.27 159.983 Q2151.39 162.205 2154.08 166.835 M2125.05 184.937 Q2125.05 194.335 2128.89 199.705 Q2132.78 205.029 2139.54 205.029 Q2146.3 205.029 2150.19 199.705 Q2154.08 194.335 2154.08 184.937 Q2154.08 175.538 2150.19 170.214 Q2146.3 164.844 2139.54 164.844 Q2132.78 164.844 2128.89 170.214 Q2125.05 175.538 2125.05 184.937 Z" fill="#000000" fill-rule="nonzero" fill-opacity="1" /><path clip-path="url(#clip010)" d="M2247.5 184.937 Q2247.5 175.538 2243.61 170.214 Q2239.77 164.844 2233.01 164.844 Q2226.25 164.844 2222.36 170.214 Q2218.52 175.538 2218.52 184.937 Q2218.52 194.335 2222.36 199.705 Q2226.25 205.029 2233.01 205.029 Q2239.77 205.029 2243.61 199.705 Q2247.5 194.335 2247.5 184.937 M2218.52 166.835 Q2221.2 162.205 2225.28 159.983 Q2229.4 157.714 2235.09 157.714 Q2244.54 157.714 2250.42 165.214 Q2256.34 172.714 2256.34 184.937 Q2256.34 197.159 2250.42 204.659 Q2244.54 212.159 2235.09 212.159 Q2229.4 212.159 2225.28 209.936 Q2221.2 207.668 2218.52 203.038 L2218.52 210.816 L2209.95 210.816 L2209.95 138.779 L2218.52 138.779 L2218.52 166.835 Z" fill="#000000" fill-rule="nonzero" fill-opacity="1" /><path clip-path="url(#clip010)" d="M2292.04 215.631 Q2288.43 224.89 2285 227.714 Q2281.57 230.538 2275.83 230.538 L2269.03 230.538 L2269.03 223.409 L2274.03 223.409 Q2277.55 223.409 2279.49 221.742 Q2281.44 220.075 2283.8 213.872 L2285.32 209.983 L2264.35 158.964 L2273.38 158.964 L2289.58 199.52 L2305.79 158.964 L2314.82 158.964 L2292.04 215.631 Z" fill="#000000" fill-rule="nonzero" fill-opacity="1" /><path clip-path="url(#clip010)" d="M2398.52 143.965 L2398.52 153.085 Q2393.19 150.539 2388.47 149.289 Q2383.75 148.039 2379.35 148.039 Q2371.71 148.039 2367.55 151.002 Q2363.43 153.964 2363.43 159.427 Q2363.43 164.011 2366.16 166.372 Q2368.94 168.687 2376.62 170.122 L2382.27 171.279 Q2392.73 173.27 2397.69 178.316 Q2402.69 183.316 2402.69 191.742 Q2402.69 201.788 2395.93 206.973 Q2389.21 212.159 2376.2 212.159 Q2371.3 212.159 2365.74 211.047 Q2360.23 209.936 2354.31 207.76 L2354.31 198.131 Q2360 201.325 2365.46 202.946 Q2370.93 204.566 2376.2 204.566 Q2384.21 204.566 2388.56 201.418 Q2392.92 198.27 2392.92 192.436 Q2392.92 187.344 2389.77 184.474 Q2386.67 181.603 2379.54 180.168 L2373.84 179.057 Q2363.38 176.974 2358.7 172.529 Q2354.03 168.085 2354.03 160.168 Q2354.03 151.002 2360.46 145.724 Q2366.94 140.446 2378.29 140.446 Q2383.15 140.446 2388.19 141.326 Q2393.24 142.205 2398.52 143.965 Z" fill="#000000" fill-rule="nonzero" fill-opacity="1" /><path clip-path="url(#clip010)" d="M2425.32 144.242 L2425.32 158.964 L2442.87 158.964 L2442.87 165.585 L2425.32 165.585 L2425.32 193.733 Q2425.32 200.075 2427.04 201.881 Q2428.8 203.686 2434.12 203.686 L2442.87 203.686 L2442.87 210.816 L2434.12 210.816 Q2424.26 210.816 2420.51 207.159 Q2416.76 203.455 2416.76 193.733 L2416.76 165.585 L2410.51 165.585 L2410.51 158.964 L2416.76 158.964 L2416.76 144.242 L2425.32 144.242 Z" fill="#000000" fill-rule="nonzero" fill-opacity="1" /><path clip-path="url(#clip010)" d="M2477.64 184.751 Q2467.31 184.751 2463.33 187.112 Q2459.35 189.474 2459.35 195.168 Q2459.35 199.705 2462.31 202.39 Q2465.32 205.029 2470.46 205.029 Q2477.55 205.029 2481.81 200.029 Q2486.11 194.983 2486.11 186.649 L2486.11 184.751 L2477.64 184.751 M2494.63 181.233 L2494.63 210.816 L2486.11 210.816 L2486.11 202.946 Q2483.19 207.668 2478.84 209.936 Q2474.49 212.159 2468.19 212.159 Q2460.23 212.159 2455.51 207.714 Q2450.83 203.223 2450.83 195.723 Q2450.83 186.974 2456.67 182.529 Q2462.55 178.085 2474.17 178.085 L2486.11 178.085 L2486.11 177.251 Q2486.11 171.372 2482.22 168.177 Q2478.38 164.937 2471.39 164.937 Q2466.94 164.937 2462.73 166.001 Q2458.52 167.066 2454.63 169.196 L2454.63 161.326 Q2459.31 159.52 2463.7 158.64 Q2468.1 157.714 2472.27 157.714 Q2483.52 157.714 2489.07 163.548 Q2494.63 169.381 2494.63 181.233 Z" fill="#000000" fill-rule="nonzero" fill-opacity="1" /><path clip-path="url(#clip010)" d="M2520.6 144.242 L2520.6 158.964 L2538.15 158.964 L2538.15 165.585 L2520.6 165.585 L2520.6 193.733 Q2520.6 200.075 2522.31 201.881 Q2524.07 203.686 2529.4 203.686 L2538.15 203.686 L2538.15 210.816 L2529.4 210.816 Q2519.54 210.816 2515.79 207.159 Q2512.04 203.455 2512.04 193.733 L2512.04 165.585 L2505.79 165.585 L2505.79 158.964 L2512.04 158.964 L2512.04 144.242 L2520.6 144.242 Z" fill="#000000" fill-rule="nonzero" fill-opacity="1" /><path clip-path="url(#clip010)" d="M2549.35 158.964 L2557.87 158.964 L2557.87 210.816 L2549.35 210.816 L2549.35 158.964 M2549.35 138.779 L2557.87 138.779 L2557.87 149.566 L2549.35 149.566 L2549.35 138.779 Z" fill="#000000" fill-rule="nonzero" fill-opacity="1" /><path clip-path="url(#clip010)" d="M2608.75 160.492 L2608.75 168.548 Q2605.14 166.696 2601.25 165.77 Q2597.36 164.844 2593.19 164.844 Q2586.85 164.844 2583.66 166.788 Q2580.51 168.733 2580.51 172.622 Q2580.51 175.585 2582.78 177.298 Q2585.05 178.964 2591.9 180.492 L2594.81 181.14 Q2603.89 183.085 2607.68 186.649 Q2611.53 190.168 2611.53 196.511 Q2611.53 203.733 2605.79 207.946 Q2600.09 212.159 2590.09 212.159 Q2585.92 212.159 2581.39 211.325 Q2576.9 210.538 2571.9 208.918 L2571.9 200.122 Q2576.62 202.575 2581.2 203.825 Q2585.79 205.029 2590.28 205.029 Q2596.3 205.029 2599.54 202.992 Q2602.78 200.909 2602.78 197.159 Q2602.78 193.686 2600.42 191.835 Q2598.1 189.983 2590.18 188.27 L2587.22 187.575 Q2579.3 185.909 2575.79 182.483 Q2572.27 179.011 2572.27 172.992 Q2572.27 165.677 2577.45 161.696 Q2582.64 157.714 2592.17 157.714 Q2596.9 157.714 2601.06 158.409 Q2605.23 159.103 2608.75 160.492 Z" fill="#000000" fill-rule="nonzero" fill-opacity="1" /><path clip-path="url(#clip010)" d="M2633.52 144.242 L2633.52 158.964 L2651.06 158.964 L2651.06 165.585 L2633.52 165.585 L2633.52 193.733 Q2633.52 200.075 2635.23 201.881 Q2636.99 203.686 2642.31 203.686 L2651.06 203.686 L2651.06 210.816 L2642.31 210.816 Q2632.45 210.816 2628.7 207.159 Q2624.95 203.455 2624.95 193.733 L2624.95 165.585 L2618.7 165.585 L2618.7 158.964 L2624.95 158.964 L2624.95 144.242 L2633.52 144.242 Z" fill="#000000" fill-rule="nonzero" fill-opacity="1" /><path clip-path="url(#clip010)" d="M2685.83 184.751 Q2675.51 184.751 2671.53 187.112 Q2667.54 189.474 2667.54 195.168 Q2667.54 199.705 2670.51 202.39 Q2673.52 205.029 2678.66 205.029 Q2685.74 205.029 2690 200.029 Q2694.3 194.983 2694.3 186.649 L2694.3 184.751 L2685.83 184.751 M2702.82 181.233 L2702.82 210.816 L2694.3 210.816 L2694.3 202.946 Q2691.39 207.668 2687.04 209.936 Q2682.68 212.159 2676.39 212.159 Q2668.42 212.159 2663.7 207.714 Q2659.03 203.223 2659.03 195.723 Q2659.03 186.974 2664.86 182.529 Q2670.74 178.085 2682.36 178.085 L2694.3 178.085 L2694.3 177.251 Q2694.3 171.372 2690.42 168.177 Q2686.57 164.937 2679.58 164.937 Q2675.14 164.937 2670.92 166.001 Q2666.71 167.066 2662.82 169.196 L2662.82 161.326 Q2667.5 159.52 2671.9 158.64 Q2676.29 157.714 2680.46 157.714 Q2691.71 157.714 2697.27 163.548 Q2702.82 169.381 2702.82 181.233 Z" fill="#000000" fill-rule="nonzero" fill-opacity="1" /><path clip-path="url(#clip012)" d="M3469.71 2130.7 L701.408 2130.7 L701.408 1750.04 L3469.71 1750.04 L3469.71 2130.7 L3469.71 2130.7  Z" fill="#e36f47" fill-rule="evenodd" fill-opacity="1"/>
<polyline clip-path="url(#clip012)" style="stroke:#000000; stroke-linecap:round; stroke-linejoin:round; stroke-width:4; stroke-opacity:1; fill:none" points="3469.71,2130.7 701.408,2130.7 701.408,1750.04 3469.71,1750.04 3469.71,2130.7 "/>
<path clip-path="url(#clip012)" d="M1052.28 1654.87 L701.408 1654.87 L701.408 1274.21 L1052.28 1274.21 L1052.28 1654.87 L1052.28 1654.87  Z" fill="#009afa" fill-rule="evenodd" fill-opacity="1"/>
<polyline clip-path="url(#clip012)" style="stroke:#000000; stroke-linecap:round; stroke-linejoin:round; stroke-width:4; stroke-opacity:1; fill:none" points="1052.28,1654.87 701.408,1654.87 701.408,1274.21 1052.28,1274.21 1052.28,1654.87 "/>
<path clip-path="url(#clip012)" d="M1426.93 1179.05 L701.408 1179.05 L701.408 798.39 L1426.93 798.39 L1426.93 1179.05 L1426.93 1179.05  Z" fill="#009afa" fill-rule="evenodd" fill-opacity="1"/>
<polyline clip-path="url(#clip012)" style="stroke:#000000; stroke-linecap:round; stroke-linejoin:round; stroke-width:4; stroke-opacity:1; fill:none" points="1426.93,1179.05 701.408,1179.05 701.408,798.39 1426.93,798.39 1426.93,1179.05 "/>
<path clip-path="url(#clip012)" d="M2393.31 703.226 L701.408 703.226 L701.408 322.567 L2393.31 322.567 L2393.31 703.226 L2393.31 703.226  Z" fill="#009afa" fill-rule="evenodd" fill-opacity="1"/>
<polyline clip-path="url(#clip012)" style="stroke:#000000; stroke-linecap:round; stroke-linejoin:round; stroke-width:4; stroke-opacity:1; fill:none" points="2393.31,703.226 701.408,703.226 701.408,322.567 2393.31,322.567 2393.31,703.226 "/>
<circle clip-path="url(#clip012)" style="fill:#009af9; stroke:none; fill-opacity:0" cx="1296.1" cy="201.232" r="2"/>
<circle clip-path="url(#clip012)" style="fill:#009af9; stroke:none; fill-opacity:0" cx="1890.8" cy="2135.45" r="2"/>
<circle clip-path="url(#clip012)" style="fill:#009af9; stroke:none; fill-opacity:0" cx="2485.49" cy="1835.69" r="2"/>
<circle clip-path="url(#clip012)" style="fill:#009af9; stroke:none; fill-opacity:0" cx="3080.18" cy="1062.47" r="2"/>
<path clip-path="url(#clip010)" d="M2018.2 1969.35 L2018.2 1961.9 Q2021.28 1963.36 2024.44 1964.13 Q2027.6 1964.89 2030.64 1964.89 Q2038.74 1964.89 2042.99 1959.47 Q2047.28 1954 2047.89 1942.9 Q2045.54 1946.38 2041.94 1948.25 Q2038.33 1950.11 2033.96 1950.11 Q2024.88 1950.11 2019.58 1944.64 Q2014.31 1939.13 2014.31 1929.61 Q2014.31 1920.29 2019.82 1914.66 Q2025.33 1909.03 2034.48 1909.03 Q2044.98 1909.03 2050.48 1917.09 Q2056.03 1925.11 2056.03 1940.43 Q2056.03 1954.73 2049.23 1963.27 Q2042.46 1971.78 2031 1971.78 Q2027.92 1971.78 2024.76 1971.17 Q2021.6 1970.57 2018.2 1969.35 M2034.48 1943.71 Q2039.99 1943.71 2043.19 1939.94 Q2046.43 1936.17 2046.43 1929.61 Q2046.43 1923.09 2043.19 1919.32 Q2039.99 1915.51 2034.48 1915.51 Q2028.97 1915.51 2025.73 1919.32 Q2022.53 1923.09 2022.53 1929.61 Q2022.53 1936.17 2025.73 1939.94 Q2028.97 1943.71 2034.48 1943.71 Z" fill="#ffffff" fill-rule="nonzero" fill-opacity="1" /><path clip-path="url(#clip010)" d="M2095.53 1938 Q2101.4 1939.25 2104.69 1943.22 Q2108.01 1947.19 2108.01 1953.03 Q2108.01 1961.98 2101.85 1966.88 Q2095.69 1971.78 2084.35 1971.78 Q2080.54 1971.78 2076.49 1971.01 Q2072.48 1970.28 2068.19 1968.78 L2068.19 1960.88 Q2071.59 1962.87 2075.64 1963.88 Q2079.69 1964.89 2084.11 1964.89 Q2091.8 1964.89 2095.81 1961.86 Q2099.87 1958.82 2099.87 1953.03 Q2099.87 1947.68 2096.1 1944.68 Q2092.37 1941.64 2085.69 1941.64 L2078.64 1941.64 L2078.64 1934.92 L2086.01 1934.92 Q2092.05 1934.92 2095.25 1932.53 Q2098.45 1930.1 2098.45 1925.56 Q2098.45 1920.9 2095.13 1918.43 Q2091.84 1915.92 2085.69 1915.92 Q2082.32 1915.92 2078.48 1916.65 Q2074.63 1917.38 2070.01 1918.92 L2070.01 1911.63 Q2074.67 1910.33 2078.72 1909.68 Q2082.81 1909.03 2086.42 1909.03 Q2095.73 1909.03 2101.16 1913.29 Q2106.59 1917.5 2106.59 1924.71 Q2106.59 1929.73 2103.71 1933.22 Q2100.84 1936.66 2095.53 1938 Z" fill="#ffffff" fill-rule="nonzero" fill-opacity="1" /><path clip-path="url(#clip010)" d="M2124.94 1963.72 L2138.31 1963.72 L2138.31 1917.58 L2123.77 1920.5 L2123.77 1913.04 L2138.23 1910.13 L2146.41 1910.13 L2146.41 1963.72 L2159.78 1963.72 L2159.78 1970.61 L2124.94 1970.61 L2124.94 1963.72 Z" fill="#ffffff" fill-rule="nonzero" fill-opacity="1" /><path clip-path="url(#clip010)" d="M1000.21 1012.07 L1028.77 1012.07 L1028.77 1018.96 L990.363 1018.96 L990.363 1012.07 Q995.022 1007.25 1003.04 999.151 Q1011.1 991.009 1013.17 988.659 Q1017.1 984.244 1018.64 981.205 Q1020.22 978.127 1020.22 975.17 Q1020.22 970.349 1016.82 967.311 Q1013.45 964.273 1008.03 964.273 Q1004.18 964.273 999.883 965.609 Q995.629 966.946 990.768 969.66 L990.768 961.396 Q995.71 959.412 1000 958.399 Q1004.3 957.386 1007.86 957.386 Q1017.26 957.386 1022.85 962.085 Q1028.44 966.784 1028.44 974.643 Q1028.44 978.37 1027.02 981.732 Q1025.65 985.054 1021.96 989.591 Q1020.95 990.766 1015.52 996.396 Q1010.09 1001.99 1000.21 1012.07 Z" fill="#ffffff" fill-rule="nonzero" fill-opacity="1" /><path clip-path="url(#clip010)" d="M1068.42 965.609 L1047.76 997.895 L1068.42 997.895 L1068.42 965.609 M1066.28 958.48 L1076.57 958.48 L1076.57 997.895 L1085.19 997.895 L1085.19 1004.7 L1076.57 1004.7 L1076.57 1018.96 L1068.42 1018.96 L1068.42 1004.7 L1041.12 1004.7 L1041.12 996.801 L1066.28 958.48 Z" fill="#ffffff" fill-rule="nonzero" fill-opacity="1" /><path clip-path="url(#clip010)" d="M1121.21 965.609 L1100.55 997.895 L1121.21 997.895 L1121.21 965.609 M1119.06 958.48 L1129.35 958.48 L1129.35 997.895 L1137.98 997.895 L1137.98 1004.7 L1129.35 1004.7 L1129.35 1018.96 L1121.21 1018.96 L1121.21 1004.7 L1093.9 1004.7 L1093.9 996.801 L1119.06 958.48 Z" fill="#ffffff" fill-rule="nonzero" fill-opacity="1" /><path clip-path="url(#clip010)" d="M806.235 1487.9 L819.603 1487.9 L819.603 1441.76 L805.06 1444.67 L805.06 1437.22 L819.522 1434.3 L827.705 1434.3 L827.705 1487.9 L841.073 1487.9 L841.073 1494.78 L806.235 1494.78 L806.235 1487.9 Z" fill="#ffffff" fill-rule="nonzero" fill-opacity="1" /><path clip-path="url(#clip010)" d="M859.018 1487.9 L872.386 1487.9 L872.386 1441.76 L857.843 1444.67 L857.843 1437.22 L872.305 1434.3 L880.488 1434.3 L880.488 1487.9 L893.856 1487.9 L893.856 1494.78 L859.018 1494.78 L859.018 1487.9 Z" fill="#ffffff" fill-rule="nonzero" fill-opacity="1" /><path clip-path="url(#clip010)" d="M927.884 1466.06 Q922.05 1466.06 918.688 1469.18 Q915.366 1472.3 915.366 1477.77 Q915.366 1483.24 918.688 1486.36 Q922.05 1489.48 927.884 1489.48 Q933.717 1489.48 937.079 1486.36 Q940.441 1483.2 940.441 1477.77 Q940.441 1472.3 937.079 1469.18 Q933.757 1466.06 927.884 1466.06 M919.701 1462.58 Q914.435 1461.28 911.477 1457.68 Q908.561 1454.07 908.561 1448.89 Q908.561 1441.64 913.705 1437.42 Q918.891 1433.21 927.884 1433.21 Q936.917 1433.21 942.062 1437.42 Q947.206 1441.64 947.206 1448.89 Q947.206 1454.07 944.249 1457.68 Q941.333 1461.28 936.107 1462.58 Q942.021 1463.96 945.302 1467.97 Q948.624 1471.98 948.624 1477.77 Q948.624 1486.56 943.237 1491.26 Q937.889 1495.96 927.884 1495.96 Q917.878 1495.96 912.49 1491.26 Q907.143 1486.56 907.143 1477.77 Q907.143 1471.98 910.465 1467.97 Q913.786 1463.96 919.701 1462.58 M916.703 1449.66 Q916.703 1454.36 919.62 1456.99 Q922.577 1459.62 927.884 1459.62 Q933.15 1459.62 936.107 1456.99 Q939.105 1454.36 939.105 1449.66 Q939.105 1444.96 936.107 1442.32 Q933.15 1439.69 927.884 1439.69 Q922.577 1439.69 919.62 1442.32 Q916.703 1444.96 916.703 1449.66 Z" fill="#ffffff" fill-rule="nonzero" fill-opacity="1" /><path clip-path="url(#clip010)" d="M1478.34 482.656 L1510.46 482.656 L1510.46 489.543 L1485.83 489.543 L1485.83 504.369 Q1487.62 503.762 1489.4 503.478 Q1491.18 503.154 1492.96 503.154 Q1503.09 503.154 1509.01 508.704 Q1514.92 514.253 1514.92 523.733 Q1514.92 533.495 1508.84 538.924 Q1502.77 544.311 1491.71 544.311 Q1487.9 544.311 1483.93 543.663 Q1480 543.015 1475.79 541.719 L1475.79 533.495 Q1479.43 535.48 1483.32 536.452 Q1487.21 537.425 1491.55 537.425 Q1498.55 537.425 1502.65 533.738 Q1506.74 530.052 1506.74 523.733 Q1506.74 517.413 1502.65 513.727 Q1498.55 510.041 1491.55 510.041 Q1488.26 510.041 1484.98 510.77 Q1481.74 511.499 1478.34 513.038 L1478.34 482.656 Z" fill="#ffffff" fill-rule="nonzero" fill-opacity="1" /><path clip-path="url(#clip010)" d="M1549.56 509.635 Q1544.05 509.635 1540.81 513.403 Q1537.6 517.17 1537.6 523.733 Q1537.6 530.255 1540.81 534.062 Q1544.05 537.83 1549.56 537.83 Q1555.06 537.83 1558.26 534.062 Q1561.51 530.255 1561.51 523.733 Q1561.51 517.17 1558.26 513.403 Q1555.06 509.635 1549.56 509.635 M1565.8 483.993 L1565.8 491.447 Q1562.72 489.989 1559.56 489.219 Q1556.44 488.449 1553.36 488.449 Q1545.26 488.449 1540.97 493.918 Q1536.71 499.387 1536.11 510.446 Q1538.5 506.921 1542.1 505.058 Q1545.71 503.154 1550.04 503.154 Q1559.16 503.154 1564.42 508.704 Q1569.73 514.213 1569.73 523.733 Q1569.73 533.05 1564.22 538.68 Q1558.71 544.311 1549.56 544.311 Q1539.06 544.311 1533.51 536.29 Q1527.96 528.229 1527.96 512.957 Q1527.96 498.617 1534.77 490.11 Q1541.57 481.563 1553.04 481.563 Q1556.12 481.563 1559.24 482.17 Q1562.4 482.778 1565.8 483.993 Z" fill="#ffffff" fill-rule="nonzero" fill-opacity="1" /><path clip-path="url(#clip010)" d="M1584.07 541.881 L1584.07 534.427 Q1587.15 535.885 1590.31 536.655 Q1593.47 537.425 1596.51 537.425 Q1604.61 537.425 1608.86 531.996 Q1613.15 526.528 1613.76 515.428 Q1611.41 518.912 1607.81 520.775 Q1604.2 522.639 1599.83 522.639 Q1590.75 522.639 1585.45 517.17 Q1580.18 511.661 1580.18 502.141 Q1580.18 492.824 1585.69 487.193 Q1591.2 481.563 1600.35 481.563 Q1610.85 481.563 1616.35 489.624 Q1621.9 497.645 1621.9 512.957 Q1621.9 527.257 1615.1 535.804 Q1608.33 544.311 1596.87 544.311 Q1593.79 544.311 1590.63 543.704 Q1587.47 543.096 1584.07 541.881 M1600.35 516.238 Q1605.86 516.238 1609.06 512.471 Q1612.3 508.704 1612.3 502.141 Q1612.3 495.619 1609.06 491.852 Q1605.86 488.044 1600.35 488.044 Q1594.84 488.044 1591.6 491.852 Q1588.4 495.619 1588.4 502.141 Q1588.4 508.704 1591.6 512.471 Q1594.84 516.238 1600.35 516.238 Z" fill="#ffffff" fill-rule="nonzero" fill-opacity="1" /></svg>
